<svg width="65" height="62" viewBox="0 0 65 62" fill="none" xmlns="http://www.w3.org/2000/svg">
<path d="M40.8607 26.1888L39.2834 37.1505H42.0436L40.2199 44.5408H40.9099L45.4445 35.464H42.4379L46.4796 26.1888H40.8607ZM64.3716 53.3696L53.7251 42.656C57.126 37.5472 56.6825 30.6032 52.2957 26.04C51.5071 21.7744 49.6834 17.9056 47.1696 14.6816V4.216C47.1696 1.8848 45.2966 0 42.98 0H9.8086C7.49201 0 5.61903 1.8848 5.61903 4.216V14.6816C2.1195 19.1952 0 24.8496 0 31C0 37.1504 2.07021 42.8049 5.61903 47.3185V57.784C5.61903 60.1152 7.49201 62 9.8086 62H42.98C45.2966 62 47.1696 60.1152 47.1696 57.784V47.7648C48.2047 47.4176 49.1905 46.9216 50.127 46.2768L60.7734 56.9905C61.217 57.4369 61.7592 57.6352 62.3507 57.6352C62.9421 57.6352 63.4843 57.4369 63.9279 56.9905L64.3716 56.544C65.2095 55.7008 65.2095 54.2624 64.3716 53.3696ZM7.59059 4.216C7.59059 2.976 8.57637 1.984 9.8086 1.984H42.98C44.2123 1.984 45.198 2.976 45.198 4.216V12.4C40.3677 7.4896 33.7137 4.464 26.3696 4.464C19.0256 4.464 12.3716 7.4896 7.59059 12.4V4.216ZM2.0209 31.0496C2.0209 17.5088 12.9631 6.49765 26.419 6.49765C34.0095 6.49765 40.91 10.0192 45.3953 15.624C45.4446 15.6736 45.4939 15.7232 45.5432 15.7728C47.4162 18.1536 48.8948 20.9313 49.782 24.0065C47.4654 22.5681 44.853 21.8736 42.2407 21.9728H35.291H34.3052H30.3621H28.3906H24.4474H22.4759H18.5327H16.5612H10.6465V33.1825H16.5612H18.5327H22.4759H24.4474H29.672C29.0312 37.2497 30.2635 41.5648 33.3687 44.7392C35.9317 47.3184 39.3326 48.6576 42.7336 48.6576C42.98 48.6576 43.2265 48.6576 43.5223 48.608C38.9877 53.1216 32.8759 55.6512 26.419 55.6512C12.9631 55.552 2.0209 44.5408 2.0209 31.0496ZM34.3052 23.9072V24.9488C33.9602 25.1968 33.6644 25.4944 33.3687 25.792C31.9886 27.1808 31.0029 28.7681 30.3621 30.4545V27.4785V23.8576H34.3052V23.9072ZM28.3906 23.9072V27.528V31.1488H24.4474V23.9072H28.3906ZM22.4759 23.9072V31.1488H18.5327V23.9072H22.4759ZM16.5118 23.9072V31.1488H12.5687V23.9072H16.5118ZM45.198 57.8336C45.198 59.0736 44.2123 60.0656 42.98 60.0656H9.8086C8.57637 60.0656 7.59059 59.0736 7.59059 57.8336V49.6C12.3716 54.5104 19.0256 57.536 26.3696 57.536C33.5166 57.536 40.2199 54.6592 45.1488 49.6V57.8336H45.198ZM50.6692 43.2512C46.2825 47.6656 39.1355 47.6656 34.7488 43.2512C30.3621 38.8368 30.3621 31.6448 34.7488 27.1808C36.9668 24.9488 39.8255 23.8576 42.7336 23.8576C45.6417 23.8576 48.5005 24.9488 50.7185 27.1808C55.056 31.6448 55.1052 38.8368 50.6692 43.2512ZM62.9421 55.1552L62.4986 55.6016C62.4 55.7008 62.2521 55.7008 62.1536 55.6016L51.7043 45.0865L52.5422 44.2432L62.9915 54.7585C63.0407 54.9073 63.0407 55.056 62.9421 55.1552Z" fill="#393939"/>
</svg>