<svg width="89" height="55" viewBox="0 0 89 55" fill="none" xmlns="http://www.w3.org/2000/svg">
<path d="M34.6734 41.1515C37.3068 43.8128 40.7692 45.1434 44.2805 45.1434C47.7429 45.1434 51.2055 43.8128 53.8877 41.1515L52.5222 39.7715C47.9868 44.3549 40.623 44.3549 36.0877 39.7715L34.6734 41.1515ZM29.2115 46.7205L27.846 48.1003C32.3813 52.6837 38.3309 55 44.3293 55C50.2789 55 56.2772 52.6837 60.8126 48.1003L59.4471 46.7205C51.0591 55.0987 37.5019 55.0987 29.2115 46.7205ZM47.938 35.1882C45.8898 37.2581 42.6224 37.2581 40.5742 35.1882L39.2087 36.5681C40.623 37.9973 42.4273 38.6873 44.2805 38.6873C46.1336 38.6873 47.9381 37.9973 49.3523 36.5681L47.938 35.1882ZM13.801 7.19528H11.7528V9.06806H17.8V7.19528H15.7517V3.64691H28.5775C29.1139 3.64691 29.5528 3.20336 29.5528 2.66125C29.5528 2.11913 29.1139 1.67558 28.5775 1.67558H15.7517V1.03488C15.7517 0.49276 15.3128 0.049211 14.7763 0.049211C14.2399 0.049211 13.801 0.49276 13.801 1.03488V1.67558H0.975342C0.438904 1.67558 0 2.11913 0 2.66125C0 3.20336 0.438904 3.64691 0.975342 3.64691H13.801V7.19528ZM88.0247 1.62637H75.1989V0.985664C75.1989 0.443549 74.76 0 74.2235 0C73.6871 0 73.2482 0.443549 73.2482 0.985664V1.62637H60.4224C59.886 1.62637 59.4471 2.06992 59.4471 2.61203C59.4471 3.15415 59.886 3.5977 60.4224 3.5977H73.2482V7.14607H71.2V9.01885H77.2471V7.14607H75.1989V3.5977H88.0247C88.5611 3.5977 89 3.15415 89 2.61203C89 2.06992 88.5611 1.62637 88.0247 1.62637ZM57.155 10.3495L51.3517 12.4687C50.7177 12.7151 50.0837 12.8136 49.401 12.8136H39.1599C38.4772 12.8136 37.8432 12.7151 37.2092 12.4687L31.406 10.3495C30.5282 10.0045 29.6015 9.85664 28.675 9.85664H11.3626V16.3127L24.1884 17.8405C25.0662 17.9391 25.9441 18.2348 26.6756 18.7276L32.4301 22.3745C33.503 23.0645 34.7709 23.4588 36.0389 23.5081C36.5265 27.6971 40.0378 30.9499 44.3293 30.9499C48.6208 30.9499 52.132 27.6971 52.6197 23.5081C53.8876 23.4588 55.1555 23.0645 56.2284 22.3745L61.9829 18.7276C62.7144 18.2348 63.5923 17.9391 64.4701 17.8405L77.2959 16.3127V9.85664H59.9836C58.9107 9.85664 58.0329 10.0538 57.155 10.3495ZM44.2805 29.0278C41.1106 29.0278 38.4284 26.6622 37.9895 23.5574H50.6202C50.1325 26.6622 47.4503 29.0278 44.2805 29.0278ZM75.2476 14.5878L64.1775 15.9185C63.007 16.0664 61.8854 16.4606 60.9101 17.1013L55.1555 20.7482C54.2777 21.2903 53.2537 21.6353 52.1808 21.6353C50.474 21.6353 38.1359 21.6353 36.429 21.6353C35.3561 21.6353 34.332 21.3396 33.4542 20.7482L27.6996 17.1013C26.7243 16.4606 25.5539 16.0664 24.4323 15.9185L13.3621 14.5878V11.828H28.7238C29.4065 11.828 30.138 11.9265 30.772 12.1729L36.5753 14.2921C37.4044 14.5878 38.2821 14.7356 39.1599 14.7356H49.401C50.2788 14.7356 51.1566 14.5878 51.9857 14.2921L57.789 12.1729C58.4718 11.9265 59.1545 11.828 59.8372 11.828H75.1989V14.5878H75.2476ZM44.2805 28.2885C45.1095 28.2885 45.7923 27.5986 45.7923 26.7608C45.7923 25.923 45.1095 25.233 44.2805 25.233C43.4514 25.233 42.7687 25.923 42.7687 26.7608C42.7687 27.5986 43.4514 28.2885 44.2805 28.2885Z" fill="#393939"/>
</svg>