<svg width="90" height="63" viewBox="0 0 90 63" fill="none" xmlns="http://www.w3.org/2000/svg">
<path d="M83.5749 25.3299C79.455 21.1332 74.0108 18.835 68.2234 18.835C68.0272 18.835 67.8801 18.835 67.6839 18.835L73.7166 0H55.9618H53.9019H38.207H36.1471H18.3924L8.87731 29.8263L0 57.6543H17.7547H19.8147H35.5095H37.5694H54.0981C58.0218 61.1015 63.0245 63 68.2725 63C74.0599 63 79.5041 60.7018 83.624 56.5051C87.7439 52.3085 90 46.7628 90 40.8675C90 34.9722 87.6457 29.4766 83.5749 25.3299ZM55.2752 2.0483H70.97L65.5258 19.0348C60.7193 19.6344 56.3052 21.8327 52.8229 25.3299C52.0381 26.1293 51.3025 26.9785 50.6649 27.8778H46.9864L51.1062 14.9381L55.2752 2.0483ZM37.5204 2.0483H53.2153L49.0953 14.9881L44.9755 27.9278H29.2806L33.4005 14.9881L37.5204 2.0483ZM19.7657 2.0483H35.4605L31.3406 14.9881L27.2207 27.9278H11.5259L19.7657 2.0483ZM18.3433 55.7059H2.64845L10.8883 29.8762H26.5831L22.4632 42.816L18.3433 55.7059ZM36.098 55.7059H20.4032L24.5232 42.766L28.643 29.8263H44.3378L40.218 42.766L36.098 55.7059ZM38.1581 55.7059L42.2779 42.766L46.3978 29.8263H49.4387C47.5259 33.1737 46.4959 36.9707 46.4959 40.9175C46.4959 46.4132 48.4577 51.6091 52.0381 55.6558H38.1581V55.7059ZM82.1526 55.1562C78.4251 58.9532 73.4714 61.0516 68.1744 61.0516C62.8774 61.0516 57.9237 58.9532 54.1962 55.1562C50.4687 51.3592 48.4087 46.3132 48.4087 40.9175C48.4087 35.5218 50.4687 30.4758 54.1962 26.6788C57.9237 22.8818 62.8774 20.7835 68.1744 20.7835C73.4714 20.7835 78.4251 22.8818 82.1526 26.6788C85.8801 30.4758 87.9401 35.5218 87.9401 40.9175C87.9401 46.3132 85.8801 51.3592 82.1526 55.1562ZM77.1499 34.7225L74.3052 31.8248L77.1499 28.927C75.5804 28.3775 73.7656 28.7771 72.5395 30.0261C71.2643 31.3251 70.921 33.1237 71.4605 34.7225L62.1417 44.215C60.5722 43.6654 58.7575 44.0651 57.5314 45.3141C56.2562 46.613 55.9127 48.4116 56.4522 50.0103L59.297 47.1126L62.1417 50.0103L59.297 52.908C60.8664 53.4576 62.6812 53.0579 63.9074 51.8089C65.1826 50.5099 65.5259 48.7113 64.9864 47.1126L74.3052 37.6201C75.8747 38.1697 77.6893 37.77 78.9155 36.521C80.1907 35.222 80.534 33.4235 79.9945 31.8248L77.1499 34.7225Z" fill="#393939"/>
</svg>