<svg width="75" height="43" viewBox="0 0 75 43" fill="none" xmlns="http://www.w3.org/2000/svg">
<path d="M72.4769 18.0135L67.8296 14.7207L60.5621 2.9054C59.425 1.11374 57.3981 0 55.2722 0H6.17981C2.76855 0 0 2.71171 0 6.05292V31.6689C0 35.0101 2.76855 37.7218 6.17981 37.7218H9.83821C10.3326 40.724 12.9529 43 16.117 43C19.2811 43 21.9507 40.724 22.3957 37.7218H57.2498C57.7442 40.724 60.3644 43 63.5284 43C66.7419 43 69.4116 40.6756 69.8566 37.625C72.7735 37.1407 74.9981 34.6711 74.9981 31.6689V22.9043C75.0476 21.0158 74.1083 19.1756 72.4769 18.0135ZM16.117 41.1114C13.6945 41.1114 11.7169 39.1745 11.7169 36.8018C11.7169 34.429 13.6945 32.492 16.117 32.492C18.5395 32.492 20.517 34.429 20.517 36.8018C20.517 39.1745 18.5395 41.1114 16.117 41.1114ZM63.5779 41.1114C61.1554 41.1114 59.1778 39.1745 59.1778 36.8018C59.1778 34.429 61.1554 32.492 63.5779 32.492C66.0004 32.492 67.9779 34.429 67.9779 36.8018C67.9779 39.1745 66.0004 41.1114 63.5779 41.1114ZM73.0701 23.6306H69.6094V25.5676H73.0701V31.7173C73.0701 33.6543 71.6858 35.3007 69.8566 35.7365C69.3128 32.8311 66.742 30.5551 63.5779 30.5551C60.4139 30.5551 57.7441 32.8311 57.2991 35.8333H22.445C21.9506 32.8311 19.3304 30.5551 16.1664 30.5551C13.0023 30.5551 10.3326 32.8311 9.8877 35.8333H6.2293C3.90569 35.8333 2.02703 33.9932 2.02703 31.7173V25.5676H5.43823V23.6306H2.02703V6.10128C2.02703 3.82538 3.90569 1.98529 6.2293 1.98529H55.3216C56.8048 1.98529 58.1891 2.76011 58.9306 3.9707L65.4071 14.4785H50.4272V16.4155H66.8408L71.3891 19.6598C72.4768 20.4346 73.1195 21.6937 73.1195 23.0011V23.6306H73.0701ZM28.2788 4.60022L25.7575 21.6452H30.1575L27.2406 33.1216H28.3776L35.5957 19.0304H30.8002L37.2272 4.60022H28.2788Z" fill="#393939"/>
</svg>