<svg width="809" height="436" viewBox="0 0 809 436" fill="none" xmlns="http://www.w3.org/2000/svg">
<path d="M88.5542 335.284L78.0692 324.737L86.4649 313.483L87.8928 314.438L80.3265 324.587L89.8281 334.146L88.5542 335.284Z" fill="#393939"/>
<path d="M79.1996 325.745C80.0191 325.745 80.6835 325.115 80.6835 324.339C80.6835 323.562 80.0191 322.932 79.1996 322.932C78.3801 322.932 77.7157 323.562 77.7157 324.339C77.7157 325.115 78.3801 325.745 79.1996 325.745Z" fill="white"/>
<path d="M79.1996 326.575C77.8977 326.575 76.8408 325.573 76.8408 324.338C76.8408 323.104 77.8977 322.102 79.1996 322.102C80.5015 322.102 81.5584 323.104 81.5584 324.338C81.5584 325.573 80.498 326.575 79.1996 326.575ZM79.1996 323.758C78.8636 323.758 78.5907 324.017 78.5907 324.335C78.5907 324.654 78.8636 324.912 79.1996 324.912C79.5356 324.912 79.8086 324.654 79.8086 324.335C79.8086 324.017 79.5356 323.758 79.1996 323.758Z" fill="#393939"/>
<path d="M112.608 335.284L111.334 334.146L120.836 324.587L113.266 314.438L114.697 313.483L123.089 324.737L112.608 335.284Z" fill="#393939"/>
<path d="M121.962 325.745C122.782 325.745 123.446 325.115 123.446 324.339C123.446 323.562 122.782 322.932 121.962 322.932C121.143 322.932 120.479 323.562 120.479 324.339C120.479 325.115 121.143 325.745 121.962 325.745Z" fill="white"/>
<path d="M121.962 326.575C120.66 326.575 119.604 325.573 119.604 324.338C119.604 323.104 120.66 322.102 121.962 322.102C123.264 322.102 124.321 323.104 124.321 324.338C124.321 325.573 123.264 326.575 121.962 326.575ZM121.962 323.758C121.626 323.758 121.353 324.017 121.353 324.335C121.353 324.654 121.626 324.912 121.962 324.912C122.298 324.912 122.571 324.654 122.571 324.335C122.571 324.017 122.298 323.758 121.962 323.758Z" fill="#393939"/>
<path d="M564.326 435.684H1.61499V66.9571H564.326V435.684V435.684ZM3.36483 434.025H562.576V68.6159H3.36483V434.025Z" fill="#393939"/>
<path d="M542.436 435.684H23.5057V86.2961H542.436V435.684ZM25.2555 434.025H540.686V87.955H25.2555V434.025Z" fill="#393939"/>
<path d="M112.482 27.0346L1.17841 61.2194L2.91604 66.304L114.22 32.1191L112.482 27.0346Z" fill="#B7D3F7"/>
<path d="M2.35691 67.3553L0.0786133 60.6933L113.049 26L115.327 32.662L2.35691 67.3553ZM2.28342 61.7583L3.48031 65.2651L113.122 31.5937L111.925 28.0868L2.28342 61.7583Z" fill="#393939"/>
<path d="M224.959 27.0326L113.655 61.2175L115.393 66.302L226.696 32.1172L224.959 27.0326Z" fill="#B7D3F7"/>
<path d="M114.837 67.3553L112.559 60.6933L225.529 26L227.807 32.662L114.837 67.3553ZM114.763 61.7583L115.96 65.2651L225.602 31.5937L224.405 28.0868L114.763 61.7583Z" fill="#393939"/>
<path d="M337.436 27.0306L226.132 61.2154L227.87 66.3L339.173 32.1151L337.436 27.0306Z" fill="#B7D3F7"/>
<path d="M227.317 67.3553L225.039 60.6933L338.009 26L340.287 32.662L227.317 67.3553ZM227.247 61.7583L228.444 65.2651L338.086 31.5937L336.889 28.0868L227.247 61.7583Z" fill="#393939"/>
<path d="M449.916 27.0276L338.612 61.2125L340.35 66.297L451.653 32.1122L449.916 27.0276Z" fill="#B7D3F7"/>
<path d="M339.8 67.3553L337.522 60.6933L450.492 26L452.77 32.662L339.8 67.3553ZM339.727 61.7583L340.924 65.2651L450.566 31.5937L449.365 28.0868L339.727 61.7583Z" fill="#393939"/>
<path d="M562.393 27.0257L451.089 61.2105L452.827 66.295L564.13 32.1102L562.393 27.0257Z" fill="#B7D3F7"/>
<path d="M452.28 67.3553L450.002 60.6933L562.972 26L565.247 32.662L452.28 67.3553ZM452.207 61.7583L453.404 65.2651L563.045 31.5937L561.849 28.0868L452.207 61.7583Z" fill="#393939"/>
<path d="M541.561 241.591H24.3806V245.437H541.561V241.591Z" fill="#C8C8C8"/>
<path d="M542.436 246.269H23.5057V240.765H542.436V246.269ZM25.2555 244.611H540.686V242.424H25.2555V244.611Z" fill="#393939"/>
<path d="M89.6077 237.72V247.839L94.7628 253.402C96.5931 255.377 99.2283 256.508 102 256.508C104.772 256.508 107.411 255.377 109.237 253.402L114.392 247.839V237.72H89.6077Z" fill="#C8C8C8"/>
<path d="M102.004 257.334C98.9799 257.334 96.1031 256.1 94.1083 253.947L88.7328 248.147V236.887H115.274V248.147L109.899 253.947C107.904 256.1 105.027 257.334 102.004 257.334ZM90.4826 247.524L95.4207 252.852C97.083 254.647 99.4838 255.675 102.004 255.675C104.523 255.675 106.921 254.647 108.587 252.852L113.525 247.524V238.549H90.4826V247.524V247.524Z" fill="#393939"/>
<path d="M80.3755 240.765C83.7676 240.765 86.5174 238.158 86.5174 234.943C86.5174 231.727 83.7676 229.12 80.3755 229.12C76.9833 229.12 74.2335 231.727 74.2335 234.943C74.2335 238.158 76.9833 240.765 80.3755 240.765Z" fill="#393939"/>
<path d="M80.3755 241.591C76.5048 241.591 73.3586 238.609 73.3586 234.939C73.3586 231.27 76.5048 228.287 80.3755 228.287C84.2462 228.287 87.3924 231.27 87.3924 234.939C87.3924 238.609 84.2462 241.591 80.3755 241.591ZM80.3755 229.95C77.4707 229.95 75.1084 232.189 75.1084 234.943C75.1084 237.696 77.4707 239.936 80.3755 239.936C83.2802 239.936 85.6425 237.696 85.6425 234.943C85.6425 232.189 83.2802 229.95 80.3755 229.95Z" fill="#393939"/>
<path d="M123.628 240.765C127.02 240.765 129.77 238.158 129.77 234.943C129.77 231.727 127.02 229.12 123.628 229.12C120.236 229.12 117.486 231.727 117.486 234.943C117.486 238.158 120.236 240.765 123.628 240.765Z" fill="#393939"/>
<path d="M123.628 241.591C119.757 241.591 116.611 238.609 116.611 234.939C116.611 231.27 119.757 228.287 123.628 228.287C127.499 228.287 130.645 231.27 130.645 234.939C130.645 238.609 127.499 241.591 123.628 241.591ZM123.628 229.95C120.723 229.95 118.361 232.189 118.361 234.943C118.361 237.696 120.723 239.936 123.628 239.936C126.533 239.936 128.895 237.696 128.895 234.943C128.895 232.189 126.533 229.95 123.628 229.95Z" fill="#393939"/>
<path d="M122.186 233.297L116.769 237.72H87.3993L81.9818 233.297C80.9564 232.461 79.4025 232.607 78.5731 233.619C77.9292 234.402 77.9082 235.493 78.5206 236.3L87.3993 248.014H116.769L125.647 236.3C126.26 235.493 126.235 234.402 125.595 233.619C124.762 232.607 123.208 232.461 122.186 233.297Z" fill="white"/>
<path d="M117.217 248.847H86.9515L77.8103 236.784C76.9774 235.686 77.0089 234.176 77.8838 233.108C78.4332 232.438 79.2277 232.023 80.1166 231.937C81.0055 231.854 81.8734 232.113 82.5524 232.667L87.7214 236.887H116.44L121.609 232.667C122.288 232.113 123.152 231.857 124.045 231.937C124.937 232.02 125.728 232.438 126.277 233.108C127.152 234.173 127.184 235.686 126.351 236.784L117.217 248.847ZM87.8474 247.188H116.317L124.934 235.819C125.315 235.314 125.301 234.621 124.899 234.13C124.647 233.821 124.283 233.632 123.87 233.592C123.46 233.556 123.061 233.672 122.75 233.928L117.087 238.549H87.0705L81.408 233.928C81.0965 233.672 80.701 233.556 80.2881 233.592C79.8786 233.632 79.5146 233.821 79.2592 234.13C78.8567 234.621 78.8427 235.314 79.2242 235.819L87.8474 247.188Z" fill="#393939"/>
<path d="M102.878 256.505H101.129V312.342H102.878V256.505Z" fill="#393939"/>
<path d="M113.906 312.829L105.293 309.923C104.142 309.535 102.928 309.336 101.703 309.336H98.8015C97.5766 309.336 96.3622 309.535 95.2108 309.923L86.6016 312.829C86.0556 313.012 85.6917 313.503 85.6917 314.05C85.6917 314.767 86.3041 315.347 87.06 315.347H113.448C114.204 315.347 114.816 314.767 114.816 314.05C114.816 313.503 114.452 313.012 113.906 312.829Z" fill="#C8C8C8"/>
<path d="M113.448 316.177H87.0601C85.8247 316.177 84.8168 315.221 84.8168 314.05C84.8168 313.151 85.4152 312.348 86.3076 312.046L94.9204 309.14C96.1697 308.719 97.4786 308.503 98.805 308.503H101.706C103.033 308.503 104.338 308.715 105.591 309.14L114.204 312.046C115.096 312.348 115.694 313.151 115.694 314.05C115.691 315.225 114.687 316.177 113.448 316.177ZM98.8015 310.165C97.6746 310.165 96.5652 310.348 95.5048 310.706L86.8921 313.612C86.6961 313.679 86.5631 313.854 86.5631 314.054C86.5631 314.312 86.7836 314.521 87.0566 314.521H113.444C113.717 314.521 113.938 314.312 113.938 314.054C113.938 313.858 113.805 313.679 113.609 313.612L104.996 310.706C103.936 310.348 102.826 310.165 101.699 310.165H98.8015Z" fill="#393939"/>
<path d="M87.1789 316.88C88.8798 316.88 90.2587 315.573 90.2587 313.961C90.2587 312.348 88.8798 311.041 87.1789 311.041C85.478 311.041 84.0992 312.348 84.0992 313.961C84.0992 315.573 85.478 316.88 87.1789 316.88Z" fill="white"/>
<path d="M87.1789 317.71C84.9986 317.71 83.2242 316.028 83.2242 313.961C83.2242 311.894 84.9986 310.212 87.1789 310.212C89.3592 310.212 91.1336 311.894 91.1336 313.961C91.1336 316.028 89.3592 317.71 87.1789 317.71ZM87.1789 311.87C85.9645 311.87 84.9741 312.806 84.9741 313.961C84.9741 315.115 85.961 316.051 87.1789 316.051C88.3968 316.051 89.3837 315.112 89.3837 313.961C89.3837 312.809 88.3933 311.87 87.1789 311.87Z" fill="#393939"/>
<path d="M113.983 316.88C115.684 316.88 117.063 315.573 117.063 313.961C117.063 312.348 115.684 311.041 113.983 311.041C112.282 311.041 110.903 312.348 110.903 313.961C110.903 315.573 112.282 316.88 113.983 316.88Z" fill="white"/>
<path d="M113.983 317.71C111.803 317.71 110.028 316.028 110.028 313.961C110.028 311.894 111.803 310.212 113.983 310.212C116.163 310.212 117.938 311.894 117.938 313.961C117.934 316.028 116.163 317.71 113.983 317.71ZM113.983 311.87C112.769 311.87 111.778 312.806 111.778 313.961C111.778 315.115 112.765 316.051 113.983 316.051C115.201 316.051 116.188 315.112 116.188 313.961C116.188 312.809 115.197 311.87 113.983 311.87Z" fill="#393939"/>
<path d="M112.401 322.928H88.7607V345.34H112.401V322.928Z" fill="white"/>
<path d="M113.276 346.172H87.8859V322.102H113.276V346.172ZM89.6357 344.513H111.526V323.761H89.6357V344.513Z" fill="#393939"/>
<path d="M273.1 308.991C273.1 303.921 277.432 299.814 282.78 299.814C288.127 299.814 292.46 303.921 292.46 308.991V322.514H273.1V308.991V308.991Z" fill="#FFD100"/>
<path d="M293.331 323.343H272.221V308.991C272.221 303.473 276.956 298.984 282.776 298.984C288.596 298.984 293.331 303.473 293.331 308.991V323.343V323.343ZM273.975 321.684H291.585V308.991C291.585 304.389 287.634 300.643 282.78 300.643C277.926 300.643 273.975 304.389 273.975 308.991V321.684V321.684Z" fill="#393939"/>
<path d="M297.335 329.179H268.221V321.684H297.335V329.179ZM269.971 327.52H295.585V323.343H269.971V327.52Z" fill="#393939"/>
<path d="M498.511 410.227H336.381V375.093H498.511C508.73 375.093 517.042 382.972 517.042 392.66C517.042 402.348 508.73 410.227 498.511 410.227ZM338.131 408.568H498.511C507.764 408.568 515.292 401.432 515.292 392.66C515.292 383.888 507.764 376.752 498.511 376.752H338.131V408.568Z" fill="#393939"/>
<path d="M498.424 378.908C506.434 378.908 512.93 385.066 512.93 392.66C512.93 400.254 506.434 406.412 498.424 406.412H337.256V378.908H498.424Z" fill="#C8C8C8"/>
<path d="M498.424 407.241H336.381V378.079H498.424C506.903 378.079 513.805 384.621 513.805 392.66C513.805 400.699 506.903 407.241 498.424 407.241ZM338.131 405.582H498.424C505.941 405.582 512.055 399.786 512.055 392.66C512.055 385.534 505.941 379.738 498.424 379.738H338.131V405.582Z" fill="#393939"/>
<path d="M498.424 403.31C492.229 403.31 487.19 398.532 487.19 392.66C487.19 386.788 492.229 382.01 498.424 382.01C504.618 382.01 509.658 386.788 509.658 392.66C509.658 398.532 504.618 403.31 498.424 403.31ZM498.424 383.669C493.195 383.669 488.94 387.703 488.94 392.66C488.94 397.617 493.195 401.651 498.424 401.651C503.652 401.651 507.908 397.617 507.908 392.66C507.908 387.703 503.652 383.669 498.424 383.669Z" fill="#393939"/>
<path d="M498.424 395.984C496.492 395.984 494.917 394.495 494.917 392.66C494.917 390.825 496.488 389.336 498.424 389.336C500.359 389.336 501.93 390.825 501.93 392.66C501.93 394.495 500.356 395.984 498.424 395.984ZM498.424 390.995C497.454 390.995 496.667 391.741 496.667 392.66C496.667 393.579 497.454 394.326 498.424 394.326C499.393 394.326 500.181 393.579 500.181 392.66C500.181 391.741 499.393 390.995 498.424 390.995Z" fill="#393939"/>
<path d="M445.312 395.984C443.381 395.984 441.806 394.495 441.806 392.66C441.806 390.825 443.377 389.336 445.312 389.336C447.244 389.336 448.819 390.825 448.819 392.66C448.819 394.495 447.244 395.984 445.312 395.984ZM445.312 390.995C444.343 390.995 443.555 391.741 443.555 392.66C443.555 393.579 444.343 394.326 445.312 394.326C446.282 394.326 447.069 393.579 447.069 392.66C447.069 391.741 446.282 390.995 445.312 390.995Z" fill="#393939"/>
<path d="M392.201 395.984C390.269 395.984 388.694 394.495 388.694 392.66C388.694 390.825 390.266 389.336 392.201 389.336C394.136 389.336 395.708 390.825 395.708 392.66C395.708 394.495 394.133 395.984 392.201 395.984ZM392.201 390.995C391.232 390.995 390.444 391.741 390.444 392.66C390.444 393.579 391.232 394.326 392.201 394.326C393.171 394.326 393.958 393.579 393.958 392.66C393.958 391.741 393.171 390.995 392.201 390.995Z" fill="#393939"/>
<path d="M339.09 395.984C337.158 395.984 335.583 394.495 335.583 392.66C335.583 390.825 337.155 389.336 339.09 389.336C341.022 389.336 342.597 390.825 342.597 392.66C342.597 394.495 341.022 395.984 339.09 395.984ZM339.09 390.995C338.121 390.995 337.333 391.741 337.333 392.66C337.333 393.579 338.121 394.326 339.09 394.326C340.059 394.326 340.847 393.579 340.847 392.66C340.847 391.741 340.059 390.995 339.09 390.995Z" fill="#393939"/>
<path d="M445.313 403.31C439.118 403.31 434.079 398.532 434.079 392.66C434.079 386.788 439.118 382.01 445.313 382.01C451.507 382.01 456.547 386.788 456.547 392.66C456.547 398.532 451.507 403.31 445.313 403.31ZM445.313 383.669C440.084 383.669 435.828 387.703 435.828 392.66C435.828 397.617 440.084 401.651 445.313 401.651C450.541 401.651 454.797 397.617 454.797 392.66C454.797 387.703 450.541 383.669 445.313 383.669Z" fill="#393939"/>
<path d="M392.201 403.31C386.007 403.31 380.967 398.532 380.967 392.66C380.967 386.788 386.007 382.01 392.201 382.01C398.396 382.01 403.435 386.788 403.435 392.66C403.435 398.532 398.396 403.31 392.201 403.31ZM392.201 383.669C386.973 383.669 382.717 387.703 382.717 392.66C382.717 397.617 386.973 401.651 392.201 401.651C397.43 401.651 401.685 397.617 401.685 392.66C401.685 387.703 397.43 383.669 392.201 383.669Z" fill="#393939"/>
<path d="M339.09 403.31C332.895 403.31 327.856 398.532 327.856 392.66C327.856 386.788 332.895 382.01 339.09 382.01C345.284 382.01 350.324 386.788 350.324 392.66C350.324 398.532 345.284 403.31 339.09 403.31ZM339.09 383.669C333.861 383.669 329.606 387.703 329.606 392.66C329.606 397.617 333.861 401.651 339.09 401.651C344.318 401.651 348.574 397.617 348.574 392.66C348.574 387.703 344.318 383.669 339.09 383.669Z" fill="#393939"/>
<path d="M497.507 409.398H495.757V434.855H497.507V409.398Z" fill="#393939"/>
<path d="M454.755 409.398H453.005V434.855H454.755V409.398Z" fill="#393939"/>
<path d="M412.002 409.398H410.252V434.855H412.002V409.398Z" fill="#393939"/>
<path d="M369.25 409.398H367.5V434.855H369.25V409.398Z" fill="#393939"/>
<path d="M492.222 411.723L501.055 411.723L501.055 409.397L492.222 409.397L492.222 411.723Z" fill="#393939"/>
<path d="M501.93 412.553H491.347V408.568H501.93V412.553ZM493.097 410.894H500.18V410.227H493.097V410.894Z" fill="#393939"/>
<path d="M492.222 434.853L501.055 434.853L501.055 432.527L492.222 432.527L492.222 434.853Z" fill="#393939"/>
<path d="M501.93 435.684H491.347V431.7H501.93V435.684ZM493.097 434.025H500.18V433.358H493.097V434.025Z" fill="#393939"/>
<path d="M449.463 411.723L458.296 411.723L458.296 409.397L449.463 409.397L449.463 411.723Z" fill="#393939"/>
<path d="M459.171 412.553H448.588V408.568H459.171V412.553ZM450.338 410.894H457.421V410.227H450.338V410.894Z" fill="#393939"/>
<path d="M449.463 434.853L458.296 434.853L458.296 432.527L449.463 432.527L449.463 434.853Z" fill="#393939"/>
<path d="M459.171 435.684H448.588V431.7H459.171V435.684ZM450.338 434.025H457.421V433.358H450.338V434.025Z" fill="#393939"/>
<path d="M406.703 411.723L415.537 411.723L415.537 409.397L406.703 409.397L406.703 411.723Z" fill="#393939"/>
<path d="M416.412 412.553H405.829V408.568H416.412V412.553ZM407.579 410.894H414.662V410.227H407.579V410.894Z" fill="#393939"/>
<path d="M406.703 434.853L415.537 434.853L415.537 432.527L406.703 432.527L406.703 434.853Z" fill="#393939"/>
<path d="M416.412 435.684H405.829V431.7H416.412V435.684ZM407.579 434.025H414.662V433.358H407.579V434.025Z" fill="#393939"/>
<path d="M363.944 411.723L372.777 411.723L372.777 409.397L363.944 409.397L363.944 411.723Z" fill="#393939"/>
<path d="M373.653 412.553H363.07V408.568H373.653V412.553ZM364.82 410.894H371.903V410.227H364.82V410.894Z" fill="#393939"/>
<path d="M363.944 434.853L372.777 434.853L372.777 432.527L363.944 432.527L363.944 434.853Z" fill="#393939"/>
<path d="M373.653 435.684H363.07V431.7H373.653V435.684ZM364.82 434.025H371.903V433.358H364.82V434.025Z" fill="#393939"/>
<path d="M469.947 365.541L459.462 354.997L467.857 343.74L469.285 344.699L461.719 354.845L471.22 364.403L469.947 365.541Z" fill="#393939"/>
<path d="M460.592 356.003C461.411 356.003 462.076 355.373 462.076 354.596C462.076 353.819 461.411 353.189 460.592 353.189C459.772 353.189 459.108 353.819 459.108 354.596C459.108 355.373 459.772 356.003 460.592 356.003Z" fill="white"/>
<path d="M460.592 356.835C459.29 356.835 458.233 355.834 458.233 354.599C458.233 353.365 459.29 352.363 460.592 352.363C461.894 352.363 462.951 353.365 462.951 354.599C462.951 355.834 461.89 356.835 460.592 356.835ZM460.592 354.019C460.256 354.019 459.983 354.278 459.983 354.596C459.983 354.915 460.256 355.173 460.592 355.173C460.928 355.173 461.201 354.915 461.201 354.596C461.201 354.278 460.928 354.019 460.592 354.019Z" fill="#393939"/>
<path d="M494 365.541L492.726 364.403L502.228 354.845L494.658 344.699L496.089 343.74L504.482 354.997L494 365.541Z" fill="#393939"/>
<path d="M503.355 356.003C504.174 356.003 504.839 355.373 504.839 354.596C504.839 353.819 504.174 353.189 503.355 353.189C502.535 353.189 501.871 353.819 501.871 354.596C501.871 355.373 502.535 356.003 503.355 356.003Z" fill="white"/>
<path d="M503.355 356.835C502.053 356.835 500.996 355.834 500.996 354.599C500.996 353.365 502.056 352.363 503.355 352.363C504.653 352.363 505.713 353.365 505.713 354.599C505.713 355.834 504.657 356.835 503.355 356.835ZM503.355 354.019C503.019 354.019 502.746 354.278 502.746 354.596C502.746 354.915 503.019 355.173 503.355 355.173C503.691 355.173 503.964 354.915 503.964 354.596C503.964 354.278 503.691 354.019 503.355 354.019Z" fill="#393939"/>
<path d="M471 237.72V247.839L476.155 253.402C477.985 255.377 480.621 256.508 483.392 256.508C486.164 256.508 488.803 255.377 490.63 253.402L495.785 247.839V237.72H471Z" fill="#C8C8C8"/>
<path d="M483.396 257.334C480.372 257.334 477.495 256.1 475.501 253.947L470.125 248.147V236.887H496.667V248.147L491.291 253.947C489.296 256.1 486.42 257.334 483.396 257.334ZM471.875 247.523L476.813 252.852C478.475 254.647 480.876 255.675 483.396 255.675C485.916 255.675 488.313 254.647 489.975 252.852L494.913 247.523V238.549H471.871V247.523H471.875Z" fill="#393939"/>
<path d="M461.768 240.765C465.16 240.765 467.91 238.158 467.91 234.943C467.91 231.727 465.16 229.12 461.768 229.12C458.376 229.12 455.626 231.727 455.626 234.943C455.626 238.158 458.376 240.765 461.768 240.765Z" fill="#393939"/>
<path d="M461.768 241.591C457.897 241.591 454.751 238.609 454.751 234.939C454.751 231.27 457.897 228.287 461.768 228.287C465.635 228.287 468.785 231.27 468.785 234.939C468.785 238.609 465.639 241.591 461.768 241.591ZM461.768 229.95C458.863 229.95 456.501 232.189 456.501 234.943C456.501 237.696 458.863 239.936 461.768 239.936C464.673 239.936 467.035 237.696 467.035 234.943C467.035 232.189 464.673 229.95 461.768 229.95Z" fill="#393939"/>
<path d="M505.021 240.765C508.413 240.765 511.163 238.158 511.163 234.943C511.163 231.727 508.413 229.12 505.021 229.12C501.628 229.12 498.879 231.727 498.879 234.943C498.879 238.158 501.628 240.765 505.021 240.765Z" fill="#393939"/>
<path d="M505.02 241.591C501.15 241.591 498.004 238.609 498.004 234.939C498.004 231.27 501.15 228.287 505.02 228.287C508.888 228.287 512.037 231.27 512.037 234.939C512.037 238.609 508.891 241.591 505.02 241.591ZM505.02 229.95C502.116 229.95 499.754 232.189 499.754 234.943C499.754 237.696 502.116 239.936 505.02 239.936C507.925 239.936 510.287 237.696 510.287 234.943C510.287 232.189 507.925 229.95 505.02 229.95Z" fill="#393939"/>
<path d="M503.579 233.297L498.161 237.72H468.792L463.374 233.297C462.349 232.461 460.795 232.607 459.965 233.619C459.322 234.402 459.301 235.493 459.913 236.3L468.792 248.014H498.161L507.04 236.3C507.652 235.493 507.628 234.402 506.987 233.619C506.154 232.607 504.6 232.461 503.579 233.297Z" fill="white"/>
<path d="M498.609 248.847H468.344L459.202 236.784C458.369 235.686 458.401 234.176 459.276 233.108C459.825 232.438 460.62 232.023 461.509 231.937C462.398 231.854 463.266 232.113 463.945 232.667L469.114 236.887H497.832L503.001 232.667C503.68 232.113 504.544 231.857 505.433 231.937C506.326 232.02 507.117 232.438 507.67 233.108C508.545 234.176 508.576 235.686 507.743 236.784L498.609 248.847ZM469.24 247.188H497.71L506.326 235.819C506.707 235.314 506.693 234.621 506.291 234.13C506.039 233.821 505.675 233.632 505.265 233.592C504.852 233.556 504.457 233.672 504.145 233.928L498.483 238.549H468.466L462.804 233.928C462.492 233.672 462.097 233.556 461.684 233.592C461.274 233.632 460.91 233.821 460.658 234.13C460.256 234.621 460.242 235.314 460.623 235.819L469.24 247.188Z" fill="#393939"/>
<path d="M484.271 256.505H482.521V342.602H484.271V256.505Z" fill="#393939"/>
<path d="M495.298 343.09L486.686 340.184C485.534 339.796 484.32 339.597 483.095 339.597H480.194C478.969 339.597 477.754 339.796 476.603 340.184L467.99 343.09C467.444 343.273 467.08 343.764 467.08 344.311C467.08 345.028 467.693 345.608 468.449 345.608H494.836C495.592 345.608 496.205 345.028 496.205 344.311C496.208 343.764 495.844 343.273 495.298 343.09Z" fill="#C8C8C8"/>
<path d="M494.84 346.438H468.452C467.217 346.438 466.209 345.482 466.209 344.311C466.209 343.412 466.807 342.609 467.7 342.307L476.313 339.401C477.562 338.979 478.867 338.764 480.197 338.764H483.098C484.425 338.764 485.734 338.976 486.983 339.401L495.596 342.307C496.488 342.609 497.087 343.412 497.087 344.311C497.083 345.482 496.075 346.438 494.84 346.438ZM480.194 340.426C479.067 340.426 477.957 340.608 476.897 340.967L468.284 343.873C468.088 343.939 467.955 344.115 467.955 344.314C467.955 344.573 468.176 344.782 468.449 344.782H494.836C495.109 344.782 495.33 344.573 495.33 344.314C495.33 344.115 495.197 343.939 495.001 343.873L486.388 340.967C485.328 340.608 484.218 340.426 483.091 340.426H480.194Z" fill="#393939"/>
<path d="M468.571 347.141C470.272 347.141 471.651 345.834 471.651 344.221C471.651 342.609 470.272 341.302 468.571 341.302C466.87 341.302 465.491 342.609 465.491 344.221C465.491 345.834 466.87 347.141 468.571 347.141Z" fill="white"/>
<path d="M468.571 347.967C466.391 347.967 464.616 346.285 464.616 344.218C464.616 342.151 466.391 340.469 468.571 340.469C470.751 340.469 472.526 342.151 472.526 344.218C472.526 346.288 470.751 347.967 468.571 347.967ZM468.571 342.131C467.357 342.131 466.366 343.07 466.366 344.221C466.366 345.373 467.357 346.312 468.571 346.312C469.785 346.312 470.776 345.376 470.776 344.221C470.776 343.067 469.785 342.131 468.571 342.131Z" fill="#393939"/>
<path d="M495.375 347.141C497.076 347.141 498.455 345.834 498.455 344.221C498.455 342.609 497.076 341.302 495.375 341.302C493.674 341.302 492.296 342.609 492.296 344.221C492.296 345.834 493.674 347.141 495.375 347.141Z" fill="white"/>
<path d="M495.375 347.967C493.195 347.967 491.421 346.285 491.421 344.218C491.421 342.151 493.195 340.469 495.375 340.469C497.556 340.469 499.33 342.151 499.33 344.218C499.326 346.288 497.552 347.967 495.375 347.967ZM495.375 342.131C494.161 342.131 493.17 343.07 493.17 344.221C493.17 345.373 494.161 346.312 495.375 346.312C496.59 346.312 497.58 345.376 497.58 344.221C497.58 343.067 496.59 342.131 495.375 342.131Z" fill="#393939"/>
<path d="M493.793 353.189H470.153V375.6H493.793V353.189Z" fill="#B7D3F7"/>
<path d="M494.668 376.433H469.278V352.363H494.668V376.433ZM471.028 374.774H492.918V354.022H471.028V374.774Z" fill="#393939"/>
<path d="M156.693 353.508H133.053V375.919H156.693V353.508Z" fill="white"/>
<path d="M157.568 376.752H132.178V352.682H157.568V376.752ZM133.928 375.093H155.818V354.341H133.928V375.093Z" fill="#393939"/>
<path d="M208.999 353.508H185.359V375.919H208.999V353.508Z" fill="white"/>
<path d="M209.878 376.752H184.488V352.682H209.878V376.752ZM186.234 375.093H208.124V354.341H186.234V375.093Z" fill="#393939"/>
<path d="M393.66 353.508H370.02V375.919H393.66V353.508Z" fill="#B7D3F7"/>
<path d="M394.539 376.752H369.149V352.682H394.539V376.752ZM370.895 375.093H392.786V354.341H370.895V375.093Z" fill="#393939"/>
<path d="M443.444 353.508H419.803V375.919H443.444V353.508Z" fill="#B7D3F7"/>
<path d="M444.319 376.752H418.928V352.682H444.319V376.752ZM420.678 375.093H442.569V354.341H420.678V375.093Z" fill="#393939"/>
<path d="M229.175 410.227H67.0452C56.8261 410.227 48.5143 402.348 48.5143 392.66C48.5143 382.972 56.8261 375.093 67.0452 375.093H229.175V410.227ZM67.0452 376.752C57.792 376.752 50.2642 383.888 50.2642 392.66C50.2642 401.432 57.792 408.568 67.0452 408.568H227.425V376.752H67.0452Z" fill="#393939"/>
<path d="M67.1327 378.908C59.1219 378.908 52.6265 385.066 52.6265 392.66C52.6265 400.254 59.1219 406.412 67.1327 406.412H228.3V378.908H67.1327Z" fill="#C8C8C8"/>
<path d="M229.175 407.241H67.1327C58.6529 407.241 51.7515 400.699 51.7515 392.66C51.7515 384.621 58.6529 378.079 67.1327 378.079H229.175V407.241ZM67.1327 379.738C59.6153 379.738 53.5014 385.534 53.5014 392.66C53.5014 399.787 59.6153 405.583 67.1327 405.583H227.425V379.738H67.1327Z" fill="#393939"/>
<path d="M67.1327 403.31C60.9383 403.31 55.8987 398.532 55.8987 392.66C55.8987 386.788 60.9383 382.01 67.1327 382.01C73.3272 382.01 78.3667 386.788 78.3667 392.66C78.3667 398.532 73.3272 403.31 67.1327 403.31ZM67.1327 383.669C61.9042 383.669 57.6486 387.703 57.6486 392.66C57.6486 397.617 61.9042 401.651 67.1327 401.651C72.3613 401.651 76.6169 397.617 76.6169 392.66C76.6169 387.703 72.3613 383.669 67.1327 383.669Z" fill="#393939"/>
<path d="M67.1328 395.984C65.201 395.984 63.6261 394.495 63.6261 392.66C63.6261 390.825 65.1975 389.336 67.1328 389.336C69.0681 389.336 70.6394 390.825 70.6394 392.66C70.6394 394.495 69.0646 395.984 67.1328 395.984ZM67.1328 390.995C66.1634 390.995 65.3759 391.741 65.3759 392.66C65.3759 393.579 66.1634 394.326 67.1328 394.326C68.1022 394.326 68.8896 393.579 68.8896 392.66C68.8896 391.741 68.1022 390.995 67.1328 390.995Z" fill="#393939"/>
<path d="M120.244 395.984C118.312 395.984 116.737 394.495 116.737 392.66C116.737 390.825 118.309 389.336 120.244 389.336C122.176 389.336 123.751 390.825 123.751 392.66C123.751 394.495 122.176 395.984 120.244 395.984ZM120.244 390.995C119.275 390.995 118.487 391.741 118.487 392.66C118.487 393.579 119.275 394.326 120.244 394.326C121.213 394.326 122.001 393.579 122.001 392.66C122.001 391.741 121.213 390.995 120.244 390.995Z" fill="#393939"/>
<path d="M173.355 395.984C171.423 395.984 169.849 394.495 169.849 392.66C169.849 390.825 171.42 389.336 173.355 389.336C175.287 389.336 176.862 390.825 176.862 392.66C176.862 394.495 175.287 395.984 173.355 395.984ZM173.355 390.995C172.386 390.995 171.598 391.741 171.598 392.66C171.598 393.579 172.386 394.326 173.355 394.326C174.325 394.326 175.112 393.579 175.112 392.66C175.112 391.741 174.325 390.995 173.355 390.995Z" fill="#393939"/>
<path d="M226.466 395.984C224.535 395.984 222.96 394.495 222.96 392.66C222.96 390.825 224.531 389.336 226.466 389.336C228.398 389.336 229.973 390.825 229.973 392.66C229.973 394.495 228.398 395.984 226.466 395.984ZM226.466 390.995C225.497 390.995 224.71 391.741 224.71 392.66C224.71 393.579 225.497 394.326 226.466 394.326C227.436 394.326 228.223 393.579 228.223 392.66C228.223 391.741 227.436 390.995 226.466 390.995Z" fill="#393939"/>
<path d="M120.244 403.31C114.05 403.31 109.01 398.532 109.01 392.66C109.01 386.788 114.05 382.01 120.244 382.01C126.438 382.01 131.478 386.788 131.478 392.66C131.478 398.532 126.438 403.31 120.244 403.31ZM120.244 383.669C115.015 383.669 110.76 387.703 110.76 392.66C110.76 397.617 115.015 401.651 120.244 401.651C125.472 401.651 129.728 397.617 129.728 392.66C129.728 387.703 125.472 383.669 120.244 383.669Z" fill="#393939"/>
<path d="M173.355 403.31C167.161 403.31 162.121 398.532 162.121 392.66C162.121 386.788 167.161 382.01 173.355 382.01C179.55 382.01 184.589 386.788 184.589 392.66C184.589 398.532 179.55 403.31 173.355 403.31ZM173.355 383.669C168.127 383.669 163.871 387.703 163.871 392.66C163.871 397.617 168.127 401.651 173.355 401.651C178.584 401.651 182.84 397.617 182.84 392.66C182.84 387.703 178.584 383.669 173.355 383.669Z" fill="#393939"/>
<path d="M226.466 403.31C220.272 403.31 215.232 398.532 215.232 392.66C215.232 386.788 220.272 382.01 226.466 382.01C232.661 382.01 237.7 386.788 237.7 392.66C237.7 398.532 232.661 403.31 226.466 403.31ZM226.466 383.669C221.238 383.669 216.982 387.703 216.982 392.66C216.982 397.617 221.238 401.651 226.466 401.651C231.695 401.651 235.951 397.617 235.951 392.66C235.951 387.703 231.695 383.669 226.466 383.669Z" fill="#393939"/>
<path d="M338.95 328.35H226.603V434.855H338.95V328.35Z" fill="white"/>
<path d="M339.825 435.684H225.728V327.52H339.825V435.684ZM227.478 434.025H338.075V329.179H227.478V434.025Z" fill="#393939"/>
<path d="M69.7994 409.398H68.0496V434.855H69.7994V409.398Z" fill="#393939"/>
<path d="M112.552 409.398H110.802V434.855H112.552V409.398Z" fill="#393939"/>
<path d="M155.304 409.398H153.554V434.855H155.304V409.398Z" fill="#393939"/>
<path d="M198.056 409.398H196.306V434.855H198.056V409.398Z" fill="#393939"/>
<path d="M73.3342 409.398H64.501V411.723H73.3342V409.398Z" fill="#393939"/>
<path d="M74.2092 412.553H63.6261V408.568H74.2092V412.553ZM65.3759 410.894H72.4593V410.227H65.3759V410.894Z" fill="#393939"/>
<path d="M73.3342 432.529H64.501V434.855H73.3342V432.529Z" fill="#393939"/>
<path d="M74.2092 435.684H63.6261V431.7H74.2092V435.684ZM65.3759 434.025H72.4593V433.358H65.3759V434.025Z" fill="#393939"/>
<path d="M116.093 409.398H107.26V411.723H116.093V409.398Z" fill="#393939"/>
<path d="M116.968 412.553H106.385V408.568H116.968V412.553ZM108.135 410.894H115.218V410.227H108.135V410.894Z" fill="#393939"/>
<path d="M116.093 432.529H107.26V434.855H116.093V432.529Z" fill="#393939"/>
<path d="M116.968 435.684H106.385V431.7H116.968V435.684ZM108.135 434.025H115.218V433.358H108.135V434.025Z" fill="#393939"/>
<path d="M158.853 409.398H150.019V411.723H158.853V409.398Z" fill="#393939"/>
<path d="M159.727 412.553H149.144V408.568H159.727V412.553ZM150.894 410.894H157.978V410.227H150.894V410.894Z" fill="#393939"/>
<path d="M158.853 432.529H150.019V434.855H158.853V432.529Z" fill="#393939"/>
<path d="M159.727 435.684H149.144V431.7H159.727V435.684ZM150.894 434.025H157.978V433.358H150.894V434.025Z" fill="#393939"/>
<path d="M201.612 409.398H192.778V411.723H201.612V409.398Z" fill="#393939"/>
<path d="M202.487 412.553H191.903V408.568H202.487V412.553ZM193.653 410.894H200.737V410.227H193.653V410.894Z" fill="#393939"/>
<path d="M201.612 432.529H192.778V434.855H201.612V432.529Z" fill="#393939"/>
<path d="M202.487 435.684H191.903V431.7H202.487V435.684ZM193.653 434.025H200.737V433.358H193.653V434.025Z" fill="#393939"/>
<path d="M321.437 351.497C325.164 351.497 328.185 348.633 328.185 345.101C328.185 341.568 325.164 338.704 321.437 338.704C317.711 338.704 314.69 341.568 314.69 345.101C314.69 348.633 317.711 351.497 321.437 351.497Z" fill="white"/>
<path d="M321.437 352.327C317.234 352.327 313.815 349.085 313.815 345.101C313.815 341.116 317.234 337.875 321.437 337.875C325.641 337.875 329.06 341.116 329.06 345.101C329.06 349.085 325.641 352.327 321.437 352.327ZM321.437 339.53C318.2 339.53 315.565 342.028 315.565 345.097C315.565 348.166 318.2 350.664 321.437 350.664C324.675 350.664 327.31 348.166 327.31 345.097C327.31 342.028 324.675 339.53 321.437 339.53Z" fill="#393939"/>
<path d="M322.312 345.101H320.563V349.51H322.312V345.101Z" fill="#393939"/>
<path d="M303.208 351.497C306.934 351.497 309.955 348.633 309.955 345.101C309.955 341.568 306.934 338.704 303.208 338.704C299.481 338.704 296.46 341.568 296.46 345.101C296.46 348.633 299.481 351.497 303.208 351.497Z" fill="white"/>
<path d="M303.208 352.327C299.005 352.327 295.585 349.085 295.585 345.101C295.585 341.116 299.005 337.875 303.208 337.875C307.411 337.875 310.83 341.116 310.83 345.101C310.83 349.085 307.411 352.327 303.208 352.327ZM303.208 339.53C299.97 339.53 297.335 342.028 297.335 345.097C297.335 348.166 299.97 350.664 303.208 350.664C306.445 350.664 309.08 348.166 309.08 345.097C309.08 342.028 306.445 339.53 303.208 339.53Z" fill="#393939"/>
<path d="M305.907 341.364L302.584 344.515L303.821 345.688L307.145 342.537L305.907 341.364Z" fill="#393939"/>
<path d="M303.208 368.315C306.934 368.315 309.955 365.451 309.955 361.918C309.955 358.385 306.934 355.521 303.208 355.521C299.481 355.521 296.46 358.385 296.46 361.918C296.46 365.451 299.481 368.315 303.208 368.315Z" fill="white"/>
<path d="M303.208 369.144C299.005 369.144 295.585 365.903 295.585 361.918C295.585 357.934 299.005 354.692 303.208 354.692C307.411 354.692 310.83 357.934 310.83 361.918C310.83 365.903 307.411 369.144 303.208 369.144ZM303.208 356.351C299.97 356.351 297.335 358.849 297.335 361.918C297.335 364.987 299.97 367.485 303.208 367.485C306.445 367.485 309.08 364.987 309.08 361.918C309.08 358.849 306.445 356.351 303.208 356.351Z" fill="#393939"/>
<path d="M300.933 358.207L299.618 359.301L302.536 362.453L303.851 361.359L300.933 358.207Z" fill="#393939"/>
<path d="M321.437 368.315C325.164 368.315 328.185 365.451 328.185 361.918C328.185 358.385 325.164 355.521 321.437 355.521C317.711 355.521 314.69 358.385 314.69 361.918C314.69 365.451 317.711 368.315 321.437 368.315Z" fill="white"/>
<path d="M321.437 369.144C317.234 369.144 313.815 365.903 313.815 361.918C313.815 357.934 317.234 354.692 321.437 354.692C325.641 354.692 329.06 357.934 329.06 361.918C329.06 365.903 325.641 369.144 321.437 369.144ZM321.437 356.351C318.2 356.351 315.565 358.849 315.565 361.918C315.565 364.987 318.2 367.485 321.437 367.485C324.675 367.485 327.31 364.987 327.31 361.918C327.31 358.849 324.675 356.351 321.437 356.351Z" fill="#393939"/>
<path d="M322.312 357.598H320.563V361.918H322.312V357.598Z" fill="#393939"/>
<path d="M271.714 406.412H236.605V434.855H271.714V406.412Z" fill="#C8C8C8"/>
<path d="M272.589 435.684H235.73V405.583H272.589V435.684ZM237.48 434.025H270.839V407.241H237.48V434.025Z" fill="#393939"/>
<path d="M260.798 417.453H247.524C244.563 417.453 242.152 415.171 242.152 412.361H243.902C243.902 414.255 245.526 415.794 247.524 415.794H260.798C262.793 415.794 264.421 414.255 264.421 412.361H266.171C266.167 415.167 263.759 417.453 260.798 417.453Z" fill="#393939"/>
<path d="M260.798 423.594H247.524C244.563 423.594 242.152 421.312 242.152 418.502H243.902C243.902 420.396 245.526 421.936 247.524 421.936H260.798C262.793 421.936 264.421 420.396 264.421 418.502H266.171C266.167 421.308 263.759 423.594 260.798 423.594Z" fill="#393939"/>
<path d="M260.798 429.732H247.524C244.563 429.732 242.152 427.45 242.152 424.639H243.902C243.902 426.534 245.526 428.073 247.524 428.073H260.798C262.793 428.073 264.421 426.534 264.421 424.639H266.171C266.167 427.45 263.759 429.732 260.798 429.732Z" fill="#393939"/>
<path d="M315.82 143.882H250.121V218.099H315.82V143.882Z" fill="#B7D3F7"/>
<path d="M316.695 218.925H249.246V143.049H316.695V218.925ZM250.996 217.266H314.946V144.708H250.996V217.266Z" fill="#393939"/>
<path d="M292.163 162.978H273.166V180.987H292.163V162.978Z" fill="#393939"/>
<path d="M293.038 181.82H272.291V162.149H293.038V181.82ZM274.041 180.161H291.288V163.808H274.041V180.161Z" fill="#393939"/>
<path d="M290.29 164.305H275.266V171.631H290.29V164.305Z" fill="white"/>
<path d="M291.165 172.46H274.391V163.476H291.165V172.46ZM276.141 170.801H289.415V165.135H276.141V170.801Z" fill="#393939"/>
<path d="M59.6014 88.3697C59.5594 87.9583 59.5349 87.5402 59.5349 87.1255H61.2847C61.2847 87.4838 61.3022 87.8454 61.3407 88.2038L59.6014 88.3697Z" fill="#393939"/>
<path d="M259.735 140.431C259.696 139.715 259.584 139.001 259.395 138.308L261.089 137.896C261.306 138.696 261.439 139.522 261.481 140.348L259.735 140.431ZM258.615 136.291C258.286 135.647 257.883 135.033 257.425 134.463L258.814 133.454C259.346 134.111 259.808 134.821 260.186 135.564L258.615 136.291ZM255.874 132.897C255.304 132.426 254.684 132.007 254.027 131.652L254.891 130.209C255.65 130.617 256.368 131.102 257.026 131.646L255.874 132.897ZM251.955 130.787C251.475 130.637 250.975 130.518 250.474 130.432L249.687 130.296L250.002 128.663L250.789 128.799C251.367 128.899 251.941 129.038 252.497 129.207L251.955 130.787ZM247.283 129.881L244.875 129.466L245.19 127.834L247.598 128.249L247.283 129.881ZM242.471 129.048L240.063 128.633L240.378 127.001L242.786 127.416L242.471 129.048ZM237.655 128.219L235.247 127.804L235.562 126.172L237.97 126.586L237.655 128.219ZM232.843 127.386L230.435 126.971L230.75 125.339L233.158 125.754L232.843 127.386ZM228.031 126.556L225.623 126.142L225.938 124.509L228.346 124.924L228.031 126.556ZM223.219 125.724L220.811 125.309L221.126 123.677L223.534 124.091L223.219 125.724ZM218.407 124.894L215.999 124.48L216.314 122.847L218.722 123.262L218.407 124.894ZM213.595 124.062L211.187 123.647L211.502 122.015L213.91 122.429L213.595 124.062ZM208.783 123.229L206.375 122.814L206.69 121.182L209.098 121.597L208.783 123.229ZM203.97 122.399L201.563 121.985L201.878 120.352L204.285 120.767L203.97 122.399ZM199.158 121.567L196.751 121.152L197.066 119.52L199.473 119.934L199.158 121.567ZM194.346 120.737L191.939 120.323L192.254 118.69L194.661 119.105L194.346 120.737ZM189.534 119.904L187.126 119.49L187.441 117.857L189.849 118.272L189.534 119.904ZM184.722 119.075L182.314 118.66L182.629 117.028L185.037 117.443L184.722 119.075ZM179.91 118.242L177.502 117.828L177.817 116.195L180.225 116.61L179.91 118.242ZM175.098 117.41L172.69 116.995L173.005 115.363L175.413 115.777L175.098 117.41ZM170.286 116.58L167.878 116.165L168.193 114.533L170.601 114.948L170.286 116.58ZM165.474 115.747L163.066 115.333L163.381 113.7L165.789 114.115L165.474 115.747ZM160.662 114.918L158.254 114.503L158.569 112.871L160.977 113.286L160.662 114.918ZM155.85 114.085L153.442 113.671L153.757 112.038L156.165 112.453L155.85 114.085ZM151.038 113.256L148.63 112.841L148.945 111.209L151.353 111.623L151.038 113.256ZM146.226 112.423L143.818 112.008L144.133 110.376L146.541 110.791L146.226 112.423ZM141.414 111.59L139.006 111.176L139.321 109.543L141.729 109.958L141.414 111.59ZM136.601 110.761L134.194 110.346L134.509 108.714L136.916 109.129L136.601 110.761ZM131.789 109.928L129.382 109.513L129.697 107.881L132.104 108.296L131.789 109.928ZM126.977 109.099L124.57 108.684L124.885 107.052L127.292 107.466L126.977 109.099ZM122.165 108.266L119.757 107.851L120.072 106.219L122.48 106.634L122.165 108.266ZM117.353 107.437L114.945 107.022L115.26 105.39L117.668 105.804L117.353 107.437ZM112.541 106.604L110.133 106.189L110.448 104.557L112.856 104.971L112.541 106.604ZM107.729 105.771L105.321 105.356L105.636 103.724L108.044 104.139L107.729 105.771ZM102.917 104.942L100.509 104.527L100.824 102.895L103.232 103.309L102.917 104.942ZM98.1049 104.109L95.6971 103.694L96.0121 102.062L98.4199 102.477L98.1049 104.109ZM93.2928 103.279L90.885 102.865L91.2 101.232L93.6078 101.647L93.2928 103.279ZM88.4808 102.447L86.073 102.032L86.388 100.4L88.7957 100.814L88.4808 102.447ZM83.6687 101.617L81.2609 101.203L81.5759 99.5702L83.9837 99.9849L83.6687 101.617ZM78.8566 100.785L76.4488 100.37L76.7638 98.7375L79.1716 99.1522L78.8566 100.785ZM74.0446 99.9518L71.6368 99.5371L71.9517 97.9047L74.3595 98.3195L74.0446 99.9518ZM69.1695 99.0659C68.3261 98.8503 67.5036 98.5517 66.7232 98.1801L67.5071 96.6971C68.1826 97.0189 68.893 97.2777 69.6244 97.4635L69.1695 99.0659ZM64.5149 96.8497C63.829 96.3388 63.1955 95.7582 62.6321 95.1278L63.9655 94.0562C64.4554 94.6036 65.0049 95.1046 65.5963 95.5492L64.5149 96.8497ZM61.1482 93.0841C60.7282 92.3575 60.3818 91.5911 60.1228 90.8015L61.7921 90.3072C62.0161 90.9906 62.3136 91.6542 62.6811 92.2845L61.1482 93.0841Z" fill="#393939"/>
<path d="M261.498 142.72H259.748V143.882H261.498V142.72Z" fill="#393939"/>
<path d="M171.059 87.1255H169.31V88.2867H171.059V87.1255Z" fill="#393939"/>
<path d="M272.291 140.388H270.542V138.072H272.291V140.388ZM272.291 135.76H270.542V133.444H272.291V135.76ZM272.291 131.132H270.542V129.818C270.542 129.509 270.528 129.197 270.5 128.892L272.242 128.749C272.274 129.101 272.291 129.463 272.291 129.818V131.132V131.132ZM270.08 126.782C269.866 126.099 269.579 125.432 269.226 124.798L270.772 124.022C271.182 124.752 271.514 125.525 271.759 126.314L270.08 126.782ZM267.973 123.013C267.493 122.459 266.954 121.951 266.37 121.5L267.476 120.213C268.151 120.734 268.774 121.321 269.327 121.958L267.973 123.013ZM264.477 120.322C263.808 119.991 263.105 119.722 262.377 119.526L262.86 117.934C263.7 118.163 264.515 118.475 265.285 118.856L264.477 120.322ZM260.067 119.055L257.67 118.614L258.002 116.985L260.399 117.426L260.067 119.055ZM255.276 118.173L252.879 117.731L253.215 116.102L255.612 116.544L255.276 118.173ZM250.481 117.29L248.084 116.849L248.417 115.22L250.814 115.661L250.481 117.29ZM245.69 116.404L243.293 115.963L243.625 114.334L246.023 114.775L245.69 116.404ZM240.896 115.522L238.498 115.081L238.831 113.452L241.228 113.893L240.896 115.522ZM236.101 114.639L233.704 114.198L234.036 112.569L236.434 113.01L236.101 114.639ZM231.31 113.753L228.913 113.312L229.245 111.683L231.643 112.124L231.31 113.753ZM226.515 112.871L224.118 112.43L224.451 110.801L226.848 111.242L226.515 112.871ZM221.721 111.988L219.324 111.547L219.656 109.918L222.053 110.359L221.721 111.988ZM216.93 111.103L214.533 110.661L214.865 109.032L217.262 109.474L216.93 111.103ZM212.135 110.22L209.738 109.779L210.074 108.15L212.471 108.591L212.135 110.22ZM207.344 109.338L204.947 108.896L205.279 107.267L207.677 107.709L207.344 109.338ZM202.55 108.452L200.152 108.01L200.488 106.381L202.886 106.823L202.55 108.452ZM197.755 107.569L195.358 107.128L195.69 105.499L198.087 105.94L197.755 107.569ZM192.964 106.687L190.567 106.245L190.899 104.616L193.296 105.058L192.964 106.687ZM188.169 105.801L185.772 105.36L186.105 103.731L188.502 104.172L188.169 105.801ZM183.378 104.918L180.981 104.477L181.313 102.848L183.711 103.289L183.378 104.918ZM178.51 103.95C177.677 103.707 176.869 103.382 176.102 102.987L176.942 101.531C177.604 101.873 178.304 102.155 179.025 102.364L178.51 103.95ZM173.947 101.587C173.282 101.057 172.669 100.456 172.13 99.8091L173.502 98.7773C173.971 99.338 174.5 99.8555 175.077 100.317L173.947 101.587ZM170.72 97.7256C170.324 96.989 170.006 96.2127 169.775 95.4164L171.462 94.9752C171.661 95.6653 171.938 96.3355 172.277 96.9758L170.72 97.7256ZM169.341 92.9713C169.32 92.6926 169.31 92.4073 169.31 92.1286V90.6024H171.059V92.1286C171.059 92.3741 171.066 92.6196 171.084 92.8618L169.341 92.9713Z" fill="#393939"/>
<path d="M272.291 142.72H270.542V143.882H272.291V142.72Z" fill="#393939"/>
<path d="M506.606 88.3696L504.867 88.2038C504.905 87.8454 504.923 87.4838 504.923 87.1255H506.673C506.669 87.5402 506.648 87.9582 506.606 88.3696Z" fill="#393939"/>
<path d="M306.469 140.431L304.723 140.348C304.765 139.522 304.898 138.696 305.115 137.896L306.809 138.308C306.623 138.998 306.508 139.715 306.469 140.431ZM307.589 136.291L306.014 135.564C306.396 134.821 306.858 134.111 307.386 133.454L308.776 134.463C308.321 135.033 307.922 135.647 307.589 136.291ZM310.329 132.897L309.178 131.646C309.836 131.102 310.553 130.617 311.313 130.209L312.177 131.652C311.523 132.007 310.9 132.426 310.329 132.897ZM314.253 130.787L313.71 129.211C314.267 129.038 314.841 128.902 315.418 128.803L316.205 128.667L316.52 130.299L315.733 130.435C315.229 130.518 314.732 130.637 314.253 130.787ZM318.925 129.881L318.61 128.249L321.017 127.834L321.332 129.466L318.925 129.881ZM323.737 129.048L323.422 127.416L325.83 127.001L326.145 128.633L323.737 129.048ZM328.549 128.219L328.234 126.586L330.642 126.172L330.957 127.804L328.549 128.219ZM333.361 127.386L333.046 125.754L335.454 125.339L335.769 126.971L333.361 127.386ZM338.173 126.556L337.858 124.924L340.266 124.509L340.581 126.142L338.173 126.556ZM342.985 125.724L342.67 124.091L345.078 123.677L345.393 125.309L342.985 125.724ZM347.797 124.894L347.482 123.262L349.89 122.847L350.205 124.48L347.797 124.894ZM352.609 124.062L352.294 122.429L354.702 122.015L355.017 123.647L352.609 124.062ZM357.421 123.229L357.106 121.597L359.514 121.182L359.829 122.814L357.421 123.229ZM362.233 122.399L361.918 120.767L364.326 120.352L364.641 121.985L362.233 122.399ZM367.045 121.567L366.73 119.934L369.138 119.52L369.453 121.152L367.045 121.567ZM371.857 120.737L371.543 119.105L373.95 118.69L374.265 120.323L371.857 120.737ZM376.67 119.904L376.355 118.272L378.762 117.857L379.077 119.49L376.67 119.904ZM381.482 119.075L381.167 117.443L383.574 117.028L383.889 118.66L381.482 119.075ZM386.294 118.242L385.979 116.61L388.387 116.195L388.701 117.828L386.294 118.242ZM391.106 117.41L390.791 115.777L393.199 115.363L393.514 116.995L391.106 117.41ZM395.918 116.58L395.603 114.948L398.011 114.533L398.326 116.165L395.918 116.58ZM400.73 115.747L400.415 114.115L402.823 113.7L403.138 115.333L400.73 115.747ZM405.542 114.918L405.227 113.286L407.635 112.871L407.95 114.503L405.542 114.918ZM410.354 114.085L410.039 112.453L412.447 112.038L412.762 113.671L410.354 114.085ZM415.166 113.256L414.851 111.623L417.259 111.209L417.574 112.841L415.166 113.256ZM419.978 112.423L419.663 110.791L422.071 110.376L422.386 112.008L419.978 112.423ZM424.79 111.59L424.475 109.958L426.883 109.543L427.198 111.176L424.79 111.59ZM429.602 110.761L429.287 109.129L431.695 108.714L432.01 110.346L429.602 110.761ZM434.414 109.928L434.099 108.296L436.507 107.881L436.822 109.513L434.414 109.928ZM439.23 109.099L438.915 107.466L441.323 107.052L441.638 108.684L439.23 109.099ZM444.042 108.266L443.727 106.634L446.135 106.219L446.45 107.851L444.042 108.266ZM448.854 107.437L448.539 105.804L450.947 105.39L451.262 107.022L448.854 107.437ZM453.666 106.604L453.351 104.971L455.759 104.557L456.074 106.189L453.666 106.604ZM458.478 105.771L458.163 104.139L460.571 103.724L460.886 105.356L458.478 105.771ZM463.29 104.942L462.975 103.309L465.383 102.895L465.698 104.527L463.29 104.942ZM468.102 104.109L467.787 102.477L470.195 102.062L470.51 103.694L468.102 104.109ZM472.915 103.279L472.6 101.647L475.007 101.232L475.322 102.865L472.915 103.279ZM477.727 102.447L477.412 100.814L479.819 100.4L480.134 102.032L477.727 102.447ZM482.539 101.617L482.224 99.9849L484.632 99.5702L484.946 101.203L482.539 101.617ZM487.351 100.785L487.036 99.1522L489.444 98.7375L489.759 100.37L487.351 100.785ZM492.163 99.9518L491.848 98.3195L494.256 97.9047L494.571 99.5371L492.163 99.9518ZM497.038 99.0659L496.583 97.4635C497.311 97.2777 498.025 97.0189 498.7 96.6971L499.484 98.1801C498.704 98.5517 497.878 98.8503 497.038 99.0659ZM501.689 96.8497L500.608 95.5459C501.199 95.1046 501.748 94.6003 502.238 94.0529L503.572 95.1245C503.008 95.7582 502.375 96.3388 501.689 96.8497ZM505.056 93.0841L503.523 92.2845C503.887 91.6575 504.184 90.994 504.412 90.3072L506.081 90.8015C505.822 91.5911 505.479 92.3609 505.056 93.0841Z" fill="#393939"/>
<path d="M306.455 142.72H304.706V143.882H306.455V142.72Z" fill="#393939"/>
<path d="M396.894 87.1255H395.144V88.2867H396.894V87.1255Z" fill="#393939"/>
<path d="M295.666 140.388H293.916V138.072H295.666V140.388ZM295.666 135.76H293.916V133.444H295.666V135.76ZM295.666 131.132H293.916V129.818C293.916 129.463 293.933 129.101 293.965 128.749L295.708 128.892C295.68 129.197 295.666 129.509 295.666 129.818V131.132V131.132ZM296.124 126.782L294.448 126.311C294.693 125.521 295.025 124.748 295.435 124.018L296.982 124.795C296.625 125.432 296.338 126.099 296.124 126.782ZM298.235 123.013L296.884 121.961C297.437 121.324 298.06 120.737 298.735 120.216L299.841 121.504C299.253 121.951 298.714 122.462 298.235 123.013ZM301.727 120.322L300.915 118.853C301.689 118.471 302.504 118.159 303.341 117.93L303.824 119.523C303.103 119.722 302.396 119.991 301.727 120.322ZM306.137 119.055L305.804 117.426L308.202 116.985L308.534 118.614L306.137 119.055ZM310.931 118.173L310.599 116.544L312.996 116.102L313.329 117.731L310.931 118.173ZM315.723 117.29L315.39 115.661L317.787 115.22L318.12 116.849L315.723 117.29ZM320.517 116.404L320.185 114.775L322.582 114.334L322.914 115.963L320.517 116.404ZM325.312 115.522L324.976 113.893L327.373 113.452L327.709 115.081L325.312 115.522ZM330.103 114.639L329.77 113.01L332.168 112.569L332.5 114.198L330.103 114.639ZM334.897 113.753L334.561 112.124L336.959 111.683L337.295 113.312L334.897 113.753ZM339.688 112.871L339.356 111.242L341.753 110.801L342.086 112.43L339.688 112.871ZM344.483 111.988L344.147 110.359L346.544 109.918L346.88 111.547L344.483 111.988ZM349.278 111.103L348.945 109.474L351.342 109.032L351.675 110.661L349.278 111.103ZM354.069 110.22L353.736 108.591L356.133 108.15L356.466 109.779L354.069 110.22ZM358.863 109.338L358.531 107.709L360.928 107.267L361.26 108.896L358.863 109.338ZM363.654 108.452L363.322 106.823L365.719 106.381L366.052 108.01L363.654 108.452ZM368.449 107.569L368.116 105.94L370.514 105.499L370.846 107.128L368.449 107.569ZM373.243 106.687L372.911 105.058L375.308 104.616L375.641 106.245L373.243 106.687ZM378.034 105.801L377.698 104.172L380.096 103.731L380.432 105.36L378.034 105.801ZM382.829 104.918L382.493 103.289L384.89 102.848L385.226 104.477L382.829 104.918ZM387.697 103.95L387.183 102.364C387.904 102.151 388.604 101.873 389.265 101.531L390.105 102.987C389.338 103.382 388.53 103.704 387.697 103.95ZM392.257 101.587L391.13 100.32C391.708 99.8589 392.236 99.3413 392.705 98.7806L394.077 99.8124C393.535 100.456 392.922 101.053 392.257 101.587ZM395.484 97.7256L393.923 96.9725C394.266 96.3355 394.539 95.662 394.738 94.9719L396.425 95.4131C396.198 96.2094 395.879 96.989 395.484 97.7256ZM396.866 92.9713L395.12 92.8618C395.137 92.6163 395.144 92.3708 395.144 92.1286V90.6024H396.894V92.1286C396.894 92.4073 396.884 92.6893 396.866 92.9713Z" fill="#393939"/>
<path d="M295.666 142.72H293.916V143.882H295.666V142.72Z" fill="#393939"/>
<path d="M283.844 87.1255H282.094V88.2867H283.844V87.1255Z" fill="#393939"/>
<path d="M283.844 140.355H282.094V137.986H283.844V140.355ZM283.844 135.62H282.094V133.255H283.844V135.62ZM283.844 130.886H282.094V128.521H283.844V130.886ZM283.844 126.155H282.094V123.789H283.844V126.155ZM283.844 121.421H282.094V119.055H283.844V121.421ZM283.844 116.686H282.094V114.321H283.844V116.686ZM283.844 111.955H282.094V109.59H283.844V111.955ZM283.844 107.221H282.094V104.855H283.844V107.221ZM283.844 102.486H282.094V100.121H283.844V102.486ZM283.844 97.7554H282.094V95.3899H283.844V97.7554ZM283.844 93.021H282.094V90.6555H283.844V93.021Z" fill="#393939"/>
<path d="M283.844 142.72H282.094V143.882H283.844V142.72Z" fill="#393939"/>
<path d="M61.2847 66.6253H59.5349V67.7865H61.2847V66.6253Z" fill="#393939"/>
<path d="M61.2847 64.2267H59.5349V61.828H61.2847V64.2267ZM61.2847 59.426H59.5349V57.0272H61.2847V59.426ZM61.2847 54.6285H59.5349V52.2298H61.2847V54.6285Z" fill="#393939"/>
<path d="M61.2847 48.6666H59.5349V49.8278H61.2847V48.6666Z" fill="#393939"/>
<path d="M171.059 66.6254H169.31V67.7866H171.059V66.6254Z" fill="#393939"/>
<path d="M171.059 64.3428H169.31V62.0602H171.059V64.3428ZM171.059 59.7776H169.31V57.495H171.059V59.7776ZM171.059 55.2125H169.31V52.9299H171.059V55.2125Z" fill="#393939"/>
<path d="M171.059 49.4861H169.31V50.6473H171.059V49.4861Z" fill="#393939"/>
<path d="M283.844 66.6254H282.094V67.7866H283.844V66.6254Z" fill="#393939"/>
<path d="M283.844 64.3428H282.094V62.0602H283.844V64.3428ZM283.844 59.7776H282.094V57.495H283.844V59.7776ZM283.844 55.2125H282.094V52.9299H283.844V55.2125Z" fill="#393939"/>
<path d="M283.844 49.4861H282.094V50.6473H283.844V49.4861Z" fill="#393939"/>
<path d="M396.894 66.6254H395.144V67.7866H396.894V66.6254Z" fill="#393939"/>
<path d="M396.894 64.3428H395.144V62.0602H396.894V64.3428ZM396.894 59.7776H395.144V57.495H396.894V59.7776ZM396.894 55.2125H395.144V52.9299H396.894V55.2125Z" fill="#393939"/>
<path d="M396.894 49.4861H395.144V50.6473H396.894V49.4861Z" fill="#393939"/>
<path d="M506.669 66.6254H504.919V67.7866H506.669V66.6254Z" fill="#393939"/>
<path d="M506.669 64.3428H504.919V62.0602H506.669V64.3428ZM506.669 59.7776H504.919V57.495H506.669V59.7776ZM506.669 55.2125H504.919V52.9299H506.669V55.2125Z" fill="#393939"/>
<path d="M506.669 49.4861H504.919V50.6473H506.669V49.4861Z" fill="#393939"/>
<path d="M283.539 299.379H281.79V297.057H283.539V299.379ZM283.539 294.735H281.79V292.412H283.539V294.735ZM283.539 290.09H281.79V287.767H283.539V290.09ZM283.539 285.445H281.79V283.123H283.539V285.445ZM283.539 280.8H281.79V278.478H283.539V280.8ZM283.539 276.155H281.79V273.833H283.539V276.155ZM283.539 271.511H281.79V269.188H283.539V271.511ZM283.539 266.866H281.79V264.543H283.539V266.866ZM283.539 262.221H281.79V259.899H283.539V262.221ZM283.539 257.576H281.79V255.254H283.539V257.576ZM283.539 252.931H281.79V250.609H283.539V252.931ZM283.539 248.287H281.79V245.964H283.539V248.287ZM283.539 243.642H281.79V241.319H283.539V243.642ZM283.539 238.997H281.79V236.675H283.539V238.997ZM283.539 234.352H281.79V232.03H283.539V234.352ZM283.539 229.707H281.79V227.385H283.539V229.707ZM283.539 225.063H281.79V222.74H283.539V225.063ZM283.539 220.418H281.79V218.095H283.539V220.418Z" fill="#393939"/>
<path d="M419.261 201.958H385.86V162.331H419.261V201.958ZM387.61 200.299H417.511V163.99H387.61V200.299Z" fill="#393939"/>
<path d="M419.261 191.554H385.86V162.331H419.261V191.554ZM387.61 189.895H417.511V163.99H387.61V189.895Z" fill="#393939"/>
<path d="M413.287 181.226H391.834V172.663H413.287V181.226ZM393.584 179.567H411.537V174.322H393.584V179.567Z" fill="#393939"/>
<path d="M776.639 293.65L666.567 358.667L667.492 360.075L777.564 295.058L776.639 293.65Z" fill="#393939"/>
<path d="M680.927 293.64L680.002 295.048L790.074 360.064L790.999 358.656L680.927 293.64Z" fill="#393939"/>
<path d="M762.584 234.105L679.972 292.66L681.02 293.988L763.632 235.434L762.584 234.105Z" fill="#393939"/>
<path d="M695.066 234.141L694.018 235.469L776.641 294.014L777.689 292.685L695.066 234.141Z" fill="#393939"/>
<path d="M751.55 175.879L693.89 234.416L695.169 235.549L752.829 177.011L751.55 175.879Z" fill="#393939"/>
<path d="M706.522 175.898L705.239 177.026L762.498 235.57L763.781 234.443L706.522 175.898Z" fill="#393939"/>
<path d="M808 434H2V436H808V434Z" fill="#393939"/>
<path d="M770.136 176.113H687.498V177.772H770.136V176.113Z" fill="#393939"/>
<path d="M687.498 181.405C690.397 181.405 692.748 179.177 692.748 176.428C692.748 173.68 690.397 171.452 687.498 171.452C684.599 171.452 682.249 173.68 682.249 176.428C682.249 179.177 684.599 181.405 687.498 181.405Z" fill="#393939"/>
<path d="M687.498 182.234C684.121 182.234 681.374 179.63 681.374 176.428C681.374 173.227 684.121 170.622 687.498 170.622C690.875 170.622 693.622 173.227 693.622 176.428C693.622 179.63 690.875 182.234 687.498 182.234ZM687.498 172.281C685.087 172.281 683.123 174.142 683.123 176.428C683.123 178.714 685.087 180.576 687.498 180.576C689.909 180.576 691.873 178.714 691.873 176.428C691.873 174.142 689.909 172.281 687.498 172.281Z" fill="#393939"/>
<path d="M770.136 181.405C773.035 181.405 775.385 179.177 775.385 176.428C775.385 173.68 773.035 171.452 770.136 171.452C767.237 171.452 764.887 173.68 764.887 176.428C764.887 179.177 767.237 181.405 770.136 181.405Z" fill="#393939"/>
<path d="M770.136 182.234C766.759 182.234 764.012 179.63 764.012 176.428C764.012 173.227 766.759 170.622 770.136 170.622C773.513 170.622 776.26 173.227 776.26 176.428C776.26 179.63 773.513 182.234 770.136 182.234ZM770.136 172.281C767.725 172.281 765.761 174.142 765.761 176.428C765.761 178.714 767.725 180.576 770.136 180.576C772.547 180.576 774.511 178.714 774.511 176.428C774.511 174.142 772.547 172.281 770.136 172.281Z" fill="#393939"/>
<path d="M808.062 435.684H649.95L650.16 434.692L705.098 176.107L752.911 176.11L753.051 176.777L808.062 435.684ZM652.084 434.025H805.924L751.479 177.765L706.533 177.762L652.084 434.025Z" fill="#393939"/>
<path d="M624.458 201.643C623.957 201.643 623.454 201.64 622.95 201.63L622.981 199.971C623.793 199.984 624.601 199.987 625.403 199.977L625.424 201.636C625.105 201.64 624.78 201.643 624.458 201.643ZM627.902 201.573L627.828 199.914C628.633 199.881 629.445 199.838 630.246 199.782L630.376 201.437C629.557 201.494 628.724 201.54 627.902 201.573ZM620.475 201.55C619.656 201.51 618.823 201.46 618.005 201.397L618.144 199.745C618.946 199.805 619.758 199.858 620.563 199.894L620.475 201.55ZM632.84 201.232L632.661 199.583C633.459 199.503 634.271 199.413 635.069 199.314L635.3 200.959C634.481 201.059 633.655 201.152 632.84 201.232ZM615.537 201.172C614.722 201.086 613.896 200.986 613.08 200.873L613.329 199.231C614.127 199.34 614.935 199.437 615.733 199.523L615.537 201.172ZM637.746 200.611L637.463 198.975C638.257 198.853 639.059 198.717 639.85 198.571L640.182 200.2C639.377 200.346 638.555 200.485 637.746 200.611ZM610.638 200.505C609.826 200.369 609.007 200.223 608.205 200.064L608.559 198.438C609.343 198.591 610.144 198.737 610.939 198.869L610.638 200.505ZM642.604 199.719L642.222 198.1C643.006 197.934 643.801 197.755 644.581 197.569L645.008 199.178C644.214 199.37 643.405 199.553 642.604 199.719ZM605.787 199.556C604.993 199.377 604.188 199.181 603.386 198.979L603.841 197.376C604.622 197.575 605.413 197.768 606.19 197.94L605.787 199.556ZM647.402 198.574L646.926 196.978C647.699 196.773 648.483 196.55 649.253 196.325L649.771 197.907C648.987 198.139 648.189 198.362 647.402 198.574ZM601.01 198.332C600.226 198.11 599.435 197.867 598.651 197.622L599.204 196.049C599.971 196.291 600.748 196.527 601.514 196.746L601.01 198.332ZM652.126 197.181L651.563 195.611C652.322 195.366 653.096 195.107 653.852 194.842L654.457 196.398C653.684 196.666 652.9 196.932 652.126 197.181ZM596.313 196.849C595.55 196.583 594.77 196.301 594.004 196.013L594.651 194.47C595.403 194.755 596.166 195.031 596.919 195.289L596.313 196.849ZM656.764 195.558L656.116 194.019C656.865 193.737 657.621 193.442 658.363 193.14L659.049 194.666C658.296 194.968 657.527 195.27 656.764 195.558ZM591.718 195.117C590.969 194.812 590.206 194.49 589.461 194.165L590.192 192.659C590.927 192.98 591.673 193.296 592.408 193.594L591.718 195.117ZM661.313 193.717L660.585 192.207C661.317 191.889 662.059 191.56 662.783 191.225L663.546 192.718C662.811 193.06 662.059 193.395 661.313 193.717ZM587.228 193.156C586.497 192.814 585.755 192.456 585.027 192.095L585.839 190.625C586.556 190.983 587.284 191.331 588.002 191.667L587.228 193.156ZM665.758 191.67L664.956 190.197C665.674 189.845 666.398 189.484 667.105 189.119L667.942 190.575C667.221 190.947 666.489 191.315 665.758 191.67ZM582.85 190.98C582.14 190.605 581.419 190.213 580.705 189.819L581.59 188.389C582.29 188.777 582.997 189.162 583.697 189.533L582.85 190.98ZM670.097 189.43L669.226 187.994C669.922 187.616 670.626 187.221 671.319 186.823L672.225 188.243C671.522 188.644 670.808 189.046 670.097 189.43ZM578.594 188.608C577.902 188.203 577.202 187.778 576.509 187.354L577.464 185.963C578.143 186.385 578.836 186.799 579.515 187.198L578.594 188.608ZM674.328 187.002L673.387 185.602C674.073 185.187 674.759 184.766 675.424 184.341L676.397 185.721C675.721 186.153 675.025 186.584 674.328 187.002ZM574.458 186.056C573.786 185.622 573.107 185.17 572.435 184.716L573.45 183.366C574.111 183.814 574.783 184.258 575.445 184.686L574.458 186.056ZM678.437 184.394L677.429 183.037C678.094 182.593 678.759 182.141 679.403 181.69L680.442 183.024C679.792 183.485 679.116 183.943 678.437 184.394ZM570.44 183.339C569.786 182.878 569.128 182.4 568.477 181.922L569.551 180.612C570.192 181.083 570.843 181.554 571.487 182.009L570.44 183.339ZM682.42 181.607L681.345 180.297C681.993 179.819 682.633 179.335 683.246 178.86L684.355 180.144C683.732 180.629 683.081 181.123 682.42 181.607ZM566.545 180.469C565.912 179.985 565.278 179.491 564.641 178.983L565.765 177.712C566.391 178.21 567.018 178.701 567.644 179.179L566.545 180.469ZM686.252 178.625L685.101 177.374C686.255 176.418 686.875 175.841 686.882 175.834L688.11 177.016C688.086 177.042 687.452 177.633 686.252 178.625Z" fill="#393939"/>
<path d="M541.561 177.258H539.111V175.599H541.561V177.258ZM536.661 177.258H534.212V175.599H536.661V177.258ZM531.762 177.258H529.312V175.599H531.762V177.258ZM526.862 177.258H524.412V175.599H526.862V177.258ZM521.963 177.258H519.513V175.599H521.963V177.258ZM517.063 177.258H514.613V175.599H517.063V177.258ZM512.163 177.258H509.714V175.599H512.163V177.258ZM507.264 177.258H504.814V175.599H507.264V177.258ZM502.364 177.258H499.915V175.599H502.364V177.258ZM497.465 177.258H495.015V175.599H497.465V177.258ZM492.565 177.258H490.115V175.599H492.565V177.258ZM487.666 177.258H485.216V175.599H487.666V177.258ZM482.766 177.258H480.316V175.599H482.766V177.258ZM477.867 177.258H475.417V175.599H477.867V177.258ZM472.967 177.258H470.517V175.599H472.967V177.258ZM468.067 177.258H465.618V175.599H468.067V177.258ZM463.168 177.258H460.718V175.599H463.168V177.258ZM458.268 177.258H455.819V175.599H458.268V177.258ZM453.369 177.258H450.919V175.599H453.369V177.258ZM448.469 177.258H446.019V175.599H448.469V177.258ZM443.57 177.258H441.12V175.599H443.57V177.258ZM438.67 177.258H436.22V175.599H438.67V177.258ZM433.771 177.258H431.321V175.599H433.771V177.258ZM428.871 177.258H426.421V175.599H428.871V177.258ZM423.971 177.258H421.522V175.599H423.971V177.258ZM419.072 177.258H418.386V175.599H419.072V177.258Z" fill="#393939"/>
<path d="M383.207 229.95H382.147V228.291H383.207C383.648 228.291 384.096 228.277 384.533 228.248L384.656 229.903C384.176 229.933 383.69 229.95 383.207 229.95ZM379.693 229.95H377.244V228.291H379.693V229.95ZM374.794 229.95H372.344V228.291H374.794V229.95ZM369.894 229.95H367.444V228.291H369.894V229.95ZM364.995 229.95H362.545V228.291H364.995V229.95ZM360.095 229.95H357.645V228.291H360.095V229.95ZM355.196 229.95H352.746V228.291H355.196V229.95ZM350.296 229.95H347.846V228.291H350.296V229.95ZM345.396 229.95H342.947V228.291H345.396V229.95ZM340.497 229.95H338.047V228.291H340.497V229.95ZM335.597 229.95H333.147V228.291H335.597V229.95ZM330.698 229.95H328.248V228.291H330.698V229.95ZM325.798 229.95H323.348V228.291H325.798V229.95ZM320.899 229.95H318.449V228.291H320.899V229.95ZM315.999 229.95H313.549V228.291H315.999V229.95ZM311.099 229.95H308.65V228.291H311.099V229.95ZM306.2 229.95H303.75V228.291H306.2V229.95ZM301.3 229.95H298.85V228.291H301.3V229.95ZM296.401 229.95H293.951V228.291H296.401V229.95ZM291.501 229.95H289.051V228.291H291.501V229.95ZM286.602 229.95H284.152V228.291H286.602V229.95ZM387.19 229.575L386.847 227.949C387.61 227.803 388.369 227.614 389.104 227.378L389.66 228.951C388.856 229.206 388.023 229.419 387.19 229.575ZM392.03 228.032L391.267 226.539C391.967 226.217 392.649 225.849 393.3 225.447L394.256 226.838C393.545 227.279 392.796 227.68 392.03 228.032ZM396.303 225.388L395.169 224.124C395.76 223.646 396.327 223.128 396.852 222.584L398.144 223.702C397.57 224.299 396.95 224.863 396.303 225.388ZM399.747 221.814L398.315 220.859C398.763 220.255 399.176 219.621 399.54 218.971L401.087 219.748C400.688 220.458 400.237 221.154 399.747 221.814ZM402.14 217.535L400.503 216.951C400.776 216.261 401.006 215.547 401.185 214.831L402.889 215.212C402.693 215.999 402.441 216.778 402.14 217.535ZM403.32 212.824L401.58 212.648C401.65 212.027 401.685 211.397 401.685 210.773V210.418H403.435V210.773C403.435 211.457 403.397 212.147 403.32 212.824ZM403.435 208.096H401.685V205.773H403.435V208.096ZM403.435 203.451H401.685V201.129H403.435V203.451Z" fill="#393939"/>
<path d="M729.69 131.779H727.94V176.943H729.69V131.779Z" fill="#393939"/>
<circle cx="375.898" cy="18.5" r="18.5" fill="#FFD100"/>
<path d="M374.533 16.9133L372.357 18.4813V15.0413L375.173 12.9773H378.325V24.1613H374.533V16.9133Z" fill="#393939"/>
<circle cx="216.898" cy="183.5" r="18.5" fill="#FFD100"/>
<path d="M212.037 187.241L213.381 186.041C213.744 185.7 214.138 185.364 214.565 185.033C215.354 184.361 215.92 183.839 216.261 183.465C216.613 183.081 216.789 182.708 216.789 182.345C216.789 182.047 216.672 181.801 216.437 181.609C216.202 181.417 215.834 181.321 215.333 181.321C214.842 181.321 214.33 181.423 213.797 181.625C213.264 181.828 212.784 182.095 212.357 182.425V178.841C212.848 178.5 213.45 178.233 214.165 178.041C214.88 177.839 215.621 177.737 216.389 177.737C217.274 177.737 218.037 177.892 218.677 178.201C219.317 178.511 219.808 178.932 220.149 179.465C220.49 179.999 220.661 180.591 220.661 181.241C220.661 182.159 220.496 182.927 220.165 183.545C219.834 184.164 219.301 184.799 218.565 185.449L217.605 186.297H220.965V189.161H212.037V187.241Z" fill="#393939"/>
<circle cx="444.898" cy="201.5" r="18.5" fill="#FFD100"/>
<path d="M443.869 207.401C443.123 207.401 442.408 207.337 441.725 207.209C441.053 207.081 440.483 206.889 440.013 206.633V203.801C441.133 204.324 442.232 204.585 443.309 204.585C444.515 204.585 445.117 204.297 445.117 203.721C445.117 203.423 444.984 203.215 444.717 203.097C444.451 202.98 443.997 202.921 443.357 202.921H441.645V200.153H443.277C443.8 200.153 444.184 200.089 444.429 199.961C444.685 199.833 444.813 199.625 444.813 199.337C444.813 199.071 444.685 198.873 444.429 198.745C444.184 198.617 443.843 198.553 443.405 198.553C442.755 198.553 442.168 198.628 441.645 198.777C441.123 198.927 440.632 199.151 440.173 199.449V196.537C440.675 196.292 441.256 196.1 441.917 195.961C442.579 195.812 443.251 195.737 443.933 195.737C445.533 195.737 446.723 196.041 447.501 196.649C448.291 197.257 448.685 198.105 448.685 199.193C448.685 199.609 448.605 200.02 448.445 200.425C448.285 200.831 448.04 201.199 447.709 201.529C448.179 201.839 448.509 202.191 448.701 202.585C448.893 202.969 448.989 203.412 448.989 203.913C448.989 205.012 448.579 205.871 447.757 206.489C446.947 207.097 445.651 207.401 443.869 207.401Z" fill="#393939"/>
</svg>