<?xml version="1.0" encoding="utf-8"?>
<!-- Generator: Adobe Illustrator 27.3.1, SVG Export Plug-In . SVG Version: 6.00 Build 0)  -->
<svg version="1.1" id="Layer_1" xmlns="http://www.w3.org/2000/svg" xmlns:xlink="http://www.w3.org/1999/xlink" x="0px" y="0px"
	 viewBox="0 0 809 436" style="enable-background:new 0 0 809 436;" xml:space="preserve">
<style type="text/css">
	.st0{fill:#393939;}
	.st1{fill:#FFFFFF;}
	.st2{fill:#B7D3F7;}
	.st3{fill:#C8C8C8;}
	.st4{fill:#FFD100;}
	.st5{fill:#FF8C00;}
</style>
<path class="st0" d="M88.6,335.3l-10.5-10.5l8.4-11.3l1.4,1l-7.6,10.1l9.5,9.6L88.6,335.3z"/>
<path class="st1" d="M79.2,325.7c0.8,0,1.5-0.6,1.5-1.4c0-0.8-0.7-1.4-1.5-1.4c-0.8,0-1.5,0.6-1.5,1.4
	C77.7,325.1,78.4,325.7,79.2,325.7z"/>
<path class="st0" d="M79.2,326.6c-1.3,0-2.4-1-2.4-2.2c0-1.2,1.1-2.2,2.4-2.2s2.4,1,2.4,2.2C81.6,325.6,80.5,326.6,79.2,326.6z
	 M79.2,323.8c-0.3,0-0.6,0.3-0.6,0.6c0,0.3,0.3,0.6,0.6,0.6s0.6-0.3,0.6-0.6C79.8,324,79.5,323.8,79.2,323.8z"/>
<path class="st0" d="M112.6,335.3l-1.3-1.1l9.5-9.6l-7.6-10.1l1.4-1l8.4,11.3L112.6,335.3z"/>
<path class="st1" d="M122,325.7c0.8,0,1.5-0.6,1.5-1.4c0-0.8-0.7-1.4-1.5-1.4c-0.8,0-1.5,0.6-1.5,1.4
	C120.5,325.1,121.1,325.7,122,325.7z"/>
<path class="st0" d="M122,326.6c-1.3,0-2.4-1-2.4-2.2c0-1.2,1.1-2.2,2.4-2.2c1.3,0,2.4,1,2.4,2.2C124.3,325.6,123.3,326.6,122,326.6
	z M122,323.8c-0.3,0-0.6,0.3-0.6,0.6c0,0.3,0.3,0.6,0.6,0.6s0.6-0.3,0.6-0.6C122.6,324,122.3,323.8,122,323.8z"/>
<path class="st0" d="M564.3,435.7H1.6V67h562.7V435.7L564.3,435.7z M3.4,434h559.2V68.6H3.4V434z"/>
<path class="st0" d="M542.4,435.7H23.5V86.3h518.9V435.7z M25.3,434h515.4V88H25.3V434z"/>
<path class="st2" d="M112.5,27L1.2,61.2l1.7,5.1l111.3-34.2L112.5,27z"/>
<path class="st0" d="M2.4,67.4l-2.3-6.7L113,26l2.3,6.7L2.4,67.4z M2.3,61.8l1.2,3.5l109.6-33.7l-1.2-3.5L2.3,61.8z"/>
<path class="st2" d="M225,27L113.7,61.2l1.7,5.1l111.3-34.2L225,27z"/>
<path class="st0" d="M114.8,67.4l-2.3-6.7l113-34.7l2.3,6.7L114.8,67.4z M114.8,61.8l1.2,3.5l109.6-33.7l-1.2-3.5L114.8,61.8z"/>
<path class="st2" d="M337.4,27L226.1,61.2l1.7,5.1l111.3-34.2L337.4,27z"/>
<path class="st0" d="M227.3,67.4l-2.3-6.7L338,26l2.3,6.7L227.3,67.4z M227.2,61.8l1.2,3.5l109.6-33.7l-1.2-3.5L227.2,61.8z"/>
<path class="st2" d="M449.9,27L338.6,61.2l1.7,5.1l111.3-34.2L449.9,27z"/>
<path class="st0" d="M339.8,67.4l-2.3-6.7l113-34.7l2.3,6.7L339.8,67.4z M339.7,61.8l1.2,3.5l109.6-33.7l-1.2-3.5L339.7,61.8z"/>
<path class="st2" d="M562.4,27L451.1,61.2l1.7,5.1l111.3-34.2L562.4,27z"/>
<path class="st0" d="M452.3,67.4l-2.3-6.7L563,26l2.3,6.7L452.3,67.4z M452.2,61.8l1.2,3.5L563,31.6l-1.2-3.5L452.2,61.8z"/>
<path class="st3" d="M541.6,241.6H24.4v3.8h517.2V241.6z"/>
<path class="st0" d="M542.4,246.3H23.5v-5.5h518.9V246.3z M25.3,244.6h515.4v-2.2H25.3V244.6z"/>
<path class="st3" d="M89.6,237.7v10.1l5.2,5.6c1.8,2,4.5,3.1,7.2,3.1c2.8,0,5.4-1.1,7.2-3.1l5.2-5.6v-10.1H89.6z"/>
<path class="st0" d="M102,257.3c-3,0-5.9-1.2-7.9-3.4l-5.4-5.8v-11.3h26.5v11.3l-5.4,5.8C107.9,256.1,105,257.3,102,257.3z
	 M90.5,247.5l4.9,5.3c1.7,1.8,4.1,2.8,6.6,2.8c2.5,0,4.9-1,6.6-2.8l4.9-5.3v-9h-23V247.5L90.5,247.5z"/>
<path class="st0" d="M80.4,240.8c3.4,0,6.1-2.6,6.1-5.8c0-3.2-2.7-5.8-6.1-5.8c-3.4,0-6.1,2.6-6.1,5.8
	C74.2,238.2,77,240.8,80.4,240.8z"/>
<path class="st0" d="M80.4,241.6c-3.9,0-7-3-7-6.7c0-3.7,3.1-6.7,7-6.7c3.9,0,7,3,7,6.7C87.4,238.6,84.2,241.6,80.4,241.6z
	 M80.4,229.9c-2.9,0-5.3,2.2-5.3,5c0,2.8,2.4,5,5.3,5c2.9,0,5.3-2.2,5.3-5C85.6,232.2,83.3,229.9,80.4,229.9z"/>
<path class="st0" d="M123.6,240.8c3.4,0,6.1-2.6,6.1-5.8c0-3.2-2.8-5.8-6.1-5.8s-6.1,2.6-6.1,5.8
	C117.5,238.2,120.2,240.8,123.6,240.8z"/>
<path class="st0" d="M123.6,241.6c-3.9,0-7-3-7-6.7c0-3.7,3.1-6.7,7-6.7c3.9,0,7,3,7,6.7C130.6,238.6,127.5,241.6,123.6,241.6z
	 M123.6,229.9c-2.9,0-5.3,2.2-5.3,5c0,2.8,2.4,5,5.3,5s5.3-2.2,5.3-5C128.9,232.2,126.5,229.9,123.6,229.9z"/>
<path class="st1" d="M122.2,233.3l-5.4,4.4H87.4l-5.4-4.4c-1-0.8-2.6-0.7-3.4,0.3c-0.6,0.8-0.7,1.9-0.1,2.7l8.9,11.7h29.4l8.9-11.7
	c0.6-0.8,0.6-1.9-0.1-2.7C124.8,232.6,123.2,232.5,122.2,233.3z"/>
<path class="st0" d="M117.2,248.8H87l-9.1-12.1c-0.8-1.1-0.8-2.6,0.1-3.7c0.5-0.7,1.3-1.1,2.2-1.2c0.9-0.1,1.8,0.2,2.4,0.7l5.2,4.2
	h28.7l5.2-4.2c0.7-0.6,1.5-0.8,2.4-0.7c0.9,0.1,1.7,0.5,2.2,1.2c0.9,1.1,0.9,2.6,0.1,3.7L117.2,248.8z M87.8,247.2h28.5l8.6-11.4
	c0.4-0.5,0.4-1.2,0-1.7c-0.3-0.3-0.6-0.5-1-0.5c-0.4,0-0.8,0.1-1.1,0.3l-5.7,4.6h-30l-5.7-4.6c-0.3-0.3-0.7-0.4-1.1-0.3
	c-0.4,0-0.8,0.2-1,0.5c-0.4,0.5-0.4,1.2,0,1.7L87.8,247.2z"/>
<path class="st0" d="M102.9,256.5h-1.7v55.8h1.7V256.5z"/>
<path class="st3" d="M113.9,312.8l-8.6-2.9c-1.2-0.4-2.4-0.6-3.6-0.6h-2.9c-1.2,0-2.4,0.2-3.6,0.6l-8.6,2.9
	c-0.5,0.2-0.9,0.7-0.9,1.2c0,0.7,0.6,1.3,1.4,1.3h26.4c0.8,0,1.4-0.6,1.4-1.3C114.8,313.5,114.5,313,113.9,312.8z"/>
<path class="st0" d="M113.4,316.2H87.1c-1.2,0-2.2-1-2.2-2.1c0-0.9,0.6-1.7,1.5-2l8.6-2.9c1.2-0.4,2.6-0.6,3.9-0.6h2.9
	c1.3,0,2.6,0.2,3.9,0.6l8.6,2.9c0.9,0.3,1.5,1.1,1.5,2C115.7,315.2,114.7,316.2,113.4,316.2z M98.8,310.2c-1.1,0-2.2,0.2-3.3,0.5
	l-8.6,2.9c-0.2,0.1-0.3,0.2-0.3,0.4c0,0.3,0.2,0.5,0.5,0.5h26.4c0.3,0,0.5-0.2,0.5-0.5c0-0.2-0.1-0.4-0.3-0.4l-8.6-2.9
	c-1.1-0.4-2.2-0.5-3.3-0.5H98.8z"/>
<path class="st1" d="M87.2,316.9c1.7,0,3.1-1.3,3.1-2.9c0-1.6-1.4-2.9-3.1-2.9c-1.7,0-3.1,1.3-3.1,2.9
	C84.1,315.6,85.5,316.9,87.2,316.9z"/>
<path class="st0" d="M87.2,317.7c-2.2,0-4-1.7-4-3.7c0-2.1,1.8-3.7,4-3.7c2.2,0,4,1.7,4,3.7C91.1,316,89.4,317.7,87.2,317.7z
	 M87.2,311.9c-1.2,0-2.2,0.9-2.2,2.1c0,1.2,1,2.1,2.2,2.1c1.2,0,2.2-0.9,2.2-2.1C89.4,312.8,88.4,311.9,87.2,311.9z"/>
<path class="st1" d="M114,316.9c1.7,0,3.1-1.3,3.1-2.9c0-1.6-1.4-2.9-3.1-2.9c-1.7,0-3.1,1.3-3.1,2.9
	C110.9,315.6,112.3,316.9,114,316.9z"/>
<path class="st0" d="M114,317.7c-2.2,0-4-1.7-4-3.7c0-2.1,1.8-3.7,4-3.7s4,1.7,4,3.7C117.9,316,116.2,317.7,114,317.7z M114,311.9
	c-1.2,0-2.2,0.9-2.2,2.1c0,1.2,1,2.1,2.2,2.1c1.2,0,2.2-0.9,2.2-2.1C116.2,312.8,115.2,311.9,114,311.9z"/>
<path class="st1" d="M112.4,322.9H88.8v22.4h23.6V322.9z"/>
<path class="st0" d="M113.3,346.2H87.9v-24.1h25.4V346.2z M89.6,344.5h21.9v-20.8H89.6V344.5z"/>
<path class="st4" d="M273.1,309c0-5.1,4.3-9.2,9.7-9.2c5.3,0,9.7,4.1,9.7,9.2v13.5h-19.4V309L273.1,309z"/>
<path class="st0" d="M293.3,323.3h-21.1V309c0-5.5,4.7-10,10.6-10s10.6,4.5,10.6,10V323.3L293.3,323.3z M274,321.7h17.6V309
	c0-4.6-4-8.3-8.8-8.3s-8.8,3.7-8.8,8.3V321.7L274,321.7z"/>
<path class="st0" d="M297.3,329.2h-29.1v-7.5h29.1V329.2z M270,327.5h25.6v-4.2H270V327.5z"/>
<path class="st0" d="M498.5,410.2H336.4v-35.1h162.1c10.2,0,18.5,7.9,18.5,17.6C517,402.3,508.7,410.2,498.5,410.2z M338.1,408.6
	h160.4c9.3,0,16.8-7.1,16.8-15.9s-7.5-15.9-16.8-15.9H338.1V408.6z"/>
<path class="st3" d="M498.4,378.9c8,0,14.5,6.2,14.5,13.8s-6.5,13.8-14.5,13.8H337.3v-27.5H498.4z"/>
<path class="st0" d="M498.4,407.2h-162v-29.2h162c8.5,0,15.4,6.5,15.4,14.6S506.9,407.2,498.4,407.2z M338.1,405.6h160.3
	c7.5,0,13.6-5.8,13.6-12.9s-6.1-12.9-13.6-12.9H338.1V405.6z"/>
<path class="st0" d="M498.4,403.3c-6.2,0-11.2-4.8-11.2-10.6s5-10.6,11.2-10.6c6.2,0,11.2,4.8,11.2,10.6S504.6,403.3,498.4,403.3z
	 M498.4,383.7c-5.2,0-9.5,4-9.5,9s4.3,9,9.5,9c5.2,0,9.5-4,9.5-9S503.7,383.7,498.4,383.7z"/>
<path class="st0" d="M498.4,396c-1.9,0-3.5-1.5-3.5-3.3s1.6-3.3,3.5-3.3c1.9,0,3.5,1.5,3.5,3.3S500.4,396,498.4,396z M498.4,391
	c-1,0-1.8,0.7-1.8,1.7s0.8,1.7,1.8,1.7c1,0,1.8-0.7,1.8-1.7S499.4,391,498.4,391z"/>
<path class="st0" d="M445.3,396c-1.9,0-3.5-1.5-3.5-3.3s1.6-3.3,3.5-3.3c1.9,0,3.5,1.5,3.5,3.3S447.2,396,445.3,396z M445.3,391
	c-1,0-1.8,0.7-1.8,1.7s0.8,1.7,1.8,1.7c1,0,1.8-0.7,1.8-1.7S446.3,391,445.3,391z"/>
<path class="st0" d="M392.2,396c-1.9,0-3.5-1.5-3.5-3.3s1.6-3.3,3.5-3.3s3.5,1.5,3.5,3.3S394.1,396,392.2,396z M392.2,391
	c-1,0-1.8,0.7-1.8,1.7s0.8,1.7,1.8,1.7c1,0,1.8-0.7,1.8-1.7S393.2,391,392.2,391z"/>
<path class="st0" d="M339.1,396c-1.9,0-3.5-1.5-3.5-3.3s1.6-3.3,3.5-3.3c1.9,0,3.5,1.5,3.5,3.3S341,396,339.1,396z M339.1,391
	c-1,0-1.8,0.7-1.8,1.7s0.8,1.7,1.8,1.7s1.8-0.7,1.8-1.7S340.1,391,339.1,391z"/>
<path class="st0" d="M445.3,403.3c-6.2,0-11.2-4.8-11.2-10.6s5-10.6,11.2-10.6c6.2,0,11.2,4.8,11.2,10.6S451.5,403.3,445.3,403.3z
	 M445.3,383.7c-5.2,0-9.5,4-9.5,9s4.3,9,9.5,9c5.2,0,9.5-4,9.5-9S450.5,383.7,445.3,383.7z"/>
<path class="st0" d="M392.2,403.3c-6.2,0-11.2-4.8-11.2-10.6s5-10.6,11.2-10.6c6.2,0,11.2,4.8,11.2,10.6S398.4,403.3,392.2,403.3z
	 M392.2,383.7c-5.2,0-9.5,4-9.5,9s4.3,9,9.5,9c5.2,0,9.5-4,9.5-9S397.4,383.7,392.2,383.7z"/>
<path class="st0" d="M339.1,403.3c-6.2,0-11.2-4.8-11.2-10.6s5-10.6,11.2-10.6c6.2,0,11.2,4.8,11.2,10.6S345.3,403.3,339.1,403.3z
	 M339.1,383.7c-5.2,0-9.5,4-9.5,9s4.3,9,9.5,9c5.2,0,9.5-4,9.5-9S344.3,383.7,339.1,383.7z"/>
<path class="st0" d="M497.5,409.4h-1.8v25.5h1.8V409.4z"/>
<path class="st0" d="M454.8,409.4H453v25.5h1.8V409.4z"/>
<path class="st0" d="M412,409.4h-1.8v25.5h1.8V409.4z"/>
<path class="st0" d="M369.2,409.4h-1.8v25.5h1.8V409.4z"/>
<path class="st0" d="M492.2,411.7h8.8v-2.3h-8.8V411.7z"/>
<path class="st0" d="M501.9,412.6h-10.6v-4h10.6V412.6z M493.1,410.9h7.1v-0.7h-7.1V410.9z"/>
<path class="st0" d="M492.2,434.9h8.8v-2.3h-8.8V434.9z"/>
<path class="st0" d="M501.9,435.7h-10.6v-4h10.6V435.7z M493.1,434h7.1v-0.7h-7.1V434z"/>
<path class="st0" d="M449.5,411.7h8.8v-2.3h-8.8V411.7z"/>
<path class="st0" d="M459.2,412.6h-10.6v-4h10.6V412.6z M450.3,410.9h7.1v-0.7h-7.1V410.9z"/>
<path class="st0" d="M449.5,434.9h8.8v-2.3h-8.8V434.9z"/>
<path class="st0" d="M459.2,435.7h-10.6v-4h10.6V435.7z M450.3,434h7.1v-0.7h-7.1V434z"/>
<path class="st0" d="M406.7,411.7h8.8v-2.3h-8.8V411.7z"/>
<path class="st0" d="M416.4,412.6h-10.6v-4h10.6V412.6z M407.6,410.9h7.1v-0.7h-7.1V410.9z"/>
<path class="st0" d="M406.7,434.9h8.8v-2.3h-8.8V434.9z"/>
<path class="st0" d="M416.4,435.7h-10.6v-4h10.6V435.7z M407.6,434h7.1v-0.7h-7.1V434z"/>
<path class="st0" d="M363.9,411.7h8.8v-2.3h-8.8V411.7z"/>
<path class="st0" d="M373.7,412.6h-10.6v-4h10.6V412.6z M364.8,410.9h7.1v-0.7h-7.1V410.9z"/>
<path class="st0" d="M363.9,434.9h8.8v-2.3h-8.8V434.9z"/>
<path class="st0" d="M373.7,435.7h-10.6v-4h10.6V435.7z M364.8,434h7.1v-0.7h-7.1V434z"/>
<path class="st0" d="M469.9,365.5L459.5,355l8.4-11.3l1.4,1l-7.6,10.1l9.5,9.6L469.9,365.5z"/>
<path class="st1" d="M460.6,356c0.8,0,1.5-0.6,1.5-1.4c0-0.8-0.7-1.4-1.5-1.4c-0.8,0-1.5,0.6-1.5,1.4
	C459.1,355.4,459.8,356,460.6,356z"/>
<path class="st0" d="M460.6,356.8c-1.3,0-2.4-1-2.4-2.2c0-1.2,1.1-2.2,2.4-2.2s2.4,1,2.4,2.2C463,355.8,461.9,356.8,460.6,356.8z
	 M460.6,354c-0.3,0-0.6,0.3-0.6,0.6c0,0.3,0.3,0.6,0.6,0.6s0.6-0.3,0.6-0.6C461.2,354.3,460.9,354,460.6,354z"/>
<path class="st0" d="M494,365.5l-1.3-1.1l9.5-9.6l-7.6-10.1l1.4-1l8.4,11.3L494,365.5z"/>
<path class="st1" d="M503.4,356c0.8,0,1.5-0.6,1.5-1.4c0-0.8-0.7-1.4-1.5-1.4c-0.8,0-1.5,0.6-1.5,1.4
	C501.9,355.4,502.5,356,503.4,356z"/>
<path class="st0" d="M503.4,356.8c-1.3,0-2.4-1-2.4-2.2c0-1.2,1.1-2.2,2.4-2.2c1.3,0,2.4,1,2.4,2.2
	C505.7,355.8,504.7,356.8,503.4,356.8z M503.4,354c-0.3,0-0.6,0.3-0.6,0.6c0,0.3,0.3,0.6,0.6,0.6s0.6-0.3,0.6-0.6
	C504,354.3,503.7,354,503.4,354z"/>
<path class="st3" d="M471,237.7v10.1l5.2,5.6c1.8,2,4.5,3.1,7.2,3.1c2.8,0,5.4-1.1,7.2-3.1l5.2-5.6v-10.1H471z"/>
<path class="st0" d="M483.4,257.3c-3,0-5.9-1.2-7.9-3.4l-5.4-5.8v-11.3h26.5v11.3l-5.4,5.8C489.3,256.1,486.4,257.3,483.4,257.3z
	 M471.9,247.5l4.9,5.3c1.7,1.8,4.1,2.8,6.6,2.8s4.9-1,6.6-2.8l4.9-5.3v-9h-23L471.9,247.5L471.9,247.5z"/>
<path class="st0" d="M461.8,240.8c3.4,0,6.1-2.6,6.1-5.8c0-3.2-2.8-5.8-6.1-5.8s-6.1,2.6-6.1,5.8
	C455.6,238.2,458.4,240.8,461.8,240.8z"/>
<path class="st0" d="M461.8,241.6c-3.9,0-7-3-7-6.7c0-3.7,3.1-6.7,7-6.7c3.9,0,7,3,7,6.7C468.8,238.6,465.6,241.6,461.8,241.6z
	 M461.8,229.9c-2.9,0-5.3,2.2-5.3,5c0,2.8,2.4,5,5.3,5s5.3-2.2,5.3-5C467,232.2,464.7,229.9,461.8,229.9z"/>
<path class="st0" d="M505,240.8c3.4,0,6.1-2.6,6.1-5.8c0-3.2-2.8-5.8-6.1-5.8c-3.4,0-6.1,2.6-6.1,5.8
	C498.9,238.2,501.6,240.8,505,240.8z"/>
<path class="st0" d="M505,241.6c-3.9,0-7-3-7-6.7c0-3.7,3.1-6.7,7-6.7c3.9,0,7,3,7,6.7C512,238.6,508.9,241.6,505,241.6z M505,229.9
	c-2.9,0-5.3,2.2-5.3,5c0,2.8,2.4,5,5.3,5c2.9,0,5.3-2.2,5.3-5C510.3,232.2,507.9,229.9,505,229.9z"/>
<path class="st1" d="M503.6,233.3l-5.4,4.4h-29.4l-5.4-4.4c-1-0.8-2.6-0.7-3.4,0.3c-0.6,0.8-0.7,1.9-0.1,2.7l8.9,11.7h29.4l8.9-11.7
	c0.6-0.8,0.6-1.9-0.1-2.7C506.2,232.6,504.6,232.5,503.6,233.3z"/>
<path class="st0" d="M498.6,248.8h-30.3l-9.1-12.1c-0.8-1.1-0.8-2.6,0.1-3.7c0.5-0.7,1.3-1.1,2.2-1.2c0.9-0.1,1.8,0.2,2.4,0.7
	l5.2,4.2h28.7l5.2-4.2c0.7-0.6,1.5-0.8,2.4-0.7c0.9,0.1,1.7,0.5,2.2,1.2c0.9,1.1,0.9,2.6,0.1,3.7L498.6,248.8z M469.2,247.2h28.5
	l8.6-11.4c0.4-0.5,0.4-1.2,0-1.7c-0.3-0.3-0.6-0.5-1-0.5c-0.4,0-0.8,0.1-1.1,0.3l-5.7,4.6h-30l-5.7-4.6c-0.3-0.3-0.7-0.4-1.1-0.3
	c-0.4,0-0.8,0.2-1,0.5c-0.4,0.5-0.4,1.2,0,1.7L469.2,247.2z"/>
<path class="st0" d="M484.3,256.5h-1.8v86.1h1.8V256.5z"/>
<path class="st3" d="M495.3,343.1l-8.6-2.9c-1.2-0.4-2.4-0.6-3.6-0.6h-2.9c-1.2,0-2.4,0.2-3.6,0.6l-8.6,2.9
	c-0.5,0.2-0.9,0.7-0.9,1.2c0,0.7,0.6,1.3,1.4,1.3h26.4c0.8,0,1.4-0.6,1.4-1.3C496.2,343.8,495.8,343.3,495.3,343.1z"/>
<path class="st0" d="M494.8,346.4h-26.4c-1.2,0-2.2-1-2.2-2.1c0-0.9,0.6-1.7,1.5-2l8.6-2.9c1.2-0.4,2.6-0.6,3.9-0.6h2.9
	c1.3,0,2.6,0.2,3.9,0.6l8.6,2.9c0.9,0.3,1.5,1.1,1.5,2C497.1,345.5,496.1,346.4,494.8,346.4z M480.2,340.4c-1.1,0-2.2,0.2-3.3,0.5
	l-8.6,2.9c-0.2,0.1-0.3,0.2-0.3,0.4c0,0.3,0.2,0.5,0.5,0.5h26.4c0.3,0,0.5-0.2,0.5-0.5c0-0.2-0.1-0.4-0.3-0.4l-8.6-2.9
	c-1.1-0.4-2.2-0.5-3.3-0.5H480.2z"/>
<path class="st1" d="M468.6,347.1c1.7,0,3.1-1.3,3.1-2.9c0-1.6-1.4-2.9-3.1-2.9c-1.7,0-3.1,1.3-3.1,2.9
	C465.5,345.8,466.9,347.1,468.6,347.1z"/>
<path class="st0" d="M468.6,348c-2.2,0-4-1.7-4-3.7c0-2.1,1.8-3.7,4-3.7c2.2,0,4,1.7,4,3.7C472.5,346.3,470.8,348,468.6,348z
	 M468.6,342.1c-1.2,0-2.2,0.9-2.2,2.1c0,1.2,1,2.1,2.2,2.1c1.2,0,2.2-0.9,2.2-2.1C470.8,343.1,469.8,342.1,468.6,342.1z"/>
<path class="st1" d="M495.4,347.1c1.7,0,3.1-1.3,3.1-2.9c0-1.6-1.4-2.9-3.1-2.9s-3.1,1.3-3.1,2.9
	C492.3,345.8,493.7,347.1,495.4,347.1z"/>
<path class="st0" d="M495.4,348c-2.2,0-4-1.7-4-3.7c0-2.1,1.8-3.7,4-3.7c2.2,0,4,1.7,4,3.7C499.3,346.3,497.6,348,495.4,348z
	 M495.4,342.1c-1.2,0-2.2,0.9-2.2,2.1c0,1.2,1,2.1,2.2,2.1c1.2,0,2.2-0.9,2.2-2.1C497.6,343.1,496.6,342.1,495.4,342.1z"/>
<path class="st2" d="M493.8,353.2h-23.6v22.4h23.6V353.2z"/>
<path class="st0" d="M494.7,376.4h-25.4v-24.1h25.4V376.4z M471,374.8h21.9V354H471V374.8z"/>
<path class="st1" d="M156.7,353.5h-23.6v22.4h23.6V353.5z"/>
<path class="st0" d="M157.6,376.8h-25.4v-24.1h25.4V376.8z M133.9,375.1h21.9v-20.8h-21.9V375.1z"/>
<path class="st1" d="M209,353.5h-23.6v22.4H209V353.5z"/>
<path class="st0" d="M209.9,376.8h-25.4v-24.1h25.4V376.8z M186.2,375.1h21.9v-20.8h-21.9V375.1z"/>
<path class="st2" d="M393.7,353.5H370v22.4h23.6V353.5z"/>
<path class="st0" d="M394.5,376.8h-25.4v-24.1h25.4V376.8z M370.9,375.1h21.9v-20.8h-21.9V375.1z"/>
<path class="st2" d="M443.4,353.5h-23.6v22.4h23.6V353.5z"/>
<path class="st0" d="M444.3,376.8h-25.4v-24.1h25.4V376.8z M420.7,375.1h21.9v-20.8h-21.9V375.1z"/>
<path class="st0" d="M229.2,410.2H67c-10.2,0-18.5-7.9-18.5-17.6c0-9.7,8.3-17.6,18.5-17.6h162.1V410.2z M67,376.8
	c-9.3,0-16.8,7.1-16.8,15.9s7.5,15.9,16.8,15.9h160.4v-31.8H67z"/>
<path class="st3" d="M67.1,378.9c-8,0-14.5,6.2-14.5,13.8s6.5,13.8,14.5,13.8h161.2v-27.5H67.1z"/>
<path class="st0" d="M229.2,407.2h-162c-8.5,0-15.4-6.5-15.4-14.6s6.9-14.6,15.4-14.6h162V407.2z M67.1,379.7
	c-7.5,0-13.6,5.8-13.6,12.9c0,7.1,6.1,12.9,13.6,12.9h160.3v-25.8H67.1z"/>
<path class="st0" d="M67.1,403.3c-6.2,0-11.2-4.8-11.2-10.6s5-10.6,11.2-10.6c6.2,0,11.2,4.8,11.2,10.6S73.3,403.3,67.1,403.3z
	 M67.1,383.7c-5.2,0-9.5,4-9.5,9s4.3,9,9.5,9c5.2,0,9.5-4,9.5-9S72.4,383.7,67.1,383.7z"/>
<path class="st0" d="M67.1,396c-1.9,0-3.5-1.5-3.5-3.3s1.6-3.3,3.5-3.3c1.9,0,3.5,1.5,3.5,3.3S69.1,396,67.1,396z M67.1,391
	c-1,0-1.8,0.7-1.8,1.7s0.8,1.7,1.8,1.7c1,0,1.8-0.7,1.8-1.7S68.1,391,67.1,391z"/>
<path class="st0" d="M120.2,396c-1.9,0-3.5-1.5-3.5-3.3s1.6-3.3,3.5-3.3c1.9,0,3.5,1.5,3.5,3.3S122.2,396,120.2,396z M120.2,391
	c-1,0-1.8,0.7-1.8,1.7s0.8,1.7,1.8,1.7c1,0,1.8-0.7,1.8-1.7S121.2,391,120.2,391z"/>
<path class="st0" d="M173.4,396c-1.9,0-3.5-1.5-3.5-3.3s1.6-3.3,3.5-3.3c1.9,0,3.5,1.5,3.5,3.3S175.3,396,173.4,396z M173.4,391
	c-1,0-1.8,0.7-1.8,1.7s0.8,1.7,1.8,1.7c1,0,1.8-0.7,1.8-1.7S174.3,391,173.4,391z"/>
<path class="st0" d="M226.5,396c-1.9,0-3.5-1.5-3.5-3.3s1.6-3.3,3.5-3.3c1.9,0,3.5,1.5,3.5,3.3S228.4,396,226.5,396z M226.5,391
	c-1,0-1.8,0.7-1.8,1.7s0.8,1.7,1.8,1.7c1,0,1.8-0.7,1.8-1.7S227.4,391,226.5,391z"/>
<path class="st0" d="M120.2,403.3c-6.2,0-11.2-4.8-11.2-10.6s5-10.6,11.2-10.6s11.2,4.8,11.2,10.6S126.4,403.3,120.2,403.3z
	 M120.2,383.7c-5.2,0-9.5,4-9.5,9s4.3,9,9.5,9c5.2,0,9.5-4,9.5-9S125.5,383.7,120.2,383.7z"/>
<path class="st0" d="M173.4,403.3c-6.2,0-11.2-4.8-11.2-10.6s5-10.6,11.2-10.6c6.2,0,11.2,4.8,11.2,10.6S179.6,403.3,173.4,403.3z
	 M173.4,383.7c-5.2,0-9.5,4-9.5,9s4.3,9,9.5,9c5.2,0,9.5-4,9.5-9S178.6,383.7,173.4,383.7z"/>
<path class="st0" d="M226.5,403.3c-6.2,0-11.2-4.8-11.2-10.6s5-10.6,11.2-10.6c6.2,0,11.2,4.8,11.2,10.6S232.7,403.3,226.5,403.3z
	 M226.5,383.7c-5.2,0-9.5,4-9.5,9s4.3,9,9.5,9c5.2,0,9.5-4,9.5-9S231.7,383.7,226.5,383.7z"/>
<path class="st1" d="M339,328.4H226.6v106.5H339V328.4z"/>
<path class="st0" d="M339.8,435.7H225.7V327.5h114.1V435.7z M227.5,434h110.6V329.2H227.5V434z"/>
<path class="st0" d="M69.8,409.4H68v25.5h1.7V409.4z"/>
<path class="st0" d="M112.6,409.4h-1.8v25.5h1.8V409.4z"/>
<path class="st0" d="M155.3,409.4h-1.8v25.5h1.8V409.4z"/>
<path class="st0" d="M198.1,409.4h-1.8v25.5h1.8V409.4z"/>
<path class="st0" d="M73.3,409.4h-8.8v2.3h8.8V409.4z"/>
<path class="st0" d="M74.2,412.6H63.6v-4h10.6V412.6z M65.4,410.9h7.1v-0.7h-7.1V410.9z"/>
<path class="st0" d="M73.3,432.5h-8.8v2.3h8.8V432.5z"/>
<path class="st0" d="M74.2,435.7H63.6v-4h10.6V435.7z M65.4,434h7.1v-0.7h-7.1V434z"/>
<path class="st0" d="M116.1,409.4h-8.8v2.3h8.8V409.4z"/>
<path class="st0" d="M117,412.6h-10.6v-4H117V412.6z M108.1,410.9h7.1v-0.7h-7.1V410.9z"/>
<path class="st0" d="M116.1,432.5h-8.8v2.3h8.8V432.5z"/>
<path class="st0" d="M117,435.7h-10.6v-4H117V435.7z M108.1,434h7.1v-0.7h-7.1V434z"/>
<path class="st0" d="M158.9,409.4H150v2.3h8.8V409.4z"/>
<path class="st0" d="M159.7,412.6h-10.6v-4h10.6V412.6z M150.9,410.9h7.1v-0.7h-7.1V410.9z"/>
<path class="st0" d="M158.9,432.5H150v2.3h8.8V432.5z"/>
<path class="st0" d="M159.7,435.7h-10.6v-4h10.6V435.7z M150.9,434h7.1v-0.7h-7.1V434z"/>
<path class="st0" d="M201.6,409.4h-8.8v2.3h8.8V409.4z"/>
<path class="st0" d="M202.5,412.6h-10.6v-4h10.6V412.6z M193.7,410.9h7.1v-0.7h-7.1V410.9z"/>
<path class="st0" d="M201.6,432.5h-8.8v2.3h8.8V432.5z"/>
<path class="st0" d="M202.5,435.7h-10.6v-4h10.6V435.7z M193.7,434h7.1v-0.7h-7.1V434z"/>
<path class="st1" d="M321.4,351.5c3.7,0,6.7-2.9,6.7-6.4c0-3.5-3-6.4-6.7-6.4c-3.7,0-6.7,2.9-6.7,6.4
	C314.7,348.6,317.7,351.5,321.4,351.5z"/>
<path class="st0" d="M321.4,352.3c-4.2,0-7.6-3.2-7.6-7.2c0-4,3.4-7.2,7.6-7.2c4.2,0,7.6,3.2,7.6,7.2
	C329.1,349.1,325.6,352.3,321.4,352.3z M321.4,339.5c-3.2,0-5.9,2.5-5.9,5.6c0,3.1,2.6,5.6,5.9,5.6c3.2,0,5.9-2.5,5.9-5.6
	C327.3,342,324.7,339.5,321.4,339.5z"/>
<path class="st0" d="M322.3,345.1h-1.7v4.4h1.7V345.1z"/>
<path class="st1" d="M303.2,351.5c3.7,0,6.7-2.9,6.7-6.4c0-3.5-3-6.4-6.7-6.4c-3.7,0-6.7,2.9-6.7,6.4
	C296.5,348.6,299.5,351.5,303.2,351.5z"/>
<path class="st0" d="M303.2,352.3c-4.2,0-7.6-3.2-7.6-7.2c0-4,3.4-7.2,7.6-7.2s7.6,3.2,7.6,7.2C310.8,349.1,307.4,352.3,303.2,352.3
	z M303.2,339.5c-3.2,0-5.9,2.5-5.9,5.6c0,3.1,2.6,5.6,5.9,5.6c3.2,0,5.9-2.5,5.9-5.6C309.1,342,306.4,339.5,303.2,339.5z"/>
<path class="st0" d="M305.9,341.4l-3.3,3.2l1.2,1.2l3.3-3.2L305.9,341.4z"/>
<path class="st1" d="M303.2,368.3c3.7,0,6.7-2.9,6.7-6.4s-3-6.4-6.7-6.4c-3.7,0-6.7,2.9-6.7,6.4S299.5,368.3,303.2,368.3z"/>
<path class="st0" d="M303.2,369.1c-4.2,0-7.6-3.2-7.6-7.2c0-4,3.4-7.2,7.6-7.2s7.6,3.2,7.6,7.2C310.8,365.9,307.4,369.1,303.2,369.1
	z M303.2,356.4c-3.2,0-5.9,2.5-5.9,5.6s2.6,5.6,5.9,5.6c3.2,0,5.9-2.5,5.9-5.6S306.4,356.4,303.2,356.4z"/>
<path class="st0" d="M300.9,358.2l-1.3,1.1l2.9,3.2l1.3-1.1L300.9,358.2z"/>
<path class="st1" d="M321.4,368.3c3.7,0,6.7-2.9,6.7-6.4s-3-6.4-6.7-6.4c-3.7,0-6.7,2.9-6.7,6.4S317.7,368.3,321.4,368.3z"/>
<path class="st0" d="M321.4,369.1c-4.2,0-7.6-3.2-7.6-7.2c0-4,3.4-7.2,7.6-7.2c4.2,0,7.6,3.2,7.6,7.2
	C329.1,365.9,325.6,369.1,321.4,369.1z M321.4,356.4c-3.2,0-5.9,2.5-5.9,5.6s2.6,5.6,5.9,5.6c3.2,0,5.9-2.5,5.9-5.6
	S324.7,356.4,321.4,356.4z"/>
<path class="st0" d="M322.3,357.6h-1.7v4.3h1.7V357.6z"/>
<path class="st3" d="M271.7,406.4h-35.1v28.4h35.1V406.4z"/>
<path class="st0" d="M272.6,435.7h-36.9v-30.1h36.9V435.7z M237.5,434h33.4v-26.8h-33.4V434z"/>
<path class="st0" d="M260.8,417.5h-13.3c-3,0-5.4-2.3-5.4-5.1h1.8c0,1.9,1.6,3.4,3.6,3.4h13.3c2,0,3.6-1.5,3.6-3.4h1.8
	C266.2,415.2,263.8,417.5,260.8,417.5z"/>
<path class="st0" d="M260.8,423.6h-13.3c-3,0-5.4-2.3-5.4-5.1h1.8c0,1.9,1.6,3.4,3.6,3.4h13.3c2,0,3.6-1.5,3.6-3.4h1.8
	C266.2,421.3,263.8,423.6,260.8,423.6z"/>
<path class="st0" d="M260.8,429.7h-13.3c-3,0-5.4-2.3-5.4-5.1h1.8c0,1.9,1.6,3.4,3.6,3.4h13.3c2,0,3.6-1.5,3.6-3.4h1.8
	C266.2,427.5,263.8,429.7,260.8,429.7z"/>
<path class="st2" d="M315.8,143.9h-65.7v74.2h65.7V143.9z"/>
<path class="st0" d="M316.7,218.9h-67.4V143h67.4V218.9z M251,217.3h64v-72.6h-64V217.3z"/>
<path class="st0" d="M292.2,163h-19v18h19V163z"/>
<path class="st0" d="M293,181.8h-20.7v-19.7H293V181.8z M274,180.2h17.2v-16.4H274V180.2z"/>
<path class="st1" d="M290.3,164.3h-15v7.3h15V164.3z"/>
<path class="st0" d="M291.2,172.5h-16.8v-9h16.8V172.5z M276.1,170.8h13.3v-5.7h-13.3V170.8z"/>
<path class="st0" d="M59.6,88.4c0-0.4-0.1-0.8-0.1-1.2h1.7c0,0.4,0,0.7,0.1,1.1L59.6,88.4z"/>
<path class="st0" d="M259.7,140.4c0-0.7-0.2-1.4-0.3-2.1l1.7-0.4c0.2,0.8,0.4,1.6,0.4,2.5L259.7,140.4z M258.6,136.3
	c-0.3-0.6-0.7-1.3-1.2-1.8l1.4-1c0.5,0.7,1,1.4,1.4,2.1L258.6,136.3z M255.9,132.9c-0.6-0.5-1.2-0.9-1.8-1.2l0.9-1.4
	c0.8,0.4,1.5,0.9,2.1,1.4L255.9,132.9z M252,130.8c-0.5-0.2-1-0.3-1.5-0.4l-0.8-0.1l0.3-1.6l0.8,0.1c0.6,0.1,1.2,0.2,1.7,0.4
	L252,130.8z M247.3,129.9l-2.4-0.4l0.3-1.6l2.4,0.4L247.3,129.9z M242.5,129l-2.4-0.4l0.3-1.6l2.4,0.4L242.5,129z M237.7,128.2
	l-2.4-0.4l0.3-1.6l2.4,0.4L237.7,128.2z M232.8,127.4l-2.4-0.4l0.3-1.6l2.4,0.4L232.8,127.4z M228,126.6l-2.4-0.4l0.3-1.6l2.4,0.4
	L228,126.6z M223.2,125.7l-2.4-0.4l0.3-1.6l2.4,0.4L223.2,125.7z M218.4,124.9l-2.4-0.4l0.3-1.6l2.4,0.4L218.4,124.9z M213.6,124.1
	l-2.4-0.4l0.3-1.6l2.4,0.4L213.6,124.1z M208.8,123.2l-2.4-0.4l0.3-1.6l2.4,0.4L208.8,123.2z M204,122.4l-2.4-0.4l0.3-1.6l2.4,0.4
	L204,122.4z M199.2,121.6l-2.4-0.4l0.3-1.6l2.4,0.4L199.2,121.6z M194.3,120.7l-2.4-0.4l0.3-1.6l2.4,0.4L194.3,120.7z M189.5,119.9
	l-2.4-0.4l0.3-1.6l2.4,0.4L189.5,119.9z M184.7,119.1l-2.4-0.4l0.3-1.6l2.4,0.4L184.7,119.1z M179.9,118.2l-2.4-0.4l0.3-1.6l2.4,0.4
	L179.9,118.2z M175.1,117.4l-2.4-0.4l0.3-1.6l2.4,0.4L175.1,117.4z M170.3,116.6l-2.4-0.4l0.3-1.6l2.4,0.4L170.3,116.6z
	 M165.5,115.7l-2.4-0.4l0.3-1.6l2.4,0.4L165.5,115.7z M160.7,114.9l-2.4-0.4l0.3-1.6l2.4,0.4L160.7,114.9z M155.9,114.1l-2.4-0.4
	l0.3-1.6l2.4,0.4L155.9,114.1z M151,113.3l-2.4-0.4l0.3-1.6l2.4,0.4L151,113.3z M146.2,112.4l-2.4-0.4l0.3-1.6l2.4,0.4L146.2,112.4z
	 M141.4,111.6l-2.4-0.4l0.3-1.6l2.4,0.4L141.4,111.6z M136.6,110.8l-2.4-0.4l0.3-1.6l2.4,0.4L136.6,110.8z M131.8,109.9l-2.4-0.4
	l0.3-1.6l2.4,0.4L131.8,109.9z M127,109.1l-2.4-0.4l0.3-1.6l2.4,0.4L127,109.1z M122.2,108.3l-2.4-0.4l0.3-1.6l2.4,0.4L122.2,108.3z
	 M117.4,107.4l-2.4-0.4l0.3-1.6l2.4,0.4L117.4,107.4z M112.5,106.6l-2.4-0.4l0.3-1.6l2.4,0.4L112.5,106.6z M107.7,105.8l-2.4-0.4
	l0.3-1.6l2.4,0.4L107.7,105.8z M102.9,104.9l-2.4-0.4l0.3-1.6l2.4,0.4L102.9,104.9z M98.1,104.1l-2.4-0.4l0.3-1.6l2.4,0.4
	L98.1,104.1z M93.3,103.3l-2.4-0.4l0.3-1.6l2.4,0.4L93.3,103.3z M88.5,102.4l-2.4-0.4l0.3-1.6l2.4,0.4L88.5,102.4z M83.7,101.6
	l-2.4-0.4l0.3-1.6L84,100L83.7,101.6z M78.9,100.8l-2.4-0.4l0.3-1.6l2.4,0.4L78.9,100.8z M74,100l-2.4-0.4l0.3-1.6l2.4,0.4L74,100z
	 M69.2,99.1c-0.8-0.2-1.7-0.5-2.4-0.9l0.8-1.5c0.7,0.3,1.4,0.6,2.1,0.8L69.2,99.1z M64.5,96.8c-0.7-0.5-1.3-1.1-1.9-1.7l1.3-1.1
	c0.5,0.5,1,1,1.6,1.5L64.5,96.8z M61.1,93.1c-0.4-0.7-0.8-1.5-1-2.3l1.7-0.5c0.2,0.7,0.5,1.3,0.9,2L61.1,93.1z"/>
<path class="st0" d="M261.5,142.7h-1.8v1.2h1.8V142.7z"/>
<path class="st0" d="M171.1,87.1h-1.7v1.2h1.7V87.1z"/>
<path class="st0" d="M272.3,140.4h-1.7v-2.3h1.7V140.4z M272.3,135.8h-1.7v-2.3h1.7V135.8z M272.3,131.1h-1.7v-1.3
	c0-0.3,0-0.6,0-0.9l1.7-0.1c0,0.4,0,0.7,0,1.1V131.1L272.3,131.1z M270.1,126.8c-0.2-0.7-0.5-1.3-0.9-2l1.5-0.8
	c0.4,0.7,0.7,1.5,1,2.3L270.1,126.8z M268,123c-0.5-0.6-1-1.1-1.6-1.5l1.1-1.3c0.7,0.5,1.3,1.1,1.9,1.7L268,123z M264.5,120.3
	c-0.7-0.3-1.4-0.6-2.1-0.8l0.5-1.6c0.8,0.2,1.7,0.5,2.4,0.9L264.5,120.3z M260.1,119.1l-2.4-0.4l0.3-1.6l2.4,0.4L260.1,119.1z
	 M255.3,118.2l-2.4-0.4l0.3-1.6l2.4,0.4L255.3,118.2z M250.5,117.3l-2.4-0.4l0.3-1.6l2.4,0.4L250.5,117.3z M245.7,116.4l-2.4-0.4
	l0.3-1.6l2.4,0.4L245.7,116.4z M240.9,115.5l-2.4-0.4l0.3-1.6l2.4,0.4L240.9,115.5z M236.1,114.6l-2.4-0.4l0.3-1.6l2.4,0.4
	L236.1,114.6z M231.3,113.8l-2.4-0.4l0.3-1.6l2.4,0.4L231.3,113.8z M226.5,112.9l-2.4-0.4l0.3-1.6l2.4,0.4L226.5,112.9z M221.7,112
	l-2.4-0.4l0.3-1.6l2.4,0.4L221.7,112z M216.9,111.1l-2.4-0.4l0.3-1.6l2.4,0.4L216.9,111.1z M212.1,110.2l-2.4-0.4l0.3-1.6l2.4,0.4
	L212.1,110.2z M207.3,109.3l-2.4-0.4l0.3-1.6l2.4,0.4L207.3,109.3z M202.6,108.5l-2.4-0.4l0.3-1.6l2.4,0.4L202.6,108.5z
	 M197.8,107.6l-2.4-0.4l0.3-1.6l2.4,0.4L197.8,107.6z M193,106.7l-2.4-0.4l0.3-1.6l2.4,0.4L193,106.7z M188.2,105.8l-2.4-0.4
	l0.3-1.6l2.4,0.4L188.2,105.8z M183.4,104.9l-2.4-0.4l0.3-1.6l2.4,0.4L183.4,104.9z M178.5,103.9c-0.8-0.2-1.6-0.6-2.4-1l0.8-1.5
	c0.7,0.3,1.4,0.6,2.1,0.8L178.5,103.9z M173.9,101.6c-0.7-0.5-1.3-1.1-1.8-1.8l1.4-1c0.5,0.6,1,1.1,1.6,1.5L173.9,101.6z
	 M170.7,97.7c-0.4-0.7-0.7-1.5-0.9-2.3l1.7-0.4c0.2,0.7,0.5,1.4,0.8,2L170.7,97.7z M169.3,93c0-0.3,0-0.6,0-0.8v-1.5h1.7v1.5
	c0,0.2,0,0.5,0,0.7L169.3,93z"/>
<path class="st0" d="M272.3,142.7h-1.7v1.2h1.7V142.7z"/>
<path class="st0" d="M506.6,88.4l-1.7-0.2c0-0.4,0.1-0.7,0.1-1.1h1.8C506.7,87.5,506.6,88,506.6,88.4z"/>
<path class="st0" d="M306.5,140.4l-1.7-0.1c0-0.8,0.2-1.7,0.4-2.5l1.7,0.4C306.6,139,306.5,139.7,306.5,140.4z M307.6,136.3
	l-1.6-0.7c0.4-0.7,0.8-1.5,1.4-2.1l1.4,1C308.3,135,307.9,135.6,307.6,136.3z M310.3,132.9l-1.2-1.3c0.7-0.5,1.4-1,2.1-1.4l0.9,1.4
	C311.5,132,310.9,132.4,310.3,132.9z M314.3,130.8l-0.5-1.6c0.6-0.2,1.1-0.3,1.7-0.4l0.8-0.1l0.3,1.6l-0.8,0.1
	C315.2,130.5,314.7,130.6,314.3,130.8z M318.9,129.9l-0.3-1.6l2.4-0.4l0.3,1.6L318.9,129.9z M323.7,129l-0.3-1.6l2.4-0.4l0.3,1.6
	L323.7,129z M328.5,128.2l-0.3-1.6l2.4-0.4l0.3,1.6L328.5,128.2z M333.4,127.4l-0.3-1.6l2.4-0.4l0.3,1.6L333.4,127.4z M338.2,126.6
	l-0.3-1.6l2.4-0.4l0.3,1.6L338.2,126.6z M343,125.7l-0.3-1.6l2.4-0.4l0.3,1.6L343,125.7z M347.8,124.9l-0.3-1.6l2.4-0.4l0.3,1.6
	L347.8,124.9z M352.6,124.1l-0.3-1.6l2.4-0.4l0.3,1.6L352.6,124.1z M357.4,123.2l-0.3-1.6l2.4-0.4l0.3,1.6L357.4,123.2z
	 M362.2,122.4l-0.3-1.6l2.4-0.4l0.3,1.6L362.2,122.4z M367,121.6l-0.3-1.6l2.4-0.4l0.3,1.6L367,121.6z M371.9,120.7l-0.3-1.6
	l2.4-0.4l0.3,1.6L371.9,120.7z M376.7,119.9l-0.3-1.6l2.4-0.4l0.3,1.6L376.7,119.9z M381.5,119.1l-0.3-1.6l2.4-0.4l0.3,1.6
	L381.5,119.1z M386.3,118.2l-0.3-1.6l2.4-0.4l0.3,1.6L386.3,118.2z M391.1,117.4l-0.3-1.6l2.4-0.4l0.3,1.6L391.1,117.4z
	 M395.9,116.6l-0.3-1.6l2.4-0.4l0.3,1.6L395.9,116.6z M400.7,115.7l-0.3-1.6l2.4-0.4l0.3,1.6L400.7,115.7z M405.5,114.9l-0.3-1.6
	l2.4-0.4l0.3,1.6L405.5,114.9z M410.4,114.1l-0.3-1.6l2.4-0.4l0.3,1.6L410.4,114.1z M415.2,113.3l-0.3-1.6l2.4-0.4l0.3,1.6
	L415.2,113.3z M420,112.4l-0.3-1.6l2.4-0.4l0.3,1.6L420,112.4z M424.8,111.6l-0.3-1.6l2.4-0.4l0.3,1.6L424.8,111.6z M429.6,110.8
	l-0.3-1.6l2.4-0.4l0.3,1.6L429.6,110.8z M434.4,109.9l-0.3-1.6l2.4-0.4l0.3,1.6L434.4,109.9z M439.2,109.1l-0.3-1.6l2.4-0.4l0.3,1.6
	L439.2,109.1z M444,108.3l-0.3-1.6l2.4-0.4l0.3,1.6L444,108.3z M448.9,107.4l-0.3-1.6l2.4-0.4l0.3,1.6L448.9,107.4z M453.7,106.6
	l-0.3-1.6l2.4-0.4l0.3,1.6L453.7,106.6z M458.5,105.8l-0.3-1.6l2.4-0.4l0.3,1.6L458.5,105.8z M463.3,104.9l-0.3-1.6l2.4-0.4l0.3,1.6
	L463.3,104.9z M468.1,104.1l-0.3-1.6l2.4-0.4l0.3,1.6L468.1,104.1z M472.9,103.3l-0.3-1.6l2.4-0.4l0.3,1.6L472.9,103.3z
	 M477.7,102.4l-0.3-1.6l2.4-0.4l0.3,1.6L477.7,102.4z M482.5,101.6l-0.3-1.6l2.4-0.4l0.3,1.6L482.5,101.6z M487.4,100.8l-0.3-1.6
	l2.4-0.4l0.3,1.6L487.4,100.8z M492.2,100l-0.3-1.6l2.4-0.4l0.3,1.6L492.2,100z M497,99.1l-0.5-1.6c0.7-0.2,1.4-0.4,2.1-0.8l0.8,1.5
	C498.7,98.6,497.9,98.9,497,99.1z M501.7,96.8l-1.1-1.3c0.6-0.4,1.1-0.9,1.6-1.5l1.3,1.1C503,95.8,502.4,96.3,501.7,96.8z
	 M505.1,93.1l-1.5-0.8c0.4-0.6,0.7-1.3,0.9-2l1.7,0.5C505.8,91.6,505.5,92.4,505.1,93.1z"/>
<path class="st0" d="M306.5,142.7h-1.7v1.2h1.7V142.7z"/>
<path class="st0" d="M396.9,87.1h-1.8v1.2h1.8V87.1z"/>
<path class="st0" d="M295.7,140.4h-1.8v-2.3h1.8V140.4z M295.7,135.8h-1.8v-2.3h1.8V135.8z M295.7,131.1h-1.8v-1.3
	c0-0.4,0-0.7,0-1.1l1.7,0.1c0,0.3,0,0.6,0,0.9V131.1L295.7,131.1z M296.1,126.8l-1.7-0.5c0.2-0.8,0.6-1.6,1-2.3l1.5,0.8
	C296.6,125.4,296.3,126.1,296.1,126.8z M298.2,123l-1.4-1.1c0.6-0.6,1.2-1.2,1.9-1.7l1.1,1.3C299.3,122,298.7,122.5,298.2,123z
	 M301.7,120.3l-0.8-1.5c0.8-0.4,1.6-0.7,2.4-0.9l0.5,1.6C303.1,119.7,302.4,120,301.7,120.3z M306.1,119.1l-0.3-1.6l2.4-0.4l0.3,1.6
	L306.1,119.1z M310.9,118.2l-0.3-1.6l2.4-0.4l0.3,1.6L310.9,118.2z M315.7,117.3l-0.3-1.6l2.4-0.4l0.3,1.6L315.7,117.3z
	 M320.5,116.4l-0.3-1.6l2.4-0.4l0.3,1.6L320.5,116.4z M325.3,115.5l-0.3-1.6l2.4-0.4l0.3,1.6L325.3,115.5z M330.1,114.6l-0.3-1.6
	l2.4-0.4l0.3,1.6L330.1,114.6z M334.9,113.8l-0.3-1.6l2.4-0.4l0.3,1.6L334.9,113.8z M339.7,112.9l-0.3-1.6l2.4-0.4l0.3,1.6
	L339.7,112.9z M344.5,112l-0.3-1.6l2.4-0.4l0.3,1.6L344.5,112z M349.3,111.1l-0.3-1.6l2.4-0.4l0.3,1.6L349.3,111.1z M354.1,110.2
	l-0.3-1.6l2.4-0.4l0.3,1.6L354.1,110.2z M358.9,109.3l-0.3-1.6l2.4-0.4l0.3,1.6L358.9,109.3z M363.7,108.5l-0.3-1.6l2.4-0.4l0.3,1.6
	L363.7,108.5z M368.4,107.6l-0.3-1.6l2.4-0.4l0.3,1.6L368.4,107.6z M373.2,106.7l-0.3-1.6l2.4-0.4l0.3,1.6L373.2,106.7z M378,105.8
	l-0.3-1.6l2.4-0.4l0.3,1.6L378,105.8z M382.8,104.9l-0.3-1.6l2.4-0.4l0.3,1.6L382.8,104.9z M387.7,103.9l-0.5-1.6
	c0.7-0.2,1.4-0.5,2.1-0.8l0.8,1.5C389.3,103.4,388.5,103.7,387.7,103.9z M392.3,101.6l-1.1-1.3c0.6-0.5,1.1-1,1.6-1.5l1.4,1
	C393.5,100.5,392.9,101.1,392.3,101.6z M395.5,97.7l-1.6-0.8c0.3-0.6,0.6-1.3,0.8-2l1.7,0.4C396.2,96.2,395.9,97,395.5,97.7z
	 M396.9,93l-1.7-0.1c0-0.2,0-0.5,0-0.7v-1.5h1.8v1.5C396.9,92.4,396.9,92.7,396.9,93z"/>
<path class="st0" d="M295.7,142.7h-1.8v1.2h1.8V142.7z"/>
<path class="st0" d="M283.8,87.1h-1.8v1.2h1.8V87.1z"/>
<path class="st0" d="M283.8,140.4h-1.8V138h1.8V140.4z M283.8,135.6h-1.8v-2.4h1.8V135.6z M283.8,130.9h-1.8v-2.4h1.8V130.9z
	 M283.8,126.2h-1.8v-2.4h1.8V126.2z M283.8,121.4h-1.8v-2.4h1.8V121.4z M283.8,116.7h-1.8v-2.4h1.8V116.7z M283.8,112h-1.8v-2.4h1.8
	V112z M283.8,107.2h-1.8v-2.4h1.8V107.2z M283.8,102.5h-1.8v-2.4h1.8V102.5z M283.8,97.8h-1.8v-2.4h1.8V97.8z M283.8,93h-1.8v-2.4
	h1.8V93z"/>
<path class="st0" d="M283.8,142.7h-1.8v1.2h1.8V142.7z"/>
<path class="st0" d="M61.3,66.6h-1.7v1.2h1.7V66.6z"/>
<path class="st0" d="M61.3,64.2h-1.7v-2.4h1.7V64.2z M61.3,59.4h-1.7V57h1.7V59.4z M61.3,54.6h-1.7v-2.4h1.7V54.6z"/>
<path class="st0" d="M61.3,48.7h-1.7v1.2h1.7V48.7z"/>
<path class="st0" d="M171.1,66.6h-1.7v1.2h1.7V66.6z"/>
<path class="st0" d="M171.1,64.3h-1.7v-2.3h1.7V64.3z M171.1,59.8h-1.7v-2.3h1.7V59.8z M171.1,55.2h-1.7v-2.3h1.7V55.2z"/>
<path class="st0" d="M171.1,49.5h-1.7v1.2h1.7V49.5z"/>
<path class="st0" d="M283.8,66.6h-1.8v1.2h1.8V66.6z"/>
<path class="st0" d="M283.8,64.3h-1.8v-2.3h1.8V64.3z M283.8,59.8h-1.8v-2.3h1.8V59.8z M283.8,55.2h-1.8v-2.3h1.8V55.2z"/>
<path class="st0" d="M283.8,49.5h-1.8v1.2h1.8V49.5z"/>
<path class="st0" d="M396.9,66.6h-1.8v1.2h1.8V66.6z"/>
<path class="st0" d="M396.9,64.3h-1.8v-2.3h1.8V64.3z M396.9,59.8h-1.8v-2.3h1.8V59.8z M396.9,55.2h-1.8v-2.3h1.8V55.2z"/>
<path class="st0" d="M396.9,49.5h-1.8v1.2h1.8V49.5z"/>
<path class="st0" d="M506.7,66.6h-1.8v1.2h1.8V66.6z"/>
<path class="st0" d="M506.7,64.3h-1.8v-2.3h1.8V64.3z M506.7,59.8h-1.8v-2.3h1.8V59.8z M506.7,55.2h-1.8v-2.3h1.8V55.2z"/>
<path class="st0" d="M506.7,49.5h-1.8v1.2h1.8V49.5z"/>
<path class="st0" d="M283.5,299.4h-1.7v-2.3h1.7V299.4z M283.5,294.7h-1.7v-2.3h1.7V294.7z M283.5,290.1h-1.7v-2.3h1.7V290.1z
	 M283.5,285.4h-1.7v-2.3h1.7V285.4z M283.5,280.8h-1.7v-2.3h1.7V280.8z M283.5,276.2h-1.7v-2.3h1.7V276.2z M283.5,271.5h-1.7v-2.3
	h1.7V271.5z M283.5,266.9h-1.7v-2.3h1.7V266.9z M283.5,262.2h-1.7v-2.3h1.7V262.2z M283.5,257.6h-1.7v-2.3h1.7V257.6z M283.5,252.9
	h-1.7v-2.3h1.7V252.9z M283.5,248.3h-1.7V246h1.7V248.3z M283.5,243.6h-1.7v-2.3h1.7V243.6z M283.5,239h-1.7v-2.3h1.7V239z
	 M283.5,234.4h-1.7V232h1.7V234.4z M283.5,229.7h-1.7v-2.3h1.7V229.7z M283.5,225.1h-1.7v-2.3h1.7V225.1z M283.5,220.4h-1.7v-2.3
	h1.7V220.4z"/>
<path class="st0" d="M419.3,202h-33.4v-39.6h33.4V202z M387.6,200.3h29.9V164h-29.9V200.3z"/>
<path class="st0" d="M419.3,191.6h-33.4v-29.2h33.4V191.6z M387.6,189.9h29.9V164h-29.9V189.9z"/>
<path class="st0" d="M413.3,181.2h-21.5v-8.6h21.5V181.2z M393.6,179.6h18v-5.2h-18V179.6z"/>
<path class="st0" d="M776.6,293.6l-110.1,65l0.9,1.4l110.1-65L776.6,293.6z"/>
<path class="st0" d="M680.9,293.6L680,295l110.1,65l0.9-1.4L680.9,293.6z"/>
<path class="st0" d="M762.6,234.1L680,292.7l1,1.3l82.6-58.6L762.6,234.1z"/>
<path class="st0" d="M695.1,234.1l-1,1.3l82.6,58.5l1-1.3L695.1,234.1z"/>
<path class="st0" d="M751.5,175.9l-57.7,58.5l1.3,1.1l57.7-58.5L751.5,175.9z"/>
<path class="st0" d="M706.5,175.9l-1.3,1.1l57.3,58.5l1.3-1.1L706.5,175.9z"/>
<path class="st0" d="M808,434H2v2h806V434z"/>
<path class="st0" d="M770.1,176.1h-82.6v1.7h82.6V176.1z"/>
<path class="st0" d="M687.5,181.4c2.9,0,5.2-2.2,5.2-5c0-2.7-2.4-5-5.2-5s-5.2,2.2-5.2,5C682.2,179.2,684.6,181.4,687.5,181.4z"/>
<path class="st0" d="M687.5,182.2c-3.4,0-6.1-2.6-6.1-5.8c0-3.2,2.7-5.8,6.1-5.8s6.1,2.6,6.1,5.8
	C693.6,179.6,690.9,182.2,687.5,182.2z M687.5,172.3c-2.4,0-4.4,1.9-4.4,4.1c0,2.3,2,4.1,4.4,4.1s4.4-1.9,4.4-4.1
	C691.9,174.1,689.9,172.3,687.5,172.3z"/>
<path class="st0" d="M770.1,181.4c2.9,0,5.2-2.2,5.2-5c0-2.7-2.4-5-5.2-5s-5.2,2.2-5.2,5C764.9,179.2,767.2,181.4,770.1,181.4z"/>
<path class="st0" d="M770.1,182.2c-3.4,0-6.1-2.6-6.1-5.8c0-3.2,2.7-5.8,6.1-5.8s6.1,2.6,6.1,5.8
	C776.3,179.6,773.5,182.2,770.1,182.2z M770.1,172.3c-2.4,0-4.4,1.9-4.4,4.1c0,2.3,2,4.1,4.4,4.1s4.4-1.9,4.4-4.1
	C774.5,174.1,772.5,172.3,770.1,172.3z"/>
<path class="st0" d="M808.1,435.7H650l0.2-1l54.9-258.6l47.8,0l0.1,0.7L808.1,435.7z M652.1,434h153.8l-54.4-256.3l-44.9,0
	L652.1,434z"/>
<path class="st0" d="M624.5,201.6c-0.5,0-1,0-1.5,0l0-1.7c0.8,0,1.6,0,2.4,0l0,1.7C625.1,201.6,624.8,201.6,624.5,201.6z
	 M627.9,201.6l-0.1-1.7c0.8,0,1.6-0.1,2.4-0.1l0.1,1.7C629.6,201.5,628.7,201.5,627.9,201.6z M620.5,201.6c-0.8,0-1.7-0.1-2.5-0.2
	l0.1-1.7c0.8,0.1,1.6,0.1,2.4,0.1L620.5,201.6z M632.8,201.2l-0.2-1.6c0.8-0.1,1.6-0.2,2.4-0.3l0.2,1.6
	C634.5,201.1,633.7,201.2,632.8,201.2z M615.5,201.2c-0.8-0.1-1.6-0.2-2.5-0.3l0.2-1.6c0.8,0.1,1.6,0.2,2.4,0.3L615.5,201.2z
	 M637.7,200.6l-0.3-1.6c0.8-0.1,1.6-0.3,2.4-0.4l0.3,1.6C639.4,200.3,638.6,200.5,637.7,200.6z M610.6,200.5
	c-0.8-0.1-1.6-0.3-2.4-0.4l0.4-1.6c0.8,0.2,1.6,0.3,2.4,0.4L610.6,200.5z M642.6,199.7l-0.4-1.6c0.8-0.2,1.6-0.3,2.4-0.5l0.4,1.6
	C644.2,199.4,643.4,199.6,642.6,199.7z M605.8,199.6c-0.8-0.2-1.6-0.4-2.4-0.6l0.5-1.6c0.8,0.2,1.6,0.4,2.3,0.6L605.8,199.6z
	 M647.4,198.6l-0.5-1.6c0.8-0.2,1.6-0.4,2.3-0.7l0.5,1.6C649,198.1,648.2,198.4,647.4,198.6z M601,198.3c-0.8-0.2-1.6-0.5-2.4-0.7
	l0.6-1.6c0.8,0.2,1.5,0.5,2.3,0.7L601,198.3z M652.1,197.2l-0.6-1.6c0.8-0.2,1.5-0.5,2.3-0.8l0.6,1.6
	C653.7,196.7,652.9,196.9,652.1,197.2z M596.3,196.8c-0.8-0.3-1.5-0.5-2.3-0.8l0.6-1.5c0.8,0.3,1.5,0.6,2.3,0.8L596.3,196.8z
	 M656.8,195.6l-0.6-1.5c0.7-0.3,1.5-0.6,2.2-0.9l0.7,1.5C658.3,195,657.5,195.3,656.8,195.6z M591.7,195.1c-0.7-0.3-1.5-0.6-2.3-1
	l0.7-1.5c0.7,0.3,1.5,0.6,2.2,0.9L591.7,195.1z M661.3,193.7l-0.7-1.5c0.7-0.3,1.5-0.6,2.2-1l0.8,1.5
	C662.8,193.1,662.1,193.4,661.3,193.7z M587.2,193.2c-0.7-0.3-1.5-0.7-2.2-1.1l0.8-1.5c0.7,0.4,1.4,0.7,2.2,1L587.2,193.2z
	 M665.8,191.7l-0.8-1.5c0.7-0.4,1.4-0.7,2.1-1.1l0.8,1.5C667.2,190.9,666.5,191.3,665.8,191.7z M582.8,191c-0.7-0.4-1.4-0.8-2.1-1.2
	l0.9-1.4c0.7,0.4,1.4,0.8,2.1,1.1L582.8,191z M670.1,189.4l-0.9-1.4c0.7-0.4,1.4-0.8,2.1-1.2l0.9,1.4
	C671.5,188.6,670.8,189,670.1,189.4z M578.6,188.6c-0.7-0.4-1.4-0.8-2.1-1.3l1-1.4c0.7,0.4,1.4,0.8,2.1,1.2L578.6,188.6z M674.3,187
	l-0.9-1.4c0.7-0.4,1.4-0.8,2-1.3l1,1.4C675.7,186.2,675,186.6,674.3,187z M574.5,186.1c-0.7-0.4-1.4-0.9-2-1.3l1-1.4
	c0.7,0.4,1.3,0.9,2,1.3L574.5,186.1z M678.4,184.4l-1-1.4c0.7-0.4,1.3-0.9,2-1.3l1,1.3C679.8,183.5,679.1,183.9,678.4,184.4z
	 M570.4,183.3c-0.7-0.5-1.3-0.9-2-1.4l1.1-1.3c0.6,0.5,1.3,0.9,1.9,1.4L570.4,183.3z M682.4,181.6l-1.1-1.3c0.6-0.5,1.3-1,1.9-1.4
	l1.1,1.3C683.7,180.6,683.1,181.1,682.4,181.6z M566.5,180.5c-0.6-0.5-1.3-1-1.9-1.5l1.1-1.3c0.6,0.5,1.3,1,1.9,1.5L566.5,180.5z
	 M686.3,178.6l-1.2-1.3c1.2-1,1.8-1.5,1.8-1.5l1.2,1.2C688.1,177,687.5,177.6,686.3,178.6z"/>
<path class="st0" d="M541.6,177.3h-2.4v-1.7h2.4V177.3z M536.7,177.3h-2.4v-1.7h2.4V177.3z M531.8,177.3h-2.5v-1.7h2.5V177.3z
	 M526.9,177.3h-2.5v-1.7h2.5V177.3z M522,177.3h-2.5v-1.7h2.5V177.3z M517.1,177.3h-2.5v-1.7h2.5V177.3z M512.2,177.3h-2.4v-1.7h2.4
	V177.3z M507.3,177.3h-2.5v-1.7h2.5V177.3z M502.4,177.3h-2.4v-1.7h2.4V177.3z M497.5,177.3H495v-1.7h2.4V177.3z M492.6,177.3h-2.5
	v-1.7h2.5V177.3z M487.7,177.3h-2.4v-1.7h2.4V177.3z M482.8,177.3h-2.4v-1.7h2.4V177.3z M477.9,177.3h-2.5v-1.7h2.5V177.3z
	 M473,177.3h-2.5v-1.7h2.5V177.3z M468.1,177.3h-2.4v-1.7h2.4V177.3z M463.2,177.3h-2.5v-1.7h2.5V177.3z M458.3,177.3h-2.4v-1.7h2.4
	V177.3z M453.4,177.3h-2.4v-1.7h2.4V177.3z M448.5,177.3H446v-1.7h2.4V177.3z M443.6,177.3h-2.5v-1.7h2.5V177.3z M438.7,177.3h-2.5
	v-1.7h2.5V177.3z M433.8,177.3h-2.4v-1.7h2.4V177.3z M428.9,177.3h-2.5v-1.7h2.5V177.3z M424,177.3h-2.4v-1.7h2.4V177.3z
	 M419.1,177.3h-0.7v-1.7h0.7V177.3z"/>
<path class="st0" d="M383.2,229.9h-1.1v-1.7h1.1c0.4,0,0.9,0,1.3,0l0.1,1.7C384.2,229.9,383.7,229.9,383.2,229.9z M379.7,229.9h-2.4
	v-1.7h2.4V229.9z M374.8,229.9h-2.5v-1.7h2.5V229.9z M369.9,229.9h-2.5v-1.7h2.5V229.9z M365,229.9h-2.4v-1.7h2.4V229.9z
	 M360.1,229.9h-2.5v-1.7h2.5V229.9z M355.2,229.9h-2.5v-1.7h2.5V229.9z M350.3,229.9h-2.4v-1.7h2.4V229.9z M345.4,229.9h-2.4v-1.7
	h2.4V229.9z M340.5,229.9H338v-1.7h2.5V229.9z M335.6,229.9h-2.4v-1.7h2.4V229.9z M330.7,229.9h-2.5v-1.7h2.5V229.9z M325.8,229.9
	h-2.5v-1.7h2.5V229.9z M320.9,229.9h-2.4v-1.7h2.4V229.9z M316,229.9h-2.4v-1.7h2.4V229.9z M311.1,229.9h-2.4v-1.7h2.4V229.9z
	 M306.2,229.9h-2.5v-1.7h2.5V229.9z M301.3,229.9h-2.4v-1.7h2.4V229.9z M296.4,229.9H294v-1.7h2.5V229.9z M291.5,229.9h-2.5v-1.7
	h2.5V229.9z M286.6,229.9h-2.4v-1.7h2.4V229.9z M387.2,229.6l-0.3-1.6c0.8-0.1,1.5-0.3,2.3-0.6l0.6,1.6
	C388.9,229.2,388,229.4,387.2,229.6z M392,228l-0.8-1.5c0.7-0.3,1.4-0.7,2-1.1l1,1.4C393.5,227.3,392.8,227.7,392,228z M396.3,225.4
	l-1.1-1.3c0.6-0.5,1.2-1,1.7-1.5l1.3,1.1C397.6,224.3,397,224.9,396.3,225.4z M399.7,221.8l-1.4-1c0.4-0.6,0.9-1.2,1.2-1.9l1.5,0.8
	C400.7,220.5,400.2,221.2,399.7,221.8z M402.1,217.5l-1.6-0.6c0.3-0.7,0.5-1.4,0.7-2.1l1.7,0.4C402.7,216,402.4,216.8,402.1,217.5z
	 M403.3,212.8l-1.7-0.2c0.1-0.6,0.1-1.3,0.1-1.9v-0.4h1.8v0.4C403.4,211.5,403.4,212.1,403.3,212.8z M403.4,208.1h-1.8v-2.3h1.8
	V208.1z M403.4,203.5h-1.8v-2.3h1.8V203.5z"/>
<path class="st0" d="M729.7,131.8h-1.8v45.2h1.8V131.8z"/>
<rect x="357.8" y="0.4" class="st5" width="36.3" height="36.3"/>
<rect x="670" y="124.6" class="st5" width="36.3" height="36.3"/>
<path class="st0" d="M374.5,16.9l-2.2,1.6V15l2.8-2.1h3.2v11.2h-3.8V16.9z"/>
<rect x="198.8" y="165.4" class="st5" width="36.3" height="36.3"/>
<path class="st0" d="M212,187.2l1.3-1.2c0.4-0.3,0.8-0.7,1.2-1c0.8-0.7,1.4-1.2,1.7-1.6c0.4-0.4,0.5-0.8,0.5-1.1
	c0-0.3-0.1-0.5-0.4-0.7c-0.2-0.2-0.6-0.3-1.1-0.3c-0.5,0-1,0.1-1.5,0.3c-0.5,0.2-1,0.5-1.4,0.8v-3.6c0.5-0.3,1.1-0.6,1.8-0.8
	c0.7-0.2,1.5-0.3,2.2-0.3c0.9,0,1.6,0.2,2.3,0.5c0.6,0.3,1.1,0.7,1.5,1.3c0.3,0.5,0.5,1.1,0.5,1.8c0,0.9-0.2,1.7-0.5,2.3
	c-0.3,0.6-0.9,1.3-1.6,1.9l-1,0.8h3.4v2.9H212V187.2z"/>
<rect x="426.8" y="183.4" class="st5" width="36.3" height="36.3"/>
<path class="st0" d="M443.9,207.4c-0.7,0-1.5-0.1-2.1-0.2c-0.7-0.1-1.2-0.3-1.7-0.6v-2.8c1.1,0.5,2.2,0.8,3.3,0.8
	c1.2,0,1.8-0.3,1.8-0.9c0-0.3-0.1-0.5-0.4-0.6c-0.3-0.1-0.7-0.2-1.4-0.2h-1.7v-2.8h1.6c0.5,0,0.9-0.1,1.2-0.2
	c0.3-0.1,0.4-0.3,0.4-0.6c0-0.3-0.1-0.5-0.4-0.6c-0.2-0.1-0.6-0.2-1-0.2c-0.6,0-1.2,0.1-1.8,0.2c-0.5,0.2-1,0.4-1.5,0.7v-2.9
	c0.5-0.2,1.1-0.4,1.7-0.6c0.7-0.1,1.3-0.2,2-0.2c1.6,0,2.8,0.3,3.6,0.9c0.8,0.6,1.2,1.5,1.2,2.5c0,0.4-0.1,0.8-0.2,1.2
	c-0.2,0.4-0.4,0.8-0.7,1.1c0.5,0.3,0.8,0.7,1,1.1c0.2,0.4,0.3,0.8,0.3,1.3c0,1.1-0.4,2-1.2,2.6C446.9,207.1,445.7,207.4,443.9,207.4
	z"/>
<g>
	<path d="M691.3,135.9v9.3h1v2.4h-1v2.5h-3.6v-2.5h-4.2v-2.4l3.1-9.3H691.3z M687.8,145.2v-6.1l-1.6,6.1H687.8z"/>
</g>
</svg>
