<?xml version="1.0" encoding="UTF-8"?><svg id="Layer_1" xmlns="http://www.w3.org/2000/svg" viewBox="0 0 2042.77 650.63"><defs><style>.cls-1{fill:#fff;}</style></defs><g id="uuid-79819b40-5403-4563-b3a4-7b3356ecd3cb"><path id="uuid-e5ea7389-6698-4e61-8f36-ed957cfa0364" class="cls-1" d="m887.67,583.93c-1.15,1.69-3.98,6.34-3.96,12.88,0,1.51.04,6.93,3.63,12.22,5.19,7.65,13.73,9.03,15.28,9.25,23.13,0,93.49,0,158.41-.02,41.93,0,83.87-.1,125.8-.06.38,0,5.38,0,11.76-1.18,5.46-1.02,8.16-2.2,9.41-2.81,2.67-1.28,4.89-2.83,6.28-3.8.62-.44,2.02-1.43,4.29-3.3,8.21-6.77,12.94-12.74,13.6-13.65.08-.11.6-.83,1.34-1.79.48-.61.84-1.06.86-1.08,2.12-2.62,162.51-239.94,168.38-248.03.85-1.17,4.33-5.96,5.72-12.99.76-3.82,2.19-11.02-1.98-16.95-5.69-8.11-17.25-7.33-18.06-7.27-152.56-3.1-264.06-2.67-284.7,0-15.57,2.01-27.39,9.23-27.39,9.23-9.88,6.02-15.69,13.19-17.72,15.99-10.49,14.44-84.27,126.45-170.95,253.37h0Z"/><path id="uuid-94331c35-6f1f-4da9-bec7-46b55cd4ab05" class="cls-1" d="m363.05,583.43c-2.99,6.72-3,13.65-3,13.65,0,.88.04,1.52.06,1.76.17,2.4.86,6.47,3.57,10.46,5.19,7.65,13.73,9.03,15.28,9.25,23.13,0,99.88,0,164.81-.02,41.93,0,233.87-.1,275.8-.06.38,0,5.38,0,11.76-1.18,5.46-1.02,8.16-2.2,9.41-2.81,2.67-1.28,4.89-2.83,6.28-3.8.84-.58,2.18-1.56,4.29-3.3,0,0,8.07-6.67,14.36-14.57.44-.56.85-1.11.85-1.11,0,0,.3-.41.59-.83.95-1.38,161.16-238.08,168.38-248.03.85-1.17,4.33-5.96,5.72-12.99.76-3.82,2.67-11.71-1.5-17.64-2.41-3.43-5.98-5.42-5.98-5.42-.66-.36-1.77-.95-3.34-1.32-1.22-.29-2.15-.31-4.35-.33-2.78-.02-4.17-.03-4.81,0-4.79.19-375.74-6.46-439.05.82-5.63.65-16.49,2.29-27.76,9.07-13.14,7.92-20.03,18.73-22.26,22.21,0,0-8.24,12.83-73.31,105.49,0,0-90.6,129.01-95.81,140.72v-.02Z"/><path id="uuid-8b0f2e08-f136-4d20-97cd-403c625cc972" class="cls-1" d="m228.07,255.36c-1.15,1.69-3.98,6.34-3.96,12.88,0,1.51.04,6.93,3.63,12.22,5.19,7.65,13.73,9.03,15.28,9.25,46.25,0,271.44-.02,274.21-.08,1.41-.03,2.68-.17,2.68-.17.76-.08,1.36-.17,2.55-.36,1.41-.22,2.07-.35,2.37-.42,0,0,.69-.14,1.41-.33,7.28-1.84,15.07-6.26,15.07-6.26,2.52-1.48,6.87-4.04,11.85-8.45,4.21-3.72,6.94-7.04,8.05-8.44,1.55-1.95,2.57-3.47,2.77-3.76,2.64-3.88,143.71-205.72,158.86-231.01.73-1.22,2.86-4.87,3.3-9.91.18-2.11.73-8.38-3.63-13.87-4.51-5.68-11.07-6.5-12.44-6.65h-282.72c-4.45.32-12.21,1.45-20.59,5.99-9.86,5.34-15.44,12.84-17.72,15.99-10.49,14.44-74.27,106.45-160.95,233.37h-.02Z"/><path id="uuid-6b3c8456-d35d-4808-8cd8-4fda8f12548b" class="cls-1" d="m1109.07,255.36c-1.15,1.69-3.98,6.34-3.96,12.88,0,1.51.04,6.93,3.63,12.22,5.19,7.65,13.73,9.03,15.28,9.25,46.25,0,281.44-.02,284.21-.08,1.41-.03,2.68-.17,2.68-.17.76-.08,1.36-.17,2.55-.36,1.41-.22,2.07-.35,2.37-.42,0,0,.69-.14,1.41-.33,7.28-1.84,15.07-6.26,15.07-6.26,2.52-1.48,6.87-4.04,11.85-8.45,4.21-3.72,6.94-7.04,8.05-8.44,1.55-1.95,2.57-3.47,2.77-3.76,2.64-3.88,143.71-205.72,158.86-231.01.73-1.22,2.86-4.87,3.3-9.91.18-2.11.73-8.38-3.63-13.87-4.51-5.68-11.07-6.5-12.44-6.65h-292.72c-4.45.32-12.21,1.45-20.59,5.99-9.86,5.34-15.44,12.84-17.72,15.99-10.49,14.44-74.27,106.45-160.95,233.37h-.02Z"/><path id="uuid-76843058-e4da-4b5e-963f-a87eb2ff4b56" class="cls-1" d="m584.07,255.36c-1.15,1.69-3.98,6.34-3.96,12.88,0,1.51.04,6.93,3.63,12.22,5.19,7.65,13.73,9.03,15.28,9.25,46.25,0,441.44-.02,444.21-.08,1.41-.03,2.68-.17,2.68-.17.76-.08,1.36-.17,2.55-.36,1.41-.22,2.07-.35,2.37-.42,0,0,.69-.14,1.41-.33,7.28-1.84,15.07-6.26,15.07-6.26,2.52-1.48,6.87-4.04,11.85-8.45,4.21-3.72,6.94-7.04,8.05-8.44,1.55-1.95,2.57-3.47,2.77-3.76,2.64-3.88,143.71-205.72,158.86-231.01.73-1.22,2.86-4.87,3.3-9.91.18-2.11.73-8.38-3.63-13.87-4.51-5.68-11.07-6.5-12.44-6.65h-452.72c-4.45.32-12.21,1.45-20.59,5.99-9.86,5.34-15.44,12.84-17.72,15.99-10.49,14.44-74.27,106.45-160.95,233.37h-.02Z"/><path id="uuid-0d5d8f59-f8b8-4555-b90a-35bdbb0f5d12" class="cls-1" d="m3.96,584.2c-1.15,1.69-3.98,6.34-3.96,12.88,0,.15,0,.84.06,1.75.29,4.24,1.62,8.52,3.32,11.24,4.46,7.16,14.53,8.37,15.53,8.48,46.25,0,271.44-.02,274.21-.08,1.41-.03,2.68-.17,2.68-.17,1.64-.26,3.28-.52,4.92-.77,1.27-.33,3.09-.82,5.25-1.51,3.06-.98,6.44-2.06,10.37-4.04,2.46-1.24,4.15-2.35,7.53-4.56,3.49-2.28,5.23-3.43,6.92-4.85,3.41-2.88,5.58-5.66,9.03-10.1,1.93-2.48,3.26-4.38,3.36-4.51,104.94-149.04,137.09-196.93,157.06-229.1,2.08-3.35,4.97-7.71,10.22-16.79,5.4-9.33,7.63-13.98,7.34-19.98-.1-2.03-.35-6.25-3.22-10.24-5.16-7.19-14.4-7.51-15.8-7.54-151.45-1.56-261.91-1.77-274.68-.72-8.87.73-16.76,3.61-16.76,3.61-2.26.82-7.76,2.98-14.71,7.66-9.97,6.72-16.24,13.94-17.72,15.99-10.49,14.44-84.27,126.45-170.95,253.37v-.02Z"/><path class="cls-1" d="m1646.28,62.7l-118.68,179.45c-.69,1.73-5.71,15.04,1.84,28.49,8.11,14.43,23.68,16.47,25.24,16.65h238.9c.87-.03,18.74-1.04,27.25-16.73,7.54-13.9,1.4-27.61.72-29.06-39.41-59.6-78.83-119.19-118.24-178.79-.77-1.12-10.86-15.33-28.98-15.08-17.53.24-27.17,13.8-28.05,15.08h0Z"/><path class="cls-1" d="m1466.17,372.79l163.38,250.72c2.55,4.35,8.2,12.66,18.61,19.05,12.53,7.69,24.7,8.16,29.75,8.06h329.04c12.99.03,25.01-6.92,31.38-18.17,9.74-17.21.51-34.36,0-35.26-57.72-87.37-115.43-174.74-173.15-262.11-2.32-3.32-6.89-8.95-14.53-13.33-9.32-5.35-18.16-5.96-22.35-5.97h-337.13c-2.1.16-18.03,1.63-27.08,15.22-8.09,12.14-7.36,28.95,2.09,41.8h-.01Z"/><path class="cls-1" d="m1404.84,423.47c5.45-11.18,16.89-18.22,29.23-18,11.94.22,22.81,7.19,28.07,18,39.74,60.22,79.49,120.44,119.23,180.66.51,1.41,5.98,17.38-4.29,31.87-10.42,14.71-27.65,14.65-29.06,14.61h-227.23c-13.93.22-26.73-7.33-32.86-19.4-8.29-16.34.08-32.18.83-33.52,38.7-58.07,77.39-116.15,116.09-174.22h0Z"/></g></svg>