<?xml version="1.0" encoding="utf-8"?>
<!-- Generator: Adobe Illustrator 27.3.1, SVG Export Plug-In . SVG Version: 6.00 Build 0)  -->
<svg version="1.1" id="Layer_1" xmlns="http://www.w3.org/2000/svg" xmlns:xlink="http://www.w3.org/1999/xlink" x="0px" y="0px"
	 viewBox="0 0 2045 920.6" style="enable-background:new 0 0 2045 920.6;" xml:space="preserve">
<style type="text/css">
	.st0{fill:#FFFFFF;}
	.st1{enable-background:new    ;}
</style>
<g id="uuid-79819b40-5403-4563-b3a4-7b3356ecd3cb">
	<path id="uuid-e5ea7389-6698-4e61-8f36-ed957cfa0364" class="st0" d="M889.7,586.1c-1.2,1.7-4,6.3-4,12.9c0,1.5,0,6.9,3.6,12.2
		c5.2,7.7,13.7,9,15.3,9.2c23.1,0,93.5,0,158.4,0c41.9,0,83.9-0.1,125.8-0.1c0.4,0,5.4,0,11.8-1.2c5.5-1,8.2-2.2,9.4-2.8
		c2.7-1.3,4.9-2.8,6.3-3.8c0.6-0.4,2-1.4,4.3-3.3c8.2-6.8,12.9-12.7,13.6-13.7c0.1-0.1,0.6-0.8,1.3-1.8c0.5-0.6,0.8-1.1,0.9-1.1
		c2.1-2.6,162.5-239.9,168.4-248c0.8-1.2,4.3-6,5.7-13c0.8-3.8,2.2-11-2-17c-5.7-8.1-17.2-7.3-18.1-7.3
		c-152.6-3.1-264.1-2.7-284.7,0c-15.6,2-27.4,9.2-27.4,9.2c-9.9,6-15.7,13.2-17.7,16C1050.1,347.2,976.3,459.2,889.7,586.1
		L889.7,586.1z"/>
	<path id="uuid-94331c35-6f1f-4da9-bec7-46b55cd4ab05" class="st0" d="M365,585.6c-3,6.7-3,13.7-3,13.7c0,0.9,0,1.5,0.1,1.8
		c0.2,2.4,0.9,6.5,3.6,10.5c5.2,7.7,13.7,9,15.3,9.2c23.1,0,99.9,0,164.8,0c41.9,0,233.9-0.1,275.8-0.1c0.4,0,5.4,0,11.8-1.2
		c5.5-1,8.2-2.2,9.4-2.8c2.7-1.3,4.9-2.8,6.3-3.8c0.8-0.6,2.2-1.6,4.3-3.3c0,0,8.1-6.7,14.4-14.6c0.4-0.6,0.8-1.1,0.8-1.1
		s0.3-0.4,0.6-0.8c1-1.4,161.2-238.1,168.4-248c0.8-1.2,4.3-6,5.7-13c0.8-3.8,2.7-11.7-1.5-17.6c-2.4-3.4-6-5.4-6-5.4
		c-0.7-0.4-1.8-1-3.3-1.3c-1.2-0.3-2.2-0.3-4.3-0.3c-2.8,0-4.2,0-4.8,0c-4.8,0.2-375.7-6.5-439,0.8c-5.6,0.6-16.5,2.3-27.8,9.1
		c-13.1,7.9-20,18.7-22.3,22.2c0,0-8.2,12.8-73.3,105.5C460.9,444.9,370.3,574,365,585.6L365,585.6z"/>
	<path id="uuid-8b0f2e08-f136-4d20-97cd-403c625cc972" class="st0" d="M230.1,257.6c-1.1,1.7-4,6.3-4,12.9c0,1.5,0,6.9,3.6,12.2
		c5.2,7.6,13.7,9,15.3,9.2c46.3,0,271.4,0,274.2-0.1c1.4,0,2.7-0.2,2.7-0.2c0.8-0.1,1.4-0.2,2.5-0.4c1.4-0.2,2.1-0.4,2.4-0.4
		c0,0,0.7-0.1,1.4-0.3c7.3-1.8,15.1-6.3,15.1-6.3c2.5-1.5,6.9-4,11.8-8.5c4.2-3.7,6.9-7,8-8.4c1.5-2,2.6-3.5,2.8-3.8
		c2.6-3.9,143.7-205.7,158.9-231c0.7-1.2,2.9-4.9,3.3-9.9c0.2-2.1,0.7-8.4-3.6-13.9c-4.5-5.7-11.1-6.5-12.4-6.7H429.3
		c-4.5,0.3-12.2,1.5-20.6,6c-9.9,5.3-15.4,12.8-17.7,16C380.5,38.6,316.8,130.6,230.1,257.6L230.1,257.6z"/>
	<path id="uuid-6b3c8456-d35d-4808-8cd8-4fda8f12548b" class="st0" d="M1111.1,257.6c-1.2,1.7-4,6.3-4,12.9c0,1.5,0,6.9,3.6,12.2
		c5.2,7.6,13.7,9,15.3,9.2c46.2,0,281.4,0,284.2-0.1c1.4,0,2.7-0.2,2.7-0.2c0.8-0.1,1.4-0.2,2.6-0.4c1.4-0.2,2.1-0.4,2.4-0.4
		c0,0,0.7-0.1,1.4-0.3c7.3-1.8,15.1-6.3,15.1-6.3c2.5-1.5,6.9-4,11.8-8.5c4.2-3.7,6.9-7,8.1-8.4c1.6-2,2.6-3.5,2.8-3.8
		c2.6-3.9,143.7-205.7,158.9-231c0.7-1.2,2.9-4.9,3.3-9.9c0.2-2.1,0.7-8.4-3.6-13.9c-4.5-5.7-11.1-6.5-12.4-6.7h-292.7
		c-4.4,0.3-12.2,1.5-20.6,6c-9.9,5.3-15.4,12.8-17.7,16C1261.6,38.6,1197.8,130.6,1111.1,257.6L1111.1,257.6z"/>
	<path id="uuid-76843058-e4da-4b5e-963f-a87eb2ff4b56" class="st0" d="M586.1,257.6c-1.2,1.7-4,6.3-4,12.9c0,1.5,0,6.9,3.6,12.2
		c5.2,7.6,13.7,9,15.3,9.2c46.2,0,441.4,0,444.2-0.1c1.4,0,2.7-0.2,2.7-0.2c0.8-0.1,1.4-0.2,2.6-0.4c1.4-0.2,2.1-0.4,2.4-0.4
		c0,0,0.7-0.1,1.4-0.3c7.3-1.8,15.1-6.3,15.1-6.3c2.5-1.5,6.9-4,11.8-8.5c4.2-3.7,6.9-7,8.1-8.4c1.6-2,2.6-3.5,2.8-3.8
		c2.6-3.9,143.7-205.7,158.9-231c0.7-1.2,2.9-4.9,3.3-9.9c0.2-2.1,0.7-8.4-3.6-13.9c-4.5-5.7-11.1-6.5-12.4-6.7H785.4
		c-4.5,0.3-12.2,1.5-20.6,6c-9.9,5.3-15.4,12.8-17.7,16C736.6,38.6,672.8,130.6,586.1,257.6L586.1,257.6z"/>
	<path id="uuid-0d5d8f59-f8b8-4555-b90a-35bdbb0f5d12" class="st0" d="M6,586.4c-1.2,1.7-4,6.3-4,12.9c0,0.2,0,0.8,0.1,1.8
		c0.3,4.2,1.6,8.5,3.3,11.2c4.5,7.2,14.5,8.4,15.5,8.5c46.3,0,271.4,0,274.2-0.1c1.4,0,2.7-0.2,2.7-0.2c1.6-0.3,3.3-0.5,4.9-0.8
		c1.3-0.3,3.1-0.8,5.2-1.5c3.1-1,6.4-2.1,10.4-4c2.5-1.2,4.1-2.3,7.5-4.6c3.5-2.3,5.2-3.4,6.9-4.8c3.4-2.9,5.6-5.7,9-10.1
		c1.9-2.5,3.3-4.4,3.4-4.5c104.9-149,137.1-196.9,157.1-229.1c2.1-3.4,5-7.7,10.2-16.8c5.4-9.3,7.6-14,7.3-20
		c-0.1-2-0.3-6.2-3.2-10.2c-5.2-7.2-14.4-7.5-15.8-7.5c-151.5-1.6-261.9-1.8-274.7-0.7c-8.9,0.7-16.8,3.6-16.8,3.6
		c-2.3,0.8-7.8,3-14.7,7.7c-10,6.7-16.2,13.9-17.7,16C166.4,347.5,92.6,459.5,6,586.4L6,586.4z"/>
	<path class="st0" d="M1648.3,64.9l-118.7,179.4c-0.7,1.7-5.7,15,1.8,28.5c8.1,14.4,23.7,16.5,25.2,16.6h238.9
		c0.9,0,18.7-1,27.2-16.7c7.5-13.9,1.4-27.6,0.7-29.1c-39.4-59.6-78.8-119.2-118.2-178.8c-0.8-1.1-10.9-15.3-29-15.1
		C1658.8,50.1,1649.2,63.6,1648.3,64.9L1648.3,64.9z"/>
	<path class="st0" d="M1468.2,375l163.4,250.7c2.6,4.3,8.2,12.7,18.6,19c12.5,7.7,24.7,8.2,29.8,8.1h329c13,0,25-6.9,31.4-18.2
		c9.7-17.2,0.5-34.4,0-35.3c-57.7-87.4-115.4-174.7-173.2-262.1c-2.3-3.3-6.9-9-14.5-13.3c-9.3-5.4-18.2-6-22.3-6h-337.1
		c-2.1,0.2-18,1.6-27.1,15.2C1458,345.4,1458.7,362.2,1468.2,375L1468.2,375z"/>
	<path class="st0" d="M1406.8,425.7c5.4-11.2,16.9-18.2,29.2-18c11.9,0.2,22.8,7.2,28.1,18c39.7,60.2,79.5,120.4,119.2,180.7
		c0.5,1.4,6,17.4-4.3,31.9c-10.4,14.7-27.7,14.7-29.1,14.6h-227.2c-13.9,0.2-26.7-7.3-32.9-19.4c-8.3-16.3,0.1-32.2,0.8-33.5
		C1329.5,541.8,1368.1,483.7,1406.8,425.7L1406.8,425.7z"/>
</g>
<g id="uuid-1cd5057f-1fdc-4cf0-9ad3-2811e24a4aec">
	<g>
		<g class="st1">
			<path class="st0" d="M28.7,862.3v-154h62c15.8,0,28.3,3.3,37.5,9.9c9.2,6.6,13.8,16.4,13.8,29.3c0,12.8-4.4,22.4-13.3,28.8
				c-8.9,6.5-20.4,9.7-34.6,9.7l3.7-4.4c17.2,0,30.1,3.4,38.9,10.1c8.8,6.7,13.2,16.6,13.2,29.7c0,13.1-4.5,23.1-13.6,30.2
				c-9.1,7.1-22.9,10.7-41.4,10.7H28.7z M39.9,779.6h50.6c12.8,0,22.6-2.6,29.6-7.8c7-5.2,10.5-12.9,10.5-23
				c0-10.3-3.5-18-10.5-23.2c-7-5.2-16.8-7.8-29.6-7.8H39.9V779.6z M39.9,852.9h55.2c14.2,0,25-2.6,32.4-7.8
				c7.4-5.2,11.1-13.3,11.1-24.3c0-11.1-3.7-19.2-11.1-24.3c-7.4-5.1-18.2-7.6-32.4-7.6H39.9V852.9z"/>
			<path class="st0" d="M259.7,863.4c-11.4,0-22-1.9-31.8-5.8c-9.8-3.9-18.3-9.4-25.5-16.5c-7.3-7.1-12.9-15.4-16.8-24.9
				s-5.9-19.8-5.9-30.9c0-11.1,2-21.5,5.9-30.9s9.6-17.7,16.8-24.9c7.3-7.1,15.8-12.6,25.5-16.5c9.8-3.9,20.3-5.8,31.8-5.8
				c11.4,0,22,1.9,31.8,5.8c9.8,3.9,18.2,9.3,25.4,16.4c7.2,7,12.8,15.3,16.8,24.8c4,9.5,6,19.8,6,31.1c0,11.3-2,21.7-6,31.1
				c-4,9.5-9.6,17.7-16.8,24.8c-7.2,7-15.7,12.5-25.4,16.4C281.8,861.5,271.2,863.4,259.7,863.4z M259.7,853.1
				c9.8,0,18.9-1.7,27.3-5.1c8.4-3.4,15.6-8.1,21.8-14.3c6.2-6.2,11-13.3,14.4-21.6c3.4-8.2,5.2-17.2,5.2-26.8
				c0-9.8-1.7-18.8-5.2-27c-3.4-8.1-8.2-15.3-14.4-21.5c-6.2-6.2-13.4-10.9-21.8-14.3c-8.4-3.4-17.5-5.1-27.3-5.1
				c-9.8,0-18.9,1.7-27.3,5.1c-8.4,3.4-15.7,8.1-21.9,14.3c-6.2,6.2-11.1,13.3-14.5,21.5c-3.4,8.1-5.2,17.1-5.2,27
				c0,9.7,1.7,18.6,5.2,26.8c3.4,8.2,8.3,15.4,14.5,21.6c6.2,6.2,13.5,10.9,21.9,14.3C240.8,851.4,249.9,853.1,259.7,853.1z"/>
			<path class="st0" d="M447.4,863.4c-11.4,0-22-1.9-31.8-5.8c-9.8-3.9-18.2-9.3-25.4-16.4c-7.2-7-12.8-15.3-16.7-24.8
				s-5.9-19.8-5.9-31.1c0-11.3,2-21.7,5.9-31.1s9.6-17.7,16.8-24.8c7.3-7,15.7-12.5,25.4-16.4c9.7-3.9,20.2-5.8,31.7-5.8
				c10.9,0,21,1.8,30.5,5.3c9.5,3.5,17.6,8.9,24.3,16.1l-7,7.3c-6.6-6.5-13.9-11.1-21.9-14c-8-2.9-16.5-4.3-25.4-4.3
				c-9.8,0-19,1.7-27.4,5.1c-8.4,3.4-15.8,8.1-22,14.3c-6.2,6.2-11.1,13.3-14.5,21.6c-3.4,8.2-5.2,17.2-5.2,26.8s1.7,18.6,5.2,26.8
				c3.4,8.2,8.3,15.4,14.5,21.6c6.2,6.2,13.6,10.9,22,14.3c8.4,3.4,17.6,5.1,27.4,5.1c8.9,0,17.4-1.4,25.4-4.3
				c8-2.9,15.3-7.6,21.9-14.2l7,7.3c-6.7,7.2-14.9,12.6-24.3,16.2C468.4,861.7,458.2,863.4,447.4,863.4z"/>
			<path class="st0" d="M568.4,862.3V714.9l3.3,3.5h-58.7v-10.1H635v10.1h-58.7l3.3-3.5v147.4H568.4z"/>
			<path class="st0" d="M731,863.4c-11.4,0-22-1.9-31.8-5.8c-9.8-3.9-18.3-9.4-25.5-16.5c-7.3-7.1-12.9-15.4-16.8-24.9
				s-5.9-19.8-5.9-30.9c0-11.1,2-21.5,5.9-30.9s9.6-17.7,16.8-24.9c7.3-7.1,15.8-12.6,25.5-16.5c9.8-3.9,20.3-5.8,31.8-5.8
				c11.4,0,22,1.9,31.8,5.8c9.8,3.9,18.2,9.3,25.4,16.4c7.2,7,12.8,15.3,16.8,24.8c4,9.5,6,19.8,6,31.1c0,11.3-2,21.7-6,31.1
				c-4,9.5-9.6,17.7-16.8,24.8c-7.2,7-15.7,12.5-25.4,16.4C753,861.5,742.4,863.4,731,863.4z M731,853.1c9.8,0,18.9-1.7,27.3-5.1
				c8.4-3.4,15.6-8.1,21.8-14.3c6.2-6.2,11-13.3,14.4-21.6c3.4-8.2,5.2-17.2,5.2-26.8c0-9.8-1.7-18.8-5.2-27
				c-3.4-8.1-8.2-15.3-14.4-21.5c-6.2-6.2-13.4-10.9-21.8-14.3c-8.4-3.4-17.5-5.1-27.3-5.1c-9.8,0-18.9,1.7-27.3,5.1
				c-8.4,3.4-15.7,8.1-21.9,14.3c-6.2,6.2-11.1,13.3-14.5,21.5c-3.4,8.1-5.2,17.1-5.2,27c0,9.7,1.7,18.6,5.2,26.8
				c3.4,8.2,8.3,15.4,14.5,21.6c6.2,6.2,13.5,10.9,21.9,14.3C712,851.4,721.1,853.1,731,853.1z"/>
			<path class="st0" d="M852.6,862.3v-154h11.2v154H852.6z M860.1,789.3v-10.1H907v10.1H860.1z M907.4,786.4l-10.3-2.2l59.2-75.9
				h12.5L907.4,786.4z M959.5,862.3l-62.3-77.4l9.5-5.5l66,82.9H959.5z"/>
			<path class="st0" d="M1062.1,862.3v-154h95.3v10.1H1070l3.3-3.5v147.4H1062.1z"/>
			<path class="st0" d="M1198.2,852.2h95v10.1H1187v-154h103v10.1h-91.7V852.2z M1196.9,779.2h83.4v9.9h-83.4V779.2z"/>
			<path class="st0" d="M1315.9,863.4c-1.8,0-3.5-0.1-5.2-0.3c-1.7-0.2-3.6-0.5-5.8-1l1.3-10.3c2.5,0.6,4.9,0.9,7.3,0.9
				c6.7,0,12.2-2.6,16.4-7.9c4.2-5.3,7.4-13.6,9.6-25c2.2-11.4,3.7-26.2,4.4-44.5l2.2-66.9h101v154h-11.2V714.9l3.3,3.5h-86l3.3-3.5
				l-2.2,60.1c-0.6,15.5-1.7,28.9-3.3,39.9c-1.6,11.1-3.9,20.2-6.9,27.4c-3,7.2-6.8,12.5-11.4,15.9
				C1327.9,861.7,1322.4,863.4,1315.9,863.4z"/>
			<path class="st0" d="M1502.5,862.3v-154h11.2v135.1l104.9-135.1h9.9v154h-11.2V727.5l-104.9,134.9H1502.5z"/>
			<path class="st0" d="M1750,863.4c-11.4,0-22-1.9-31.8-5.8c-9.8-3.9-18.3-9.4-25.5-16.5c-7.3-7.1-12.9-15.4-16.8-24.9
				s-5.9-19.8-5.9-30.9c0-11.1,2-21.5,5.9-30.9s9.6-17.7,16.8-24.9c7.3-7.1,15.8-12.6,25.5-16.5c9.8-3.9,20.4-5.8,31.8-5.8
				c11.4,0,22,1.9,31.8,5.8c9.8,3.9,18.2,9.3,25.4,16.4c7.2,7,12.8,15.3,16.8,24.8c4,9.5,6,19.8,6,31.1c0,11.3-2,21.7-6,31.1
				c-4,9.5-9.6,17.7-16.8,24.8c-7.2,7-15.7,12.5-25.4,16.4C1772,861.5,1761.4,863.4,1750,863.4z M1750,853.1
				c9.8,0,18.9-1.7,27.3-5.1c8.4-3.4,15.6-8.1,21.8-14.3c6.2-6.2,11-13.3,14.4-21.6c3.4-8.2,5.2-17.2,5.2-26.8
				c0-9.8-1.7-18.8-5.2-27c-3.4-8.1-8.2-15.3-14.4-21.5c-6.2-6.2-13.4-10.9-21.8-14.3c-8.4-3.4-17.5-5.1-27.3-5.1
				c-9.8,0-18.9,1.7-27.3,5.1c-8.4,3.4-15.7,8.1-21.9,14.3c-6.2,6.2-11.1,13.3-14.5,21.5c-3.4,8.1-5.2,17.1-5.2,27
				c0,9.7,1.7,18.6,5.2,26.8c3.4,8.2,8.3,15.4,14.5,21.6c6.2,6.2,13.5,10.9,21.9,14.3C1731.1,851.4,1740.2,853.1,1750,853.1z"/>
			<path class="st0" d="M1937.6,863.4c-11.4,0-22-1.9-31.8-5.8c-9.8-3.9-18.2-9.3-25.4-16.4c-7.2-7-12.8-15.3-16.7-24.8
				s-5.9-19.8-5.9-31.1c0-11.3,2-21.7,5.9-31.1s9.6-17.7,16.8-24.8s15.7-12.5,25.4-16.4c9.7-3.9,20.2-5.8,31.7-5.8
				c10.9,0,21,1.8,30.5,5.3c9.5,3.5,17.6,8.9,24.3,16.1l-7,7.3c-6.6-6.5-13.9-11.1-21.9-14c-8-2.9-16.5-4.3-25.4-4.3
				c-9.8,0-19,1.7-27.4,5.1c-8.4,3.4-15.8,8.1-22,14.3c-6.2,6.2-11.1,13.3-14.5,21.6c-3.4,8.2-5.2,17.2-5.2,26.8s1.7,18.6,5.2,26.8
				c3.4,8.2,8.3,15.4,14.5,21.6c6.2,6.2,13.6,10.9,22,14.3c8.4,3.4,17.6,5.1,27.4,5.1c8.9,0,17.4-1.4,25.4-4.3
				c8-2.9,15.3-7.6,21.9-14.2l7,7.3c-6.7,7.2-14.8,12.6-24.3,16.2C1958.7,861.7,1948.5,863.4,1937.6,863.4z"/>
		</g>
	</g>
</g>
</svg>
