<?xml version="1.0" encoding="UTF-8"?>
<svg id="uuid-3abc641a-dbd6-4ad4-9bf9-ea38287ec2fa" data-name="Layer 1" xmlns="http://www.w3.org/2000/svg" viewBox="0 0 2042.77 861.24">
  <defs>
    <style>
      .uuid-9c8e3b35-fb80-4493-ba29-30225dabf919 {
        fill: #fff;
      }

      .uuid-b447a2cb-7c36-45bd-87be-c4a3b13cc762 {
        isolation: isolate;
      }
    </style>
  </defs>
  <g id="uuid-0b96ca6e-bb71-433a-abe1-20c24eea0c8c" data-name="uuid-79819b40-5403-4563-b3a4-7b3356ecd3cb">
    <path id="uuid-29ba8136-d23d-41b0-9fa3-e26fe67841d3" data-name="uuid-e5ea7389-6698-4e61-8f36-ed957cfa0364" class="uuid-9c8e3b35-fb80-4493-ba29-30225dabf919" d="m887.67,583.93c-1.15,1.69-3.98,6.34-3.96,12.88,0,1.51.04,6.93,3.63,12.22,5.19,7.65,13.73,9.03,15.28,9.25,23.13,0,93.49,0,158.41-.02,41.93,0,83.87-.1,125.8-.06.38,0,5.38,0,11.76-1.18,5.46-1.02,8.16-2.2,9.41-2.81,2.67-1.28,4.89-2.83,6.28-3.8.62-.44,2.02-1.43,4.29-3.3,8.21-6.77,12.94-12.74,13.6-13.65.08-.11.6-.83,1.34-1.79.48-.61.84-1.06.86-1.08,2.12-2.62,162.51-239.94,168.38-248.03.85-1.17,4.33-5.96,5.72-12.99.76-3.82,2.19-11.02-1.98-16.95-5.69-8.11-17.25-7.33-18.06-7.27-152.56-3.1-264.06-2.67-284.7,0-15.57,2.01-27.39,9.23-27.39,9.23-9.88,6.02-15.69,13.19-17.72,15.99-10.49,14.44-84.27,126.45-170.95,253.37h0Z"/>
    <path id="uuid-872680a3-f8ef-435d-8352-936c8e6a65ba" data-name="uuid-94331c35-6f1f-4da9-bec7-46b55cd4ab05" class="uuid-9c8e3b35-fb80-4493-ba29-30225dabf919" d="m363.05,583.43c-2.99,6.72-3,13.65-3,13.65,0,.88.04,1.52.06,1.76.17,2.4.86,6.47,3.57,10.46,5.19,7.65,13.73,9.03,15.28,9.25,23.13,0,99.88,0,164.81-.02,41.93,0,233.87-.1,275.8-.06.38,0,5.38,0,11.76-1.18,5.46-1.02,8.16-2.2,9.41-2.81,2.67-1.28,4.89-2.83,6.28-3.8.84-.58,2.18-1.56,4.29-3.3,0,0,8.07-6.67,14.36-14.57.44-.56.85-1.11.85-1.11,0,0,.3-.41.59-.83.95-1.38,161.16-238.08,168.38-248.03.85-1.17,4.33-5.96,5.72-12.99.76-3.82,2.67-11.71-1.5-17.64-2.41-3.43-5.98-5.42-5.98-5.42-.66-.36-1.77-.95-3.34-1.32-1.22-.29-2.15-.31-4.35-.33-2.78-.02-4.17-.03-4.81,0-4.79.19-375.74-6.46-439.05.82-5.63.65-16.49,2.29-27.76,9.07-13.14,7.92-20.03,18.73-22.26,22.21,0,0-8.24,12.83-73.31,105.49,0,0-90.6,129.01-95.81,140.72v-.02Z"/>
    <path id="uuid-a9852bd9-89f4-4e45-a263-66581b146dda" data-name="uuid-8b0f2e08-f136-4d20-97cd-403c625cc972" class="uuid-9c8e3b35-fb80-4493-ba29-30225dabf919" d="m228.07,255.36c-1.15,1.69-3.98,6.34-3.96,12.88,0,1.51.04,6.93,3.63,12.22,5.19,7.65,13.73,9.03,15.28,9.25,46.25,0,271.44-.02,274.21-.08,1.41-.03,2.68-.17,2.68-.17.76-.08,1.36-.17,2.55-.36,1.41-.22,2.07-.35,2.37-.42,0,0,.69-.14,1.41-.33,7.28-1.84,15.07-6.26,15.07-6.26,2.52-1.48,6.87-4.04,11.85-8.45,4.21-3.72,6.94-7.04,8.05-8.44,1.55-1.95,2.57-3.47,2.77-3.76,2.64-3.88,143.71-205.72,158.86-231.01.73-1.22,2.86-4.87,3.3-9.91.18-2.11.73-8.38-3.63-13.87-4.51-5.68-11.07-6.5-12.44-6.65h-282.72c-4.45.32-12.21,1.45-20.59,5.99-9.86,5.34-15.44,12.84-17.72,15.99-10.49,14.44-74.27,106.45-160.95,233.37h-.02Z"/>
    <path id="uuid-73d7b3b9-27a2-4ed9-a717-3a259e964d81" data-name="uuid-6b3c8456-d35d-4808-8cd8-4fda8f12548b" class="uuid-9c8e3b35-fb80-4493-ba29-30225dabf919" d="m1109.07,255.36c-1.15,1.69-3.98,6.34-3.96,12.88,0,1.51.04,6.93,3.63,12.22,5.19,7.65,13.73,9.03,15.28,9.25,46.25,0,281.44-.02,284.21-.08,1.41-.03,2.68-.17,2.68-.17.76-.08,1.36-.17,2.55-.36,1.41-.22,2.07-.35,2.37-.42,0,0,.69-.14,1.41-.33,7.28-1.84,15.07-6.26,15.07-6.26,2.52-1.48,6.87-4.04,11.85-8.45,4.21-3.72,6.94-7.04,8.05-8.44,1.55-1.95,2.57-3.47,2.77-3.76,2.64-3.88,143.71-205.72,158.86-231.01.73-1.22,2.86-4.87,3.3-9.91.18-2.11.73-8.38-3.63-13.87-4.51-5.68-11.07-6.5-12.44-6.65h-292.72c-4.45.32-12.21,1.45-20.59,5.99-9.86,5.34-15.44,12.84-17.72,15.99-10.49,14.44-74.27,106.45-160.95,233.37h-.02Z"/>
    <path id="uuid-2f00b96b-63d8-4fca-944f-365fef5d5728" data-name="uuid-76843058-e4da-4b5e-963f-a87eb2ff4b56" class="uuid-9c8e3b35-fb80-4493-ba29-30225dabf919" d="m584.07,255.36c-1.15,1.69-3.98,6.34-3.96,12.88,0,1.51.04,6.93,3.63,12.22,5.19,7.65,13.73,9.03,15.28,9.25,46.25,0,441.44-.02,444.21-.08,1.41-.03,2.68-.17,2.68-.17.76-.08,1.36-.17,2.55-.36,1.41-.22,2.07-.35,2.37-.42,0,0,.69-.14,1.41-.33,7.28-1.84,15.07-6.26,15.07-6.26,2.52-1.48,6.87-4.04,11.85-8.45,4.21-3.72,6.94-7.04,8.05-8.44,1.55-1.95,2.57-3.47,2.77-3.76,2.64-3.88,143.71-205.72,158.86-231.01.73-1.22,2.86-4.87,3.3-9.91.18-2.11.73-8.38-3.63-13.87-4.51-5.68-11.07-6.5-12.44-6.65h-452.72c-4.45.32-12.21,1.45-20.59,5.99-9.86,5.34-15.44,12.84-17.72,15.99-10.49,14.44-74.27,106.45-160.95,233.37h-.02Z"/>
    <path id="uuid-a3b19ea9-2d09-4e18-9585-02db3820b8e4" data-name="uuid-0d5d8f59-f8b8-4555-b90a-35bdbb0f5d12" class="uuid-9c8e3b35-fb80-4493-ba29-30225dabf919" d="m3.96,584.2c-1.15,1.69-3.98,6.34-3.96,12.88,0,.15,0,.84.06,1.75.29,4.24,1.62,8.52,3.32,11.24,4.46,7.16,14.53,8.37,15.53,8.48,46.25,0,271.44-.02,274.21-.08,1.41-.03,2.68-.17,2.68-.17,1.64-.26,3.28-.52,4.92-.77,1.27-.33,3.09-.82,5.25-1.51,3.06-.98,6.44-2.06,10.37-4.04,2.46-1.24,4.15-2.35,7.53-4.56,3.49-2.28,5.23-3.43,6.92-4.85,3.41-2.88,5.58-5.66,9.03-10.1,1.93-2.48,3.26-4.38,3.36-4.51,104.94-149.04,137.09-196.93,157.06-229.1,2.08-3.35,4.97-7.71,10.22-16.79,5.4-9.33,7.63-13.98,7.34-19.98-.1-2.03-.35-6.25-3.22-10.24-5.16-7.19-14.4-7.51-15.8-7.54-151.45-1.56-261.91-1.77-274.68-.72-8.87.73-16.76,3.61-16.76,3.61-2.26.82-7.76,2.98-14.71,7.66-9.97,6.72-16.24,13.94-17.72,15.99-10.49,14.44-84.27,126.45-170.95,253.37v-.02Z"/>
    <path class="uuid-9c8e3b35-fb80-4493-ba29-30225dabf919" d="m1646.28,62.7l-118.68,179.45c-.69,1.73-5.71,15.04,1.84,28.49,8.11,14.43,23.68,16.47,25.24,16.65h238.9c.87-.03,18.74-1.04,27.25-16.73,7.54-13.9,1.4-27.61.72-29.06-39.41-59.6-78.83-119.19-118.24-178.79-.77-1.12-10.86-15.33-28.98-15.08-17.53.24-27.17,13.8-28.05,15.08h0Z"/>
    <path class="uuid-9c8e3b35-fb80-4493-ba29-30225dabf919" d="m1466.17,372.79l163.38,250.72c2.55,4.35,8.2,12.66,18.61,19.05,12.53,7.69,24.7,8.16,29.75,8.06h329.04c12.99.03,25.01-6.92,31.38-18.17,9.74-17.21.51-34.36,0-35.26-57.72-87.37-115.43-174.74-173.15-262.11-2.32-3.32-6.89-8.95-14.53-13.33-9.32-5.35-18.16-5.96-22.35-5.97h-337.13c-2.1.16-18.03,1.63-27.08,15.22-8.09,12.14-7.36,28.95,2.09,41.8h-.01Z"/>
    <path class="uuid-9c8e3b35-fb80-4493-ba29-30225dabf919" d="m1404.84,423.47c5.45-11.18,16.89-18.22,29.23-18,11.94.22,22.81,7.19,28.07,18,39.74,60.22,79.49,120.44,119.23,180.66.51,1.41,5.98,17.38-4.29,31.87-10.42,14.71-27.65,14.65-29.06,14.61h-227.23c-13.93.22-26.73-7.33-32.86-19.4-8.29-16.34.08-32.18.83-33.52,38.7-58.07,77.39-116.15,116.09-174.22h0Z"/>
  </g>
  <g id="uuid-a7b7c0f2-d3d4-4586-994b-eccf49a2762b" data-name="uuid-1cd5057f-1fdc-4cf0-9ad3-2811e24a4aec">
    <g class="uuid-b447a2cb-7c36-45bd-87be-c4a3b13cc762">
      <g class="uuid-b447a2cb-7c36-45bd-87be-c4a3b13cc762">
        <path class="uuid-9c8e3b35-fb80-4493-ba29-30225dabf919" d="m26.72,860.14v-154h62.04c15.84,0,28.34,3.3,37.51,9.9,9.16,6.6,13.75,16.36,13.75,29.26s-4.44,22.37-13.31,28.82c-8.88,6.46-20.43,9.68-34.65,9.68l3.74-4.4c17.16,0,30.14,3.38,38.94,10.12,8.8,6.75,13.2,16.65,13.2,29.7s-4.55,23.14-13.64,30.25c-9.1,7.12-22.88,10.67-41.36,10.67H26.72Zm11.22-82.72h50.6c12.76,0,22.62-2.6,29.59-7.81,6.96-5.2,10.45-12.87,10.45-22.99s-3.49-18-10.45-23.21c-6.97-5.2-16.83-7.81-29.59-7.81h-50.6v61.82Zm0,73.26h55.22c14.22,0,25.04-2.6,32.45-7.81,7.4-5.21,11.11-13.31,11.11-24.31s-3.71-19.25-11.11-24.31c-7.41-5.06-18.23-7.59-32.45-7.59h-55.22v64.02Z"/>
        <path class="uuid-9c8e3b35-fb80-4493-ba29-30225dabf919" d="m257.72,861.24c-11.44,0-22.04-1.94-31.79-5.83-9.76-3.88-18.26-9.38-25.52-16.5-7.26-7.11-12.87-15.4-16.83-24.86s-5.94-19.76-5.94-30.91,1.98-21.45,5.94-30.91,9.57-17.74,16.83-24.86c7.26-7.11,15.76-12.61,25.52-16.5,9.75-3.88,20.35-5.83,31.79-5.83s22.03,1.95,31.79,5.83c9.75,3.89,18.22,9.35,25.41,16.39,7.18,7.04,12.79,15.29,16.83,24.75,4.03,9.46,6.05,19.84,6.05,31.13s-2.02,21.67-6.05,31.13c-4.04,9.46-9.65,17.71-16.83,24.75-7.19,7.04-15.66,12.51-25.41,16.39-9.76,3.89-20.35,5.83-31.79,5.83Zm0-10.34c9.82,0,18.92-1.68,27.28-5.06,8.36-3.37,15.62-8.14,21.78-14.3,6.16-6.16,10.96-13.34,14.41-21.56,3.44-8.21,5.17-17.16,5.17-26.84s-1.73-18.81-5.17-26.95c-3.45-8.14-8.25-15.29-14.41-21.45-6.16-6.16-13.42-10.92-21.78-14.3-8.36-3.37-17.46-5.06-27.28-5.06s-18.92,1.69-27.28,5.06c-8.36,3.38-15.66,8.14-21.89,14.3-6.24,6.16-11.08,13.31-14.52,21.45-3.45,8.14-5.17,17.13-5.17,26.95s1.72,18.63,5.17,26.84c3.44,8.22,8.28,15.4,14.52,21.56,6.23,6.16,13.53,10.93,21.89,14.3,8.36,3.38,17.45,5.06,27.28,5.06Z"/>
        <path class="uuid-9c8e3b35-fb80-4493-ba29-30225dabf919" d="m445.38,861.24c-11.44,0-22.04-1.94-31.79-5.83-9.76-3.88-18.23-9.35-25.41-16.39-7.19-7.04-12.76-15.29-16.72-24.75s-5.94-19.83-5.94-31.13,1.98-21.67,5.94-31.13,9.57-17.71,16.83-24.75c7.26-7.04,15.73-12.5,25.41-16.39,9.68-3.88,20.24-5.83,31.68-5.83,10.85,0,21.01,1.76,30.47,5.28,9.46,3.52,17.56,8.88,24.31,16.06l-7.04,7.26c-6.6-6.45-13.9-11.11-21.89-13.97-8-2.86-16.47-4.29-25.41-4.29-9.83,0-18.96,1.69-27.39,5.06-8.44,3.38-15.77,8.14-22,14.3-6.24,6.16-11.08,13.35-14.52,21.56-3.45,8.22-5.17,17.16-5.17,26.84s1.72,18.63,5.17,26.84c3.44,8.22,8.28,15.4,14.52,21.56,6.23,6.16,13.56,10.93,22,14.3,8.43,3.38,17.56,5.06,27.39,5.06,8.94,0,17.41-1.43,25.41-4.29,7.99-2.86,15.29-7.59,21.89-14.19l7.04,7.26c-6.75,7.19-14.85,12.58-24.31,16.17-9.46,3.6-19.62,5.39-30.47,5.39Z"/>
        <path class="uuid-9c8e3b35-fb80-4493-ba29-30225dabf919" d="m566.38,860.14v-147.4l3.3,3.52h-58.74v-10.12h122.1v10.12h-58.74l3.3-3.52v147.4h-11.22Z"/>
        <path class="uuid-9c8e3b35-fb80-4493-ba29-30225dabf919" d="m728.96,861.24c-11.44,0-22.04-1.94-31.79-5.83-9.76-3.88-18.26-9.38-25.52-16.5-7.26-7.11-12.87-15.4-16.83-24.86s-5.94-19.76-5.94-30.91,1.98-21.45,5.94-30.91,9.57-17.74,16.83-24.86c7.26-7.11,15.76-12.61,25.52-16.5,9.75-3.88,20.35-5.83,31.79-5.83s22.03,1.95,31.79,5.83c9.75,3.89,18.22,9.35,25.41,16.39,7.18,7.04,12.79,15.29,16.83,24.75,4.03,9.46,6.05,19.84,6.05,31.13s-2.02,21.67-6.05,31.13c-4.04,9.46-9.65,17.71-16.83,24.75-7.19,7.04-15.66,12.51-25.41,16.39-9.76,3.89-20.35,5.83-31.79,5.83Zm0-10.34c9.82,0,18.92-1.68,27.28-5.06,8.36-3.37,15.62-8.14,21.78-14.3,6.16-6.16,10.96-13.34,14.41-21.56,3.44-8.21,5.17-17.16,5.17-26.84s-1.73-18.81-5.17-26.95c-3.45-8.14-8.25-15.29-14.41-21.45-6.16-6.16-13.42-10.92-21.78-14.3-8.36-3.37-17.46-5.06-27.28-5.06s-18.92,1.69-27.28,5.06c-8.36,3.38-15.66,8.14-21.89,14.3-6.24,6.16-11.08,13.31-14.52,21.45-3.45,8.14-5.17,17.13-5.17,26.95s1.72,18.63,5.17,26.84c3.44,8.22,8.28,15.4,14.52,21.56,6.23,6.16,13.53,10.93,21.89,14.3,8.36,3.38,17.45,5.06,27.28,5.06Z"/>
        <path class="uuid-9c8e3b35-fb80-4493-ba29-30225dabf919" d="m850.62,860.14v-154h11.22v154h-11.22Zm7.48-73.04v-10.12h46.86v10.12h-46.86Zm47.3-2.86l-10.34-2.2,59.18-75.9h12.54l-61.38,78.1Zm52.14,75.9l-62.26-77.44,9.46-5.5,66,82.94h-13.2Z"/>
        <path class="uuid-9c8e3b35-fb80-4493-ba29-30225dabf919" d="m1060.05,860.14v-154h95.26v10.12h-87.34l3.3-3.52v147.4h-11.22Z"/>
        <path class="uuid-9c8e3b35-fb80-4493-ba29-30225dabf919" d="m1196.23,850.02h95.04v10.12h-106.26v-154h102.96v10.12h-91.74v133.76Zm-1.32-73.04h83.38v9.9h-83.38v-9.9Z"/>
        <path class="uuid-9c8e3b35-fb80-4493-ba29-30225dabf919" d="m1313.93,861.24c-1.76,0-3.49-.11-5.17-.33-1.69-.22-3.63-.55-5.83-.99l1.32-10.34c2.49.59,4.91.88,7.26.88,6.75,0,12.21-2.64,16.39-7.92,4.18-5.28,7.37-13.6,9.57-24.97,2.2-11.36,3.67-26.21,4.4-44.55l2.2-66.88h100.98v154h-11.22v-147.4l3.3,3.52h-86.02l3.3-3.52-2.2,60.06c-.59,15.55-1.69,28.86-3.3,39.93-1.62,11.08-3.93,20.21-6.93,27.39-3.01,7.19-6.82,12.5-11.44,15.95-4.62,3.45-10.16,5.17-16.61,5.17Z"/>
        <path class="uuid-9c8e3b35-fb80-4493-ba29-30225dabf919" d="m1500.49,860.14v-154h11.22v135.08l104.94-135.08h9.9v154h-11.22v-134.86l-104.94,134.86h-9.9Z"/>
        <path class="uuid-9c8e3b35-fb80-4493-ba29-30225dabf919" d="m1747.99,861.24c-11.44,0-22.04-1.94-31.79-5.83-9.75-3.88-18.26-9.38-25.52-16.5-7.26-7.11-12.87-15.4-16.83-24.86s-5.94-19.76-5.94-30.91,1.98-21.45,5.94-30.91,9.57-17.74,16.83-24.86c7.26-7.11,15.76-12.61,25.52-16.5,9.75-3.88,20.35-5.83,31.79-5.83s22.03,1.95,31.79,5.83c9.75,3.89,18.22,9.35,25.41,16.39,7.18,7.04,12.79,15.29,16.83,24.75,4.03,9.46,6.05,19.84,6.05,31.13s-2.02,21.67-6.05,31.13c-4.04,9.46-9.65,17.71-16.83,24.75-7.19,7.04-15.66,12.51-25.41,16.39-9.76,3.89-20.35,5.83-31.79,5.83Zm0-10.34c9.82,0,18.92-1.68,27.28-5.06,8.36-3.37,15.62-8.14,21.78-14.3,6.16-6.16,10.96-13.34,14.41-21.56,3.44-8.21,5.17-17.16,5.17-26.84s-1.73-18.81-5.17-26.95c-3.45-8.14-8.25-15.29-14.41-21.45-6.16-6.16-13.42-10.92-21.78-14.3-8.36-3.37-17.46-5.06-27.28-5.06s-18.92,1.69-27.28,5.06c-8.36,3.38-15.66,8.14-21.89,14.3-6.24,6.16-11.08,13.31-14.52,21.45-3.45,8.14-5.17,17.13-5.17,26.95s1.72,18.63,5.17,26.84c3.44,8.22,8.28,15.4,14.52,21.56,6.23,6.16,13.53,10.93,21.89,14.3,8.36,3.38,17.45,5.06,27.28,5.06Z"/>
        <path class="uuid-9c8e3b35-fb80-4493-ba29-30225dabf919" d="m1935.65,861.24c-11.44,0-22.04-1.94-31.79-5.83-9.75-3.88-18.23-9.35-25.41-16.39-7.19-7.04-12.76-15.29-16.72-24.75s-5.94-19.83-5.94-31.13,1.98-21.67,5.94-31.13,9.57-17.71,16.83-24.75,15.73-12.5,25.41-16.39c9.68-3.88,20.24-5.83,31.68-5.83s21.01,1.76,30.47,5.28c9.46,3.52,17.56,8.88,24.31,16.06l-7.04,7.26c-6.6-6.45-13.9-11.11-21.89-13.97-8-2.86-16.47-4.29-25.41-4.29-9.83,0-18.96,1.69-27.39,5.06-8.44,3.38-15.77,8.14-22,14.3-6.24,6.16-11.08,13.35-14.52,21.56-3.45,8.22-5.17,17.16-5.17,26.84s1.72,18.63,5.17,26.84c3.44,8.22,8.28,15.4,14.52,21.56,6.23,6.16,13.56,10.93,22,14.3,8.43,3.38,17.56,5.06,27.39,5.06,8.94,0,17.41-1.43,25.41-4.29,7.99-2.86,15.29-7.59,21.89-14.19l7.04,7.26c-6.75,7.19-14.85,12.58-24.31,16.17-9.46,3.6-19.62,5.39-30.47,5.39Z"/>
      </g>
    </g>
  </g>
</svg>